<?xml version="1.0" encoding="UTF-8"?>
<svg version="1.1" xmlns="http://www.w3.org/2000/svg" width="534" height="467">
<path d="M0 0 C176.22 0 352.44 0 534 0 C534 154.11 534 308.22 534 467 C357.78 467 181.56 467 0 467 C0 312.89 0 158.78 0 0 Z " fill="#010100" transform="translate(0,0)"/>
<path d="M0 0 C1.59819077 0.00173721 1.59819077 0.00173721 3.22866821 0.00350952 C24.13383023 0.04833972 44.3067687 1.4018224 64.6875 6.3125 C66.31138763 6.61029758 67.93635978 6.90225901 69.5625 7.1875 C92.96797832 11.83784955 113.29949062 21.98965208 131 37.875 C131.75603516 38.54547363 131.75603516 38.54547363 132.52734375 39.22949219 C137.37614585 43.6666647 140.55772233 48.87598939 143.75 54.5625 C144.23597656 55.41328125 144.72195313 56.2640625 145.22265625 57.140625 C148.87292684 65.04467759 150.1584211 72.2686976 150 80.9375 C150.00483398 82.27167969 150.00483398 82.27167969 150.00976562 83.6328125 C149.84633748 103.83847386 138.60355294 121.47290888 124.6875 135.3125 C123.82125 136.17875 122.955 137.045 122.0625 137.9375 C114.90555829 144.75363496 107.06275168 150.13545526 98.6875 155.3125 C98.08905273 155.68729492 97.49060547 156.06208984 96.87402344 156.44824219 C69.6989262 173.26385397 36.66322256 184.08824763 5.4375 190.25 C4.60250977 190.4154834 3.76751953 190.5809668 2.90722656 190.75146484 C-23.38969328 195.87844609 -49.47443677 199.65954392 -76.3125 199.3125 C-74.46877257 202.53346961 -72.56545606 205.32562282 -70.0625 208.0625 C-67.66713205 210.74610724 -65.37699489 213.45853153 -63.1875 216.3125 C-59.81031308 220.71353997 -56.31927359 225.01472112 -52.8125 229.3125 C-49.3902858 233.5070221 -45.97771934 237.70046217 -42.6875 242 C-39.40718457 246.26522404 -35.92502358 250.34719459 -32.43359375 254.43945312 C-29.6193878 257.74459884 -26.87417351 261.08937255 -24.1875 264.5 C-20.11111524 269.63906755 -15.73647049 274.47260067 -11.3125 279.3125 C-9.81106291 280.97787216 -8.31105956 282.64453806 -6.8125 284.3125 C-5.70648438 285.54033203 -5.70648438 285.54033203 -4.578125 286.79296875 C-3.02318212 288.52217247 -1.47125411 290.25409058 0.078125 291.98828125 C6.08769683 298.70427626 12.29875394 304.92514179 19.0234375 310.92578125 C20.72741126 312.45236185 22.42121773 313.99041719 24.1015625 315.54296875 C34.21632845 324.85053026 45.10212123 332.93258659 56.6875 340.3125 C57.3381543 340.73144531 57.98880859 341.15039062 58.65917969 341.58203125 C74.50145826 351.73865142 90.67459173 359.81220806 108.6875 365.3125 C110.18915537 365.82854118 111.68940336 366.34871698 113.1875 366.875 C126.09915335 371.17888445 138.27143241 373.49261879 151.875 373.5 C153.04353516 373.51224609 154.21207031 373.52449219 155.41601562 373.53710938 C171.67674797 373.5643164 188.7113436 370.16312017 200.6875 358.3125 C208.74286576 349.63475499 210.15946032 340.81075901 209.875 329.25 C209.85469727 327.66541992 209.85469727 327.66541992 209.83398438 326.04882812 C209.7989709 323.46950191 209.74986675 320.89128506 209.6875 318.3125 C212.05078125 317.703125 212.05078125 317.703125 214.6875 317.3125 C217.30950075 319.4101006 218.81975232 321.51087848 220.6875 324.3125 C220.94628906 326.66577148 220.94628906 326.66577148 220.953125 329.43359375 C220.95989258 330.95146484 220.95989258 330.95146484 220.96679688 332.5 C220.95712891 333.5725 220.94746094 334.645 220.9375 335.75 C220.92783203 336.84441406 220.91816406 337.93882812 220.90820312 339.06640625 C220.67655459 354.596124 217.90165983 369.27183581 206.75 380.9375 C200.9836395 386.04936166 194.91655699 390.19764418 187.58984375 392.6640625 C185.72987824 393.29805485 183.9245688 394.08571544 182.125 394.875 C158.2063894 404.87732807 125.14828571 400.94243039 101.71191406 391.51806641 C100.03243059 390.79362967 98.35981905 390.05332542 96.6875 389.3125 C95.36396613 388.80385754 94.0369578 388.30418528 92.70703125 387.8125 C73.02227817 380.51169319 55.18469636 370.27367104 38.6875 357.3125 C37.99962402 356.77270508 37.31174805 356.23291016 36.60302734 355.67675781 C34.45622738 353.98209504 32.31931979 352.2759622 30.1875 350.5625 C29.21744019 349.78447021 29.21744019 349.78447021 28.2277832 348.99072266 C24.41859985 345.88197097 20.92091161 342.60011862 17.48461914 339.0859375 C15.62753649 337.25332667 13.69678318 335.55564459 11.71484375 333.859375 C7.62629306 330.32705622 3.92054055 326.52288352 0.25 322.5625 C-0.40250732 321.8622168 -1.05501465 321.16193359 -1.72729492 320.44042969 C-6.07013079 315.74471484 -10.21789723 310.9571328 -14.203125 305.953125 C-16.54108305 303.02634788 -18.95538327 300.17204704 -21.375 297.3125 C-25.95637458 291.81766117 -30.16548404 286.13823941 -34.3125 280.3125 C-35.39328215 278.81810624 -36.47542422 277.32469549 -37.55859375 275.83203125 C-38.72656812 274.22135824 -39.89453684 272.61068114 -41.0625 271 C-41.61784424 270.23478027 -42.17318848 269.46956055 -42.74536133 268.68115234 C-51.3125 256.8341123 -51.3125 256.8341123 -51.3125 254.3125 C-51.9725 254.3125 -52.6325 254.3125 -53.3125 254.3125 C-54.79296875 252.2578125 -54.79296875 252.2578125 -56.5 249.4375 C-60.63557936 242.7576033 -65.11130347 236.37329138 -69.6953125 229.99609375 C-70.11312988 229.41408203 -70.53094727 228.83207031 -70.96142578 228.23242188 C-71.81818216 227.03900147 -72.67592484 225.84628848 -73.53466797 224.65429688 C-77.06874183 219.72252854 -80.37646472 214.6707019 -83.62109375 209.54296875 C-85.18835758 207.04007964 -85.18835758 207.04007964 -88.3125 206.3125 C-88.42722656 207.23289062 -88.54195313 208.15328125 -88.66015625 209.1015625 C-89.41138031 214.35352966 -90.6029091 219.51054167 -91.75 224.6875 C-91.96720703 225.6775 -92.18441406 226.6675 -92.40820312 227.6875 C-93.36071855 232.02387655 -94.32241191 236.35816215 -95.2890625 240.69140625 C-100.04961017 262.10069359 -104.40216294 283.51333831 -107.95556641 305.15527344 C-108.11718262 306.13915039 -108.27879883 307.12302734 -108.4453125 308.13671875 C-108.58855957 309.01416748 -108.73180664 309.89161621 -108.87939453 310.7956543 C-109.16913534 312.47938484 -109.49514786 314.15725659 -109.85620117 315.82714844 C-110.64997204 320.15063023 -110.49699944 324.49118314 -110.5 328.875 C-110.51224609 329.82052734 -110.52449219 330.76605469 -110.53710938 331.74023438 C-110.53904297 332.65224609 -110.54097656 333.56425781 -110.54296875 334.50390625 C-110.54707764 335.33092041 -110.55118652 336.15793457 -110.55541992 337.01000977 C-110.29090015 339.51723181 -109.56910609 341.14573384 -108.3125 343.3125 C-104.20283941 343.21465094 -102.53636474 342.51203162 -99.4375 339.75 C-95.08029706 334.21794915 -92.32390166 327.6008811 -89.28515625 321.29101562 C-87.11777193 316.88225997 -84.71008445 312.59909038 -82.3125 308.3125 C-81.3225 308.3125 -80.3325 308.3125 -79.3125 308.3125 C-79.73894435 315.70420209 -82.31369675 321.60089273 -85.3125 328.3125 C-85.7765625 329.4571875 -85.7765625 329.4571875 -86.25 330.625 C-91.06059412 342.30787144 -99.05960763 357.17391059 -110.0625 364 C-115.36857477 366.14283789 -115.36857477 366.14283789 -118.3125 365.3125 C-123.64537765 361.2796771 -124.91809798 356.65549799 -125.9440918 350.30297852 C-126.52503118 345.58732149 -126.6526029 340.93519893 -126.625 336.1875 C-126.61762817 334.63724121 -126.61762817 334.63724121 -126.61010742 333.05566406 C-126.12528534 300.10765244 -118.21823405 266.88875653 -110.6875 234.9375 C-110.39649414 233.69915405 -110.39649414 233.69915405 -110.09960938 232.43579102 C-108.34838631 225.15114828 -106.35412239 217.94423573 -103.6875 210.9375 C-102.7049906 208.34724795 -101.93655257 205.98532892 -101.3125 203.3125 C-102.529375 203.374375 -103.74625 203.43625 -105 203.5 C-108.92612162 203.5 -111.14549885 202.75561517 -114.3125 200.3125 C-114.910625 199.920625 -115.50875 199.52875 -116.125 199.125 C-118.14256081 196.04556509 -117.89494185 192.80715108 -117.3125 189.3125 C-115.2995783 185.04510601 -113.09615311 182.45793242 -108.59375 180.76953125 C-103.57269642 179.763601 -98.40443217 180.1057599 -93.3125 180.3125 C-92.5191145 178.27150065 -91.7278697 176.2296691 -90.9375 174.1875 C-90.49664062 173.05054688 -90.05578125 171.91359375 -89.6015625 170.7421875 C-88.42795297 167.61967487 -87.34407226 164.48434369 -86.3125 161.3125 C-87.50488281 161.32410156 -88.69726562 161.33570313 -89.92578125 161.34765625 C-91.49218594 161.35703592 -93.05859231 161.36613593 -94.625 161.375 C-95.41068359 161.38337891 -96.19636719 161.39175781 -97.00585938 161.40039062 C-97.76318359 161.40361328 -98.52050781 161.40683594 -99.30078125 161.41015625 C-99.99727783 161.41539307 -100.69377441 161.42062988 -101.41137695 161.42602539 C-103.3125 161.3125 -103.3125 161.3125 -106.3125 160.3125 C-106.33962351 157.91658962 -106.3593982 155.52099043 -106.375 153.125 C-106.38337891 152.45146484 -106.39175781 151.77792969 -106.40039062 151.08398438 C-106.41856538 147.35815869 -106.20549392 143.9336958 -105.3125 140.3125 C-104.6525 140.3125 -103.9925 140.3125 -103.3125 140.3125 C-103.126875 138.95125 -103.126875 138.95125 -102.9375 137.5625 C-102.39140323 134.72279677 -101.73986197 132.78659409 -100.3125 130.3125 C-97.12996539 130.96347299 -94.63562408 132.09224153 -91.8125 133.6875 C-90.68328125 134.31785156 -90.68328125 134.31785156 -89.53125 134.9609375 C-87.3125 136.3125 -87.3125 136.3125 -85.21875 137.9140625 C-83.26135463 139.49964752 -83.26135463 139.49964752 -80.3125 140.3125 C-80.47298828 138.86617188 -80.47298828 138.86617188 -80.63671875 137.390625 C-80.75660156 136.12734375 -80.87648438 134.8640625 -81 133.5625 C-81.12761719 132.30953125 -81.25523437 131.0565625 -81.38671875 129.765625 C-81.30515624 125.9708218 -80.72854248 125.07014232 -78.3125 122.3125 C-78.3125 121.3225 -78.3125 120.3325 -78.3125 119.3125 C-79.16521484 119.20035156 -79.16521484 119.20035156 -80.03515625 119.0859375 C-86.11169385 118.05120155 -90.33987016 116.12905639 -94.3125 111.3125 C-98.18472316 104.84360955 -98.35457724 98.67427148 -97.3125 91.3125 C-95.33476243 87.01421701 -92.56173286 84.24942465 -88.8125 81.4375 C-82.13611772 75.76257506 -77.86552835 66.32228622 -76.9140625 57.703125 C-76.65673096 54.23958158 -76.45383586 50.78253893 -76.3125 47.3125 C-73.3125 49.3125 -73.3125 49.3125 -72.3125 52.3125 C-71.44902139 66.31081673 -73.39490098 73.37271723 -82.15625 84.3828125 C-86.45076859 90.21775624 -87.98944262 94.2046025 -87.3125 101.3125 C-86.5361068 104.3870356 -86.5361068 104.3870356 -84.3125 106.3125 C-80.19186527 107.0689099 -80.19186527 107.0689099 -76.3125 106.3125 C-73.61010001 103.73124208 -72.36227866 102.28116582 -72.16796875 98.5 C-72.27753906 97.448125 -72.38710937 96.39625 -72.5 95.3125 C-72.88552283 83.92752893 -68.25058832 72.915182 -63.7109375 62.61328125 C-61.8330793 58.18090644 -60.5890181 53.63291321 -59.27734375 49.0078125 C-58.3125 46.3125 -58.3125 46.3125 -56.3125 45.3125 C-56.71893417 50.72040677 -57.12795766 56.12810938 -57.53930664 61.53564453 C-57.67867811 63.37250565 -57.81736105 65.20941915 -57.95532227 67.04638672 C-58.15456896 69.69773444 -58.35635017 72.3488794 -58.55859375 75 C-58.6190538 75.81178711 -58.67951385 76.62357422 -58.74180603 77.45996094 C-58.91754279 79.74564517 -59.11081803 82.02897107 -59.3125 84.3125 C-59.37172638 85.05580566 -59.43095276 85.79911133 -59.49197388 86.56494141 C-59.88267181 90.59845651 -60.16328251 92.13780636 -62.875 95.3125 C-65.31447727 98.31493357 -65.68302429 98.79179948 -65.75 102.375 C-65.36871311 105.80658203 -64.84336983 108.25076034 -63.3125 111.3125 C-61.89756449 111.42134119 -60.48017057 111.49847617 -59.0625 111.5625 C-58.27359375 111.60890625 -57.4846875 111.6553125 -56.671875 111.703125 C-54.20468542 111.4537079 -54.20468542 111.4537079 -52.0390625 109.859375 C-49.48194538 106.08733798 -49.8024211 102.76299431 -49.9375 98.3125 C-49.93878906 97.50554687 -49.94007813 96.69859375 -49.94140625 95.8671875 C-50.00344742 91.6897484 -50.33938954 89.03760482 -52.3125 85.3125 C-53.37813698 76.23891456 -51.77435781 67.57657029 -46.6875 59.9765625 C-44.86685802 57.77317192 -42.89884249 56.49482799 -40.3125 55.3125 C-41.31815974 59.0257052 -42.38185265 62.4832048 -43.9375 66 C-47.65862609 75.9230029 -44.86127665 85.7635829 -41.3125 95.3125 C-40.9825 95.9725 -40.6525 96.6325 -40.3125 97.3125 C-39.71316217 103.61707293 -40.12521884 108.70728142 -43.3125 114.3125 C-47.42382643 119.07298323 -50.90472958 122.13563146 -57.30078125 122.60546875 C-58.74248091 122.58571944 -60.18403998 122.55022113 -61.625 122.5 C-62.73584961 122.47969727 -62.73584961 122.47969727 -63.86914062 122.45898438 C-65.68391075 122.42385979 -67.49830288 122.37005972 -69.3125 122.3125 C-69.26609375 123.06015625 -69.2196875 123.8078125 -69.171875 124.578125 C-68.87157548 132.77201188 -68.87157548 132.77201188 -71.25 135.6875 C-71.930625 136.22375 -72.61125 136.76 -73.3125 137.3125 C-73.96824425 139.86639553 -73.96824425 139.86639553 -74.3125 142.3125 C-73.42111328 142.0959375 -73.42111328 142.0959375 -72.51171875 141.875 C-66.02517548 140.42233712 -59.94636814 140.0854855 -53.3125 140.3125 C-52.78919488 151.08386374 -53.12715449 160.03448174 -59.3125 169.3125 C-64.94710384 170.21403661 -67.98664882 168.67171337 -72.41796875 165.50390625 C-74.53235302 164.03714354 -74.53235302 164.03714354 -78.3125 163.3125 C-79.6325 171.5625 -80.9525 179.8125 -82.3125 188.3125 C-56.4177187 201.25989065 2.58129772 178.2394618 28.26953125 169.828125 C39.58466112 166.00427159 50.59575963 161.61639766 61.203125 156.1171875 C63.63990812 154.85508683 66.07454292 153.6322779 68.546875 152.4453125 C83.52759809 145.22151513 99.72539232 136.58943727 111.41796875 124.52734375 C112.6875 123.3125 112.6875 123.3125 114.6875 123.3125 C114.6875 122.6525 114.6875 121.9925 114.6875 121.3125 C116.12965555 120.12682109 117.57390312 118.94356552 119.03027344 117.77539062 C121.75220958 115.3726444 123.74866875 112.53148486 125.8125 109.5625 C126.24626953 108.94415283 126.68003906 108.32580566 127.12695312 107.6887207 C135.32398955 95.7647692 138.55936574 83.0882372 136.2578125 68.609375 C133.51119743 57.82636769 126.23207672 50.03753313 117.6875 43.3125 C117.02363281 42.77882812 116.35976563 42.24515625 115.67578125 41.6953125 C98.25260755 28.88513146 72.54729681 25.56795091 51.5078125 24.5234375 C48.6875 24.3125 48.6875 24.3125 46.8006897 23.80839539 C44.4864067 23.26531009 42.43234676 23.17854499 40.05615234 23.16723633 C38.67965263 23.15780251 38.67965263 23.15780251 37.27534485 23.1481781 C36.28471542 23.14697464 35.294086 23.14577118 34.2734375 23.14453125 C33.2386174 23.14038712 32.2037973 23.13624298 31.13761902 23.13197327 C27.77921007 23.12228725 24.42092077 23.1223151 21.0625 23.125 C19.92690643 23.12493958 18.79131287 23.12487915 17.62130737 23.12481689 C-1.55048595 23.13943589 -20.63052016 23.22563377 -39.52514648 26.81298828 C-45.15035104 27.8210612 -50.83163755 28.46735949 -56.50195312 29.16796875 C-61.34925237 29.79713669 -65.70243567 30.62430743 -70.3125 32.3125 C-72.66169086 32.9155595 -75.01647426 33.49704903 -77.375 34.0625 C-92.73556819 37.84496043 -107.78337365 41.99624507 -122.3125 48.3125 C-123.21355469 48.68761719 -124.11460937 49.06273437 -125.04296875 49.44921875 C-138.75159062 55.35989535 -151.75795817 62.85878396 -163.3125 72.3125 C-164.03566406 72.88355469 -164.75882813 73.45460938 -165.50390625 74.04296875 C-176.8942631 83.42719621 -187.78011532 98.09985136 -190.1328125 113.10546875 C-190.19210938 113.83378906 -190.25140625 114.56210938 -190.3125 115.3125 C-190.39242187 116.27800781 -190.47234375 117.24351562 -190.5546875 118.23828125 C-190.83952285 124.96542195 -190.1234796 129.72809425 -186.3125 135.3125 C-185.61125 136.34375 -184.91 137.375 -184.1875 138.4375 C-179.55540646 143.70255043 -172.75361759 146.84374357 -166.3125 149.3125 C-164.76612466 149.94697626 -163.2242396 150.59252893 -161.6875 151.25 C-160.93210938 151.56839844 -160.17671875 151.88679687 -159.3984375 152.21484375 C-157.22583339 153.35810546 -155.82671117 154.38175825 -154.3125 156.3125 C-154.625 159 -154.625 159 -155.3125 161.3125 C-167.22723164 162.21172503 -177.82978339 156.48906926 -186.94921875 149.20703125 C-191.93223961 144.87947502 -197.19591192 140.22894974 -200.3125 134.3125 C-200.3125 132.9925 -200.3125 131.6725 -200.3125 130.3125 C-200.9725 130.3125 -201.6325 130.3125 -202.3125 130.3125 C-204.10456816 122.90316495 -204.64903471 115.85939009 -204.625 108.25 C-204.64916992 106.71375977 -204.64916992 106.71375977 -204.67382812 105.14648438 C-204.6846097 88.27331432 -195.41747689 75.36631985 -184.3125 63.3125 C-181.76377879 60.81279266 -179.08849945 58.5540547 -176.3125 56.3125 C-175.55066406 55.6525 -174.78882813 54.9925 -174.00390625 54.3125 C-151.84455044 35.42476902 -123.33345797 18.62008806 -94.55834961 12.83447266 C-92.0354456 12.29463357 -92.0354456 12.29463357 -88.61328125 10.9765625 C-82.06408118 8.76355099 -75.28915583 7.52092372 -68.51611328 6.20532227 C-66.23837753 5.75994827 -63.96508509 5.29565508 -61.69140625 4.83007812 C-41.27493007 0.75869578 -20.77169996 -0.07054486 0 0 Z " fill="#F0F5EF" transform="translate(253.3125,52.6875)"/>
<path d="M0 0 C0.86080694 2.91633636 1.06462025 5.28076522 0.82568359 8.30615234 C0.76166351 9.1473764 0.69764343 9.98860046 0.63168335 10.85531616 C0.55471222 11.7564212 0.47774109 12.65752625 0.3984375 13.5859375 C0.32009674 14.5204776 0.24175598 15.4550177 0.16104126 16.4178772 C-0.00836319 18.39350685 -0.18177096 20.36879673 -0.35888672 22.34375 C-0.62328275 25.35543914 -0.85680311 28.36855751 -1.08984375 31.3828125 C-1.25850662 33.30485607 -1.42901939 35.22673838 -1.6015625 37.1484375 C-1.66638824 38.04549408 -1.73121399 38.94255066 -1.79800415 39.86679077 C-2.38704308 45.8864324 -3.78986712 48.66639789 -8 53 C-9.16067033 57.48846637 -8.04635782 61.90728435 -6 66 C-4.58506449 66.10884119 -3.16767057 66.18597617 -1.75 66.25 C-0.96109375 66.29640625 -0.1721875 66.3428125 0.640625 66.390625 C3.10781458 66.1412079 3.10781458 66.1412079 5.2734375 64.546875 C7.83055462 60.77483798 7.5100789 57.45049431 7.375 53 C7.37371094 52.19304687 7.37242187 51.38609375 7.37109375 50.5546875 C7.30905258 46.3772484 6.97311046 43.72510482 5 40 C3.93436302 30.92641456 5.53814219 22.26407029 10.625 14.6640625 C12.44564198 12.46067192 14.41365751 11.18232799 17 10 C15.99434026 13.7132052 14.93064735 17.1707048 13.375 20.6875 C9.65387391 30.6105029 12.45122335 40.4510829 16 50 C16.33 50.66 16.66 51.32 17 52 C17.59933783 58.30457293 17.18728116 63.39478142 14 69 C9.88867357 73.76048323 6.40777042 76.82313146 0.01171875 77.29296875 C-1.42998091 77.27321944 -2.87153998 77.23772113 -4.3125 77.1875 C-5.42334961 77.16719727 -5.42334961 77.16719727 -6.55664062 77.14648438 C-8.37141075 77.11135979 -10.18580288 77.05755972 -12 77 C-11.95359375 77.74765625 -11.9071875 78.4953125 -11.859375 79.265625 C-11.55907548 87.45951188 -11.55907548 87.45951188 -13.9375 90.375 C-14.618125 90.91125 -15.29875 91.4475 -16 92 C-16.65574425 94.55389553 -16.65574425 94.55389553 -17 97 C-16.10861328 96.7834375 -16.10861328 96.7834375 -15.19921875 96.5625 C-8.71267548 95.10983712 -2.63386814 94.7729855 4 95 C4.52330512 105.77136374 4.18534551 114.72198174 -2 124 C-7.63460384 124.90153661 -10.67414882 123.35921337 -15.10546875 120.19140625 C-17.21985302 118.72464354 -17.21985302 118.72464354 -21 118 C-22.32 126.25 -23.64 134.5 -25 143 C-19.90358688 144.69880437 -16.20186922 145.4618756 -11 146 C-15.75 151.875 -15.75 151.875 -18 153 C-17.48388674 157.16525211 -16.32214893 159.17464445 -13.4375 162.1875 C-10 165.80482897 -10 165.80482897 -10 168 C-10.99 168.33 -11.98 168.66 -13 169 C-13.33 169.99 -13.66 170.98 -14 172 C-12.35 172.33 -10.7 172.66 -9 173 C-9.99 173.33 -10.98 173.66 -12 174 C-12.33 174.66 -12.66 175.32 -13 176 C-15.0625 177.125 -15.0625 177.125 -17 178 C-18.0842148 176.45895312 -19.16732521 174.91712922 -20.25 173.375 C-21.2090625 172.01181641 -21.2090625 172.01181641 -22.1875 170.62109375 C-23.59563273 168.58476387 -24.93724769 166.53482694 -26.25 164.4375 C-27.83293239 161.73001599 -27.83293239 161.73001599 -31 161 C-31.11472656 161.92039062 -31.22945312 162.84078125 -31.34765625 163.7890625 C-32.09888031 169.04102966 -33.2904091 174.19804167 -34.4375 179.375 C-34.65470703 180.365 -34.87191406 181.355 -35.09570312 182.375 C-36.04821855 186.71137655 -37.00991191 191.04566215 -37.9765625 195.37890625 C-42.73711017 216.78819359 -47.08966294 238.20083831 -50.64306641 259.84277344 C-50.88549072 261.31858887 -50.88549072 261.31858887 -51.1328125 262.82421875 C-51.34768311 264.14039185 -51.34768311 264.14039185 -51.56689453 265.4831543 C-51.85663534 267.16688484 -52.18264786 268.84475659 -52.54370117 270.51464844 C-53.33747204 274.83813023 -53.18449944 279.17868314 -53.1875 283.5625 C-53.19974609 284.50802734 -53.21199219 285.45355469 -53.22460938 286.42773438 C-53.22654297 287.33974609 -53.22847656 288.25175781 -53.23046875 289.19140625 C-53.23663208 290.43192749 -53.23663208 290.43192749 -53.24291992 291.69750977 C-52.97840015 294.20473181 -52.25660609 295.83323384 -51 298 C-46.89033941 297.90215094 -45.22386474 297.19953162 -42.125 294.4375 C-37.76779706 288.90544915 -35.01140166 282.2883811 -31.97265625 275.97851562 C-29.80527193 271.56975997 -27.39758445 267.28659038 -25 263 C-24.01 263 -23.02 263 -22 263 C-22.42644435 270.39170209 -25.00119675 276.28839273 -28 283 C-28.309375 283.763125 -28.61875 284.52625 -28.9375 285.3125 C-33.74809412 296.99537144 -41.74710763 311.86141059 -52.75 318.6875 C-58.05607477 320.83033789 -58.05607477 320.83033789 -61 320 C-66.33287765 315.9671771 -67.60559798 311.34299799 -68.6315918 304.99047852 C-69.21253118 300.27482149 -69.3401029 295.62269893 -69.3125 290.875 C-69.30758545 289.84149414 -69.3026709 288.80798828 -69.29760742 287.74316406 C-68.81278534 254.79515244 -60.90573405 221.57625653 -53.375 189.625 C-53.18099609 188.79943604 -52.98699219 187.97387207 -52.78710938 187.12329102 C-51.03588631 179.83864828 -49.04162239 172.63173573 -46.375 165.625 C-45.3924906 163.03474795 -44.62405257 160.67282892 -44 158 C-45.216875 158.061875 -46.43375 158.12375 -47.6875 158.1875 C-51.61362162 158.1875 -53.83299885 157.44311517 -57 155 C-57.598125 154.608125 -58.19625 154.21625 -58.8125 153.8125 C-60.83006081 150.73306509 -60.58244185 147.49465108 -60 144 C-57.9870783 139.73260601 -55.78365311 137.14543242 -51.28125 135.45703125 C-46.26019642 134.451101 -41.09193217 134.7932599 -36 135 C-35.2066145 132.95900065 -34.4153697 130.9171691 -33.625 128.875 C-32.96371094 127.16957031 -32.96371094 127.16957031 -32.2890625 125.4296875 C-31.11545297 122.30717487 -30.03157226 119.17184369 -29 116 C-30.19238281 116.01160156 -31.38476562 116.02320313 -32.61328125 116.03515625 C-34.17968594 116.04453592 -35.74609231 116.05363593 -37.3125 116.0625 C-38.09818359 116.07087891 -38.88386719 116.07925781 -39.69335938 116.08789062 C-40.45068359 116.09111328 -41.20800781 116.09433594 -41.98828125 116.09765625 C-43.03302612 116.10551147 -43.03302612 116.10551147 -44.09887695 116.11352539 C-46 116 -46 116 -49 115 C-49.02712351 112.60408962 -49.0468982 110.20849043 -49.0625 107.8125 C-49.07087891 107.13896484 -49.07925781 106.46542969 -49.08789062 105.77148438 C-49.10606538 102.04565869 -48.89299392 98.6211958 -48 95 C-47.34 95 -46.68 95 -46 95 C-45.87625 94.0925 -45.7525 93.185 -45.625 92.25 C-45.07890323 89.41029677 -44.42736197 87.47409409 -43 85 C-39.81746539 85.65097299 -37.32312408 86.77974153 -34.5 88.375 C-33.7471875 88.79523438 -32.994375 89.21546875 -32.21875 89.6484375 C-30 91 -30 91 -27.90625 92.6015625 C-25.94885463 94.18714752 -25.94885463 94.18714752 -23 95 C-23.10699219 94.03578125 -23.21398437 93.0715625 -23.32421875 92.078125 C-23.44410156 90.81484375 -23.56398437 89.5515625 -23.6875 88.25 C-23.81511719 86.99703125 -23.94273437 85.7440625 -24.07421875 84.453125 C-23.99265624 80.6583218 -23.41604248 79.75764232 -21 77 C-21 76.01 -21 75.02 -21 74 C-21.56847656 73.92523438 -22.13695312 73.85046875 -22.72265625 73.7734375 C-28.79919385 72.73870155 -33.02737016 70.81655639 -37 66 C-40.87222316 59.53110955 -41.04207724 53.36177148 -40 46 C-38.02226243 41.70171701 -35.24923286 38.93692465 -31.5 36.125 C-24.82361772 30.45007506 -20.55302835 21.00978622 -19.6015625 12.390625 C-19.34423096 8.92708158 -19.14133586 5.47003893 -19 2 C-16 4 -16 4 -15 7 C-14.13652139 20.99831673 -16.08240098 28.06021723 -24.84375 39.0703125 C-29.13826859 44.90525624 -30.67694262 48.8921025 -30 56 C-29.2236068 59.0745356 -29.2236068 59.0745356 -27 61 C-22.87936527 61.7564099 -22.87936527 61.7564099 -19 61 C-16.29760001 58.41874208 -15.04977866 56.96866582 -14.85546875 53.1875 C-14.96503906 52.135625 -15.07460937 51.08375 -15.1875 50 C-15.57308772 38.6131125 -10.93411703 27.60755764 -6.40234375 17.30078125 C-4.97863443 13.94971057 -3.89922499 10.61704268 -2.875 7.125 C-1.10645161 1.10645161 -1.10645161 1.10645161 0 0 Z " fill="#F0F4EE" transform="translate(196,98)"/>
<path d="M0 0 C0.37573112 1.28555938 0.72396446 2.57914874 1.0625 3.875 C1.25972656 4.59429687 1.45695312 5.31359375 1.66015625 6.0546875 C2 9 2 9 1 19 C9.25 19.33 17.5 19.66 26 20 C26 19.34 26 18.68 26 18 C32.78000921 16.86231138 37.73001185 16.86500592 44 20 C44 22.31 44 24.62 44 27 C35.75985363 32.3579372 27.90859074 32.77509114 18.375 32.8125 C16.9752223 32.83569446 15.57547897 32.8610699 14.17578125 32.88867188 C10.78356799 32.94715831 7.3926341 32.98372302 4 33 C4 35.97 4 38.94 4 42 C6.20887757 41.88501733 8.41710787 41.75756495 10.625 41.625 C12.46964844 41.52058594 12.46964844 41.52058594 14.3515625 41.4140625 C17.8606483 41.01581508 20.6746664 40.13494122 24 39 C30.55464768 38.07511106 37.55870821 37.17963493 44 39 C46.48379524 41.17332083 46.94767335 42.28486915 47.1875 45.5625 C45.59632752 48.82859087 43.56694511 49.15847166 40.26245117 50.31079102 C36.73343452 51.38583299 33.20102065 52.0961898 29.5625 52.6875 C28.79695801 52.81487549 28.03141602 52.94225098 27.24267578 53.07348633 C19.15664263 54.30648647 11.15590391 54.27874608 3 54 C2.54625 55.11375 2.0925 56.2275 1.625 57.375 C0 61 0 61 -2 63 C14.41157307 63.49580566 14.41157307 63.49580566 30.5 60.875 C36.03316834 59.49170791 40.05052502 60.30499002 44.9375 63.0625 C45.948125 63.701875 46.95875 64.34125 48 65 C48 65.99 48 66.98 48 68 C47.34 68 46.68 68 46 68 C46 68.99 46 69.98 46 71 C41.97981356 71.81572257 37.95874228 72.62699975 33.9375 73.4375 C32.80376953 73.66759766 31.67003906 73.89769531 30.50195312 74.13476562 C22.21622799 75.80157331 14.46462957 77.14850227 6 77 C5.67 76.01 5.34 75.02 5 74 C3.92516357 74.00523682 2.85032715 74.01047363 1.74291992 74.01586914 C-2.24339974 74.03396401 -6.22971576 74.04544846 -10.21606445 74.05493164 C-11.9416566 74.05996158 -13.66724448 74.06678626 -15.39282227 74.07543945 C-17.8725693 74.08756361 -20.35226 74.09324169 -22.83203125 74.09765625 C-23.98998955 74.10539818 -23.98998955 74.10539818 -25.17134094 74.11329651 C-28.3830228 74.11363318 -30.93020266 74.02326578 -34 73 C-34 72.34 -34 71.68 -34 71 C-35.16917969 70.93941406 -36.33835937 70.87882812 -37.54296875 70.81640625 C-39.09115614 70.73195966 -40.63933268 70.64731375 -42.1875 70.5625 C-42.95642578 70.52318359 -43.72535156 70.48386719 -44.51757812 70.44335938 C-48.43251075 70.22492966 -52.17120688 69.91307892 -56 69 C-56 68.34 -56 67.68 -56 67 C-52.70825375 66.26461303 -49.67218108 65.87697977 -46.30151367 65.88647461 C-44.9506794 65.88658791 -44.9506794 65.88658791 -43.57255554 65.88670349 C-42.6140419 65.89186478 -41.65552826 65.89702606 -40.66796875 65.90234375 C-39.18034782 65.90446617 -39.18034782 65.90446617 -37.66267395 65.90663147 C-34.50425157 65.91221582 -31.34590085 65.92476548 -28.1875 65.9375 C-26.04231873 65.94251702 -23.89713635 65.94707958 -21.75195312 65.95117188 C-16.50127776 65.96218012 -11.250644 65.9789027 -6 66 C-6 65.34 -6 64.68 -6 64 C-7.051875 63.9175 -8.10375 63.835 -9.1875 63.75 C-13.33675198 62.93375371 -15.15835073 62.09998102 -18 59 C-18.3125 56.25 -18.3125 56.25 -18 54 C-18.99 54.495 -18.99 54.495 -20 55 C-22.05859375 55.16796875 -22.05859375 55.16796875 -24.4375 55.1875 C-25.21996094 55.20167969 -26.00242187 55.21585938 -26.80859375 55.23046875 C-29 55 -29 55 -32 53 C-31.01 53 -30.02 53 -29 53 C-29 52.34 -29 51.68 -29 51 C-29.62044189 51.00523682 -30.24088379 51.01047363 -30.88012695 51.01586914 C-33.69090767 51.03665466 -36.50167221 51.04966517 -39.3125 51.0625 C-40.28896484 51.07087891 -41.26542969 51.07925781 -42.27148438 51.08789062 C-43.20927734 51.09111328 -44.14707031 51.09433594 -45.11328125 51.09765625 C-45.97735596 51.10289307 -46.84143066 51.10812988 -47.73168945 51.11352539 C-50 51 -50 51 -53 50 C-53 49.34 -53 48.68 -53 48 C-51.56260487 47.97287934 -50.12506137 47.95354933 -48.6875 47.9375 C-47.88699219 47.92589844 -47.08648437 47.91429687 -46.26171875 47.90234375 C-44 48 -44 48 -41 49 C-41 48.34 -41 47.68 -41 47 C-42.32 47 -43.64 47 -45 47 C-44.67 46.01 -44.34 45.02 -44 44 C-35.42 44 -26.84 44 -18 44 C-18 40.04 -18 36.08 -18 32 C-18.93682617 32.00523682 -19.87365234 32.01047363 -20.83886719 32.01586914 C-24.37256507 32.03308862 -27.90621725 32.04553544 -31.43994141 32.05493164 C-32.95850333 32.05990685 -34.4770606 32.06668941 -35.99560547 32.07543945 C-61.01541999 32.21581465 -61.01541999 32.21581465 -73 28 C-72.505 26.515 -72.505 26.515 -72 25 C-65.73 24.67 -59.46 24.34 -53 24 C-52.67 23.01 -52.34 22.02 -52 21 C-39.79 20.67 -27.58 20.34 -15 20 C-14.67 17.36 -14.34 14.72 -14 12 C-12.94921875 9.35546875 -12.94921875 9.35546875 -11.6875 7.1875 C-11.27886719 6.45917969 -10.87023437 5.73085937 -10.44921875 4.98046875 C-7.47544304 0.9165758 -5.01971317 -0.41830943 0 0 Z " fill="#D51517" transform="translate(306,97)"/>
<path d="M0 0 C1.010625 0.639375 2.02125 1.27875 3.0625 1.9375 C3.0625 2.9275 3.0625 3.9175 3.0625 4.9375 C2.4025 4.9375 1.7425 4.9375 1.0625 4.9375 C1.0625 5.9275 1.0625 6.9175 1.0625 7.9375 C-2.95768644 8.75322257 -6.97875772 9.56449975 -11 10.375 C-12.13373047 10.60509766 -13.26746094 10.83519531 -14.43554688 11.07226562 C-22.72127201 12.73907331 -30.47287043 14.08600227 -38.9375 13.9375 C-39.4325 12.4525 -39.4325 12.4525 -39.9375 10.9375 C-41.01233643 10.94273682 -42.08717285 10.94797363 -43.19458008 10.95336914 C-47.18089974 10.97146401 -51.16721576 10.98294846 -55.15356445 10.99243164 C-56.8791566 10.99746158 -58.60474448 11.00428626 -60.33032227 11.01293945 C-62.8100693 11.02506361 -65.28976 11.03074169 -67.76953125 11.03515625 C-68.92748955 11.04289818 -68.92748955 11.04289818 -70.10884094 11.05079651 C-73.3205228 11.05113318 -75.86770266 10.96076578 -78.9375 9.9375 C-78.9375 9.2775 -78.9375 8.6175 -78.9375 7.9375 C-80.10667969 7.87691406 -81.27585937 7.81632813 -82.48046875 7.75390625 C-84.02865614 7.66945966 -85.57683268 7.58481375 -87.125 7.5 C-87.89392578 7.46068359 -88.66285156 7.42136719 -89.45507812 7.38085938 C-93.37001075 7.16242966 -97.10870688 6.85057892 -100.9375 5.9375 C-100.9375 5.2775 -100.9375 4.6175 -100.9375 3.9375 C-97.5844928 3.18333667 -94.50542737 2.8179343 -91.07128906 2.83984375 C-89.66523407 2.84479858 -89.66523407 2.84479858 -88.23077393 2.84985352 C-87.23164978 2.85815186 -86.23252563 2.8664502 -85.203125 2.875 C-84.1693573 2.87878662 -83.1355896 2.88257324 -82.07049561 2.88647461 C-78.77612105 2.89867346 -75.48183473 2.91731589 -72.1875 2.9375 C-67.83854425 2.96397574 -63.48963048 2.9840107 -59.140625 3 C-58.13340393 3.00829834 -57.12618286 3.01659668 -56.08843994 3.02514648 C-54.70129791 3.03010132 -54.70129791 3.03010132 -53.28613281 3.03515625 C-52.4684845 3.04039307 -51.65083618 3.04562988 -50.80841064 3.05102539 C-48.92312495 3.14411851 -48.92312495 3.14411851 -47.9375 1.9375 C-39.43096934 0.32201643 -30.91996847 -0.2909645 -22.2890625 -0.7734375 C-19.50207483 -1.01380707 -17.10926829 -1.41382192 -14.4375 -2.1875 C-8.90433166 -3.57079209 -4.88697498 -2.75750998 0 0 Z " fill="#EEF2EC" transform="translate(350.9375,160.0625)"/>
<path d="M0 0 C4.93381386 4.71330821 6.32141784 9.49729645 6.7890625 16.14453125 C6.80654653 18.01411614 6.80654653 18.01411614 8 19 C8.61188526 29.77859427 8.08546553 39.6049197 5 50 C4.34 50 3.68 50 3 50 C3 50.66 3 51.32 3 52 C-0.32886824 52.30262439 -2.3202179 52.4515431 -5.15234375 50.5703125 C-7.90075611 46.74693971 -7.72148026 43.23666697 -7.8125 38.625 C-7.83892578 37.70976562 -7.86535156 36.79453125 -7.89257812 35.8515625 C-7.95873307 32.90065084 -7.98327852 29.95158047 -8 27 C-8.01466309 25.99163086 -8.02932617 24.98326172 -8.04443359 23.94433594 C-8.07360911 20.96078075 -8.04684021 17.98324546 -8 15 C-8.00749268 14.07525879 -8.01498535 13.15051758 -8.02270508 12.19775391 C-7.81815173 5.87125292 -7.81815173 5.87125292 -5.375 3.26953125 C-3.4375 1.875 -3.4375 1.875 0 0 Z " fill="#EF0607" transform="translate(300,107)"/>
<path d="M0 0 C0.33 0 0.66 0 1 0 C1 1.98 1 3.96 1 6 C1.59425781 5.855625 2.18851563 5.71125 2.80078125 5.5625 C9.28732452 4.10983712 15.36613186 3.7729855 22 4 C22.52330512 14.77136374 22.18534551 23.72198174 16 33 C10.40711866 33.89486101 7.33433367 32.38155217 2.89453125 29.2890625 C0.99519419 27.99673007 -0.92687738 26.98369898 -3 26 C-2.85769192 24.58297487 -2.71099254 23.1663904 -2.5625 21.75 C-2.48128906 20.96109375 -2.40007812 20.1721875 -2.31640625 19.359375 C-2 17 -2 17 -1.46484375 15.0546875 C-0.87505259 12.44771145 -0.94244339 10.04418773 -1 7.375 C-1.11053985 2.22107969 -1.11053985 2.22107969 0 0 Z " fill="#F1F5EF" transform="translate(178,189)"/>
<path d="M0 0 C3.18253461 0.65097299 5.67687592 1.77974153 8.5 3.375 C9.62921875 4.00535156 9.62921875 4.00535156 10.78125 4.6484375 C12.98474792 5.99070912 15.03285181 7.32836511 17 9 C17.65714204 13.05237592 16.27293575 16.18119274 15 20 C14.56158216 22.66423151 14.27806397 25.31204829 14 28 C13.21625 28.309375 12.4325 28.61875 11.625 28.9375 C9.07669872 29.92875038 9.07669872 29.92875038 7 31 C5.35643193 31.09585131 3.70885358 31.12983511 2.0625 31.125 C1.18722656 31.12757813 0.31195313 31.13015625 -0.58984375 31.1328125 C-3 31 -3 31 -6 30 C-6.02712351 27.60408962 -6.0468982 25.20849043 -6.0625 22.8125 C-6.07087891 22.13896484 -6.07925781 21.46542969 -6.08789062 20.77148438 C-6.10606538 17.04565869 -5.89299392 13.6211958 -5 10 C-4.34 10 -3.68 10 -3 10 C-2.87625 9.0925 -2.7525 8.185 -2.625 7.25 C-2.07890323 4.41029677 -1.42736197 2.47409409 0 0 Z " fill="#F0F5EE" transform="translate(153,183)"/>
<path d="M0 0 C1.051875 0.07863281 2.10375 0.15726562 3.1875 0.23828125 C6 0.6875 6 0.6875 9 2.6875 C9.1875 6.3125 9.1875 6.3125 9 9.6875 C0.5436932 15.33735246 -7.37874424 15.29659598 -17.125 15 C-18.57287777 14.97486323 -20.02079801 14.95205962 -21.46875 14.93164062 C-24.98006426 14.87712189 -28.48975195 14.79115533 -32 14.6875 C-33.35148541 10.37964025 -34 7.26792408 -34 2.6875 C-25.75 2.6875 -17.5 2.6875 -9 2.6875 C-9 2.0275 -9 1.3675 -9 0.6875 C-5.64610273 -0.43046576 -3.50497864 -0.28778624 0 0 Z " fill="#F2F7F1" transform="translate(341,114.3125)"/>
<path d="M0 0 C2.23475375 2.29156952 2.9527564 3.35433752 3.1875 6.5625 C1.60002177 9.82100795 -0.4132956 10.1592359 -3.71118164 11.31079102 C-7.36806539 12.41195185 -11.04359466 13.09480269 -14.8125 13.6875 C-15.59786133 13.81415039 -16.38322266 13.94080078 -17.19238281 14.07128906 C-25.2215179 15.29663218 -33.00178724 15.7293433 -41 14 C-40.67 10.7 -40.34 7.4 -40 4 C-38.370625 3.896875 -36.74125 3.79375 -35.0625 3.6875 C-30.40219964 3.27524266 -26.47943644 2.28101596 -22.1015625 0.703125 C-15.23794619 -1.5932522 -7.00555161 -1.71246817 0 0 Z " fill="#EEEFE8" transform="translate(350,136)"/>
<path d="M0 0 C1.54897985 3.0979597 0.83239539 6.26216552 0.5625 9.625 C0.51029297 10.33140625 0.45808594 11.0378125 0.40429688 11.765625 C0.27458793 13.51079987 0.13795046 15.25545725 0 17 C1.27617187 16.98839844 2.55234375 16.97679687 3.8671875 16.96484375 C5.53645687 16.95546583 7.20572783 16.94636563 8.875 16.9375 C9.71675781 16.92912109 10.55851562 16.92074219 11.42578125 16.91210938 C12.23144531 16.90888672 13.03710938 16.90566406 13.8671875 16.90234375 C14.98262939 16.89448853 14.98262939 16.89448853 16.12060547 16.88647461 C18 17 18 17 20 18 C19.37333612 22.48882064 18.28932026 26.55014169 16.75 30.8125 C16.35296875 31.95332031 15.9559375 33.09414062 15.546875 34.26953125 C14 37 14 37 11.50390625 37.9140625 C8.83385947 38.00570217 6.58232436 37.66402626 4 37 C4.99 36.34 5.98 35.68 7 35 C5.68 34.34 4.36 33.68 3 33 C3 32.34 3 31.68 3 31 C2.34 31 1.68 31 1 31 C-0.3927289 29.38263741 -1.71937515 27.7074998 -3 26 C-3.51175781 25.43023437 -4.02351562 24.86046875 -4.55078125 24.2734375 C-6.51056469 21.19906024 -6.78398152 18.47536861 -7.25 14.875 C-7.42015625 13.63492188 -7.5903125 12.39484375 -7.765625 11.1171875 C-8 8 -8 8 -7 6 C-3.9375 5.375 -3.9375 5.375 -1 5 C-0.67 3.35 -0.34 1.7 0 0 Z " fill="#0A0807" transform="translate(147,196)"/>
<path d="M0 0 C11.88 0 23.76 0 36 0 C36.495 4.455 36.495 4.455 37 9 C30.48960834 9.0745815 23.9794696 9.12880554 17.46875 9.16479492 C15.25744286 9.17981037 13.04616515 9.20022891 10.83496094 9.22631836 C7.64250391 9.26302154 4.45044325 9.2797993 1.2578125 9.29296875 C0.28135773 9.30845261 -0.69509705 9.32393646 -1.70114136 9.33988953 C-8.27138624 9.34147296 -13.82143379 8.22749777 -20 6 C-19.67 5.01 -19.34 4.02 -19 3 C-12.73 2.67 -6.46 2.34 0 2 C0 1.34 0 0.68 0 0 Z " fill="#EEF1EC" transform="translate(253,119)"/>
<path d="M0 0 C0.86080694 2.91633636 1.06462025 5.28076522 0.82568359 8.30615234 C0.76166351 9.1473764 0.69764343 9.98860046 0.63168335 10.85531616 C0.55471222 11.7564212 0.47774109 12.65752625 0.3984375 13.5859375 C0.28092636 14.98774765 0.28092636 14.98774765 0.16104126 16.4178772 C-0.00836319 18.39350685 -0.18177096 20.36879673 -0.35888672 22.34375 C-0.62328275 25.35543914 -0.85680311 28.36855751 -1.08984375 31.3828125 C-1.25850662 33.30485607 -1.42901939 35.22673838 -1.6015625 37.1484375 C-1.66638824 38.04549408 -1.73121399 38.94255066 -1.79800415 39.86679077 C-2.38733784 45.88944474 -3.78944042 48.66349602 -8 53 C-8.78460287 55.25542053 -8.78460287 55.25542053 -8.8125 57.375 C-8.874375 58.57125 -8.93625 59.7675 -9 61 C-9.33 61 -9.66 61 -10 61 C-10.144375 59.865625 -10.28875 58.73125 -10.4375 57.5625 C-10.61171478 54.19222799 -10.61171478 54.19222799 -12 53 C-12.66 53.66 -13.32 54.32 -14 55 C-16.17010922 46.31956312 -14.60314102 39.65643978 -11.6875 31.4375 C-11.37876953 30.53064453 -11.07003906 29.62378906 -10.75195312 28.68945312 C-9.4218534 24.82796361 -8.04887852 21.01587275 -6.40234375 17.27734375 C-4.97223072 13.93510189 -3.89762825 10.61159868 -2.875 7.125 C-1.10645161 1.10645161 -1.10645161 1.10645161 0 0 Z " fill="#E7EBE5" transform="translate(196,98)"/>
<path d="M0 0 C3.99353549 1.91837271 7.70002483 4.2349458 11.46484375 6.5625 C13.93324536 7.96214837 16.34871546 8.99896208 19 10 C20.54637534 10.63447626 22.0882604 11.28002893 23.625 11.9375 C24.38039063 12.25589844 25.13578125 12.57429687 25.9140625 12.90234375 C28.08666661 14.04560546 29.48578883 15.06925825 31 17 C30.6875 19.6875 30.6875 19.6875 30 22 C19.19977603 22.81511124 9.67281995 18.18382884 1 12 C-0.36212077 10.69608952 -1.70407722 9.36972249 -3 8 C-2.67 7.34 -2.34 6.68 -2 6 C-1.34 6 -0.68 6 0 6 C0 4.02 0 2.04 0 0 Z " fill="#EBEFE9" transform="translate(68,192)"/>
<path d="M0 0 C4.47915328 -0.02886338 8.95828291 -0.04675187 13.4375 -0.0625 C14.71689453 -0.07087891 15.99628906 -0.07925781 17.31445312 -0.08789062 C19.13686523 -0.09272461 19.13686523 -0.09272461 20.99609375 -0.09765625 C22.12200928 -0.10289307 23.2479248 -0.10812988 24.40795898 -0.11352539 C27 0 27 0 28 1 C28.04080783 2.99958364 28.04254356 5.00045254 28 7 C26.02 7.66 24.04 8.32 22 9 C22 9.66 22 10.32 22 11 C15.375 11.25 15.375 11.25 12 9 C12.99 9 13.98 9 15 9 C15 8.34 15 7.68 15 7 C14.37955811 7.00523682 13.75911621 7.01047363 13.11987305 7.01586914 C10.30909233 7.03665466 7.49832779 7.04966517 4.6875 7.0625 C3.22280273 7.07506836 3.22280273 7.07506836 1.72851562 7.08789062 C0.79072266 7.09111328 -0.14707031 7.09433594 -1.11328125 7.09765625 C-1.97735596 7.10289307 -2.84143066 7.10812988 -3.73168945 7.11352539 C-6 7 -6 7 -9 6 C-9 5.34 -9 4.68 -9 4 C-7.56260487 3.97287934 -6.12506137 3.95354933 -4.6875 3.9375 C-3.48673828 3.92009766 -3.48673828 3.92009766 -2.26171875 3.90234375 C0 4 0 4 3 5 C3 4.34 3 3.68 3 3 C1.68 3 0.36 3 -1 3 C-0.67 2.01 -0.34 1.02 0 0 Z " fill="#DCDCD8" transform="translate(262,141)"/>
<path d="M0 0 C0.66 0.33 1.32 0.66 2 1 C2.37400786 3.32716 2.70764733 5.66117862 3 8 C3.33 8.33 3.66 8.66 4 9 C4.2121733 10.70328008 4.36942461 12.41352969 4.5 14.125 C4.74780926 17.29370863 5.0521232 20.25587755 5.6875 23.375 C6.17524523 29.03284469 5.01197571 34.43831532 4 40 C0.125 39.125 0.125 39.125 -1 38 C-1.07279623 34.69687103 -0.99609386 31.4047915 -0.9375 28.1015625 C-0.84711854 24.96356035 -0.84711854 24.96356035 -2 22 C-2.99 21.67 -3.98 21.34 -5 21 C-4.67 19.35 -4.34 17.7 -4 16 C-3.34 16 -2.68 16 -2 16 C-1.79192171 10.80159122 -1.79192171 10.80159122 -2.6875 5.75 C-3 4 -3 4 -1.5625 1.75 C-1.046875 1.1725 -0.53125 0.595 0 0 Z " fill="#F90306" transform="translate(299,111)"/>
<path d="M0 0 C0.33 0.66 0.66 1.32 1 2 C0.2578125 4.0234375 0.2578125 4.0234375 -0.875 6.375 C-5.48521273 16.01453572 -4.71025193 25.83655526 -2 36 C-2.99 35.67 -3.98 35.34 -5 35 C-5 35.66 -5 36.32 -5 37 C-5.66 37 -6.32 37 -7 37 C-6.97679687 38.12019531 -6.95359375 39.24039063 -6.9296875 40.39453125 C-6.91092763 41.86718084 -6.89272766 43.33983763 -6.875 44.8125 C-6.85824219 45.55048828 -6.84148437 46.28847656 -6.82421875 47.04882812 C-6.78925372 50.91246426 -6.80602445 52.70903668 -9 56 C-9.99 55.67 -10.98 55.34 -12 55 C-11.51249268 54.58935303 -11.02498535 54.17870605 -10.52270508 53.75561523 C-8.67260024 51.62252178 -8.62508768 50.69186756 -8.63671875 47.91015625 C-8.63768555 46.73356445 -8.63768555 46.73356445 -8.63867188 45.53320312 C-8.65478516 44.71787109 -8.67089844 43.90253906 -8.6875 43.0625 C-8.68427734 42.25103516 -8.68105469 41.43957031 -8.67773438 40.60351562 C-8.71567681 36.39880345 -9.00723767 33.74953324 -11 30 C-12.16076665 20.11641339 -10.17590979 10.85354498 -4 3 C-1.6875 1 -1.6875 1 0 0 Z " fill="#E1E3DE" transform="translate(212,108)"/>
<path d="M0 0 C2.375 -0.125 2.375 -0.125 5 0 C5.66 0.66 6.32 1.32 7 2 C7.639375 2.0825 8.27875 2.165 8.9375 2.25 C11 3 11 3 12.75 5.4375 C14.3408651 9.97146554 14.80131992 14.23921694 14 19 C12.4765625 21.3046875 12.4765625 21.3046875 11 23 C10.38125 22.79375 9.7625 22.5875 9.125 22.375 C8.42375 22.25125 7.7225 22.1275 7 22 C6.34 22.66 5.68 23.32 5 24 C5 19.38 5 14.76 5 10 C0.05 10.33 -4.9 10.66 -10 11 C-6.71508627 8.81005752 -5.16904361 8.64722661 -1.3125 8.375 C-0.31863281 8.30023438 0.67523438 8.22546875 1.69921875 8.1484375 C2.45847656 8.09945312 3.21773437 8.05046875 4 8 C3.34 6.35 2.68 4.7 2 3 C1.34 3 0.68 3 0 3 C0 2.01 0 1.02 0 0 Z " fill="#523D3C" transform="translate(195,183)"/>
<path d="M0 0 C-1.05895902 2.55915097 -1.70550753 3.81088148 -4.07421875 5.33203125 C-6.23118009 6.82540641 -6.23118009 6.82540641 -6.28515625 9.2421875 C-6.17494141 10.54542969 -6.17494141 10.54542969 -6.0625 11.875 C-5.78451786 18.57347287 -7.28047198 24.5620052 -9 31 C-10.65614657 31.38218767 -12.32457024 31.71395102 -14 32 C-15.57495079 30.42504921 -15.17007022 28.87319477 -15.1875 26.6875 C-15.14397649 20.67255033 -14.13408121 14.89317198 -13 9 C-12.34 9 -11.68 9 -11 9 C-11 6.69 -11 4.38 -11 2 C-10.67 2 -10.34 2 -10 2 C-9.67 3.65 -9.34 5.3 -9 7 C-8.60167969 6.4946875 -8.20335937 5.989375 -7.79296875 5.46875 C-7.26316406 4.8190625 -6.73335937 4.169375 -6.1875 3.5 C-5.40439453 2.52546875 -5.40439453 2.52546875 -4.60546875 1.53125 C-3 0 -3 0 0 0 Z " fill="#BD4748" transform="translate(184,184)"/>
<path d="M0 0 C4.93381386 4.71330821 6.32141784 9.49729645 6.7890625 16.14453125 C6.80654653 18.01411614 6.80654653 18.01411614 8 19 C8.61188526 29.77859427 8.08546553 39.6049197 5 50 C4.34 50 3.68 50 3 50 C3 50.66 3 51.32 3 52 C-0.57763189 52.32523926 -2.39542581 52.42956587 -5.375 50.3125 C-7.27258004 47.61209763 -7.35882213 46.22939919 -7 43 C-6.34 43.99 -5.68 44.98 -5 46 C-3.68612831 47.35251497 -2.35573748 48.68945377 -1 50 C0.485 49.505 0.485 49.505 2 49 C6.58243708 38.77764037 7.27981756 28.65940707 4 18 C3.875 15.0625 3.875 15.0625 4 13 C3.01 12.67 2.02 12.34 1 12 C0.67 9.69 0.34 7.38 0 5 C-0.45375 5.495 -0.9075 5.99 -1.375 6.5 C-3 8 -3 8 -5 8 C-4.97679687 8.62648438 -4.95359375 9.25296875 -4.9296875 9.8984375 C-4.91164063 10.71570313 -4.89359375 11.53296875 -4.875 12.375 C-4.85179687 13.18710938 -4.82859375 13.99921875 -4.8046875 14.8359375 C-5 17 -5 17 -7 19 C-8.0735426 6.40717489 -8.0735426 6.40717489 -5.44140625 2.95703125 C-3.5 1.625 -3.5 1.625 0 0 Z " fill="#D71215" transform="translate(300,107)"/>
<path d="M0 0 C0.99 0 1.98 0 3 0 C2.57377061 7.38797613 0.00547606 13.29480048 -3 20 C-3.37898437 20.89074219 -3.75796875 21.78148437 -4.1484375 22.69921875 C-6.73292254 28.73292254 -6.73292254 28.73292254 -9 31 C-9.33 30.34 -9.66 29.68 -10 29 C-11.65 29.33 -13.3 29.66 -15 30 C-11.02548379 19.59611933 -5.41140304 9.71277468 0 0 Z " fill="#E9EAE5" transform="translate(171,361)"/>
<path d="M0 0 C3 2 3 2 4 5 C4.49966549 13.10034624 4.81982698 20.65417889 1 28 C0.34 28.33 -0.32 28.66 -1 29 C-1 28.34 -1 27.68 -1 27 C-5.51098818 29.25549409 -7.26028938 31.8489233 -10 36 C-15.0390625 41 -15.0390625 41 -18 41 C-16.88933477 38.00120389 -15.83091712 36.86934505 -13.25 34.875 C-7.18526202 30.05583168 -2.67309648 21.54141998 -1 14 C-0.48538446 9.33818861 -0.19084074 4.68546927 0 0 Z " fill="#E9EBE7" transform="translate(177,100)"/>
<path d="M0 0 C12.54 0 25.08 0 38 0 C37.34 1.65 36.68 3.3 36 5 C32.35418313 5.02887512 28.70839537 5.04675585 25.0625 5.0625 C24.02158203 5.07087891 22.98066406 5.07925781 21.90820312 5.08789062 C20.42416992 5.09272461 20.42416992 5.09272461 18.91015625 5.09765625 C17.53549194 5.10551147 17.53549194 5.10551147 16.13305664 5.11352539 C14 5 14 5 13 4 C10.19072041 3.75649904 7.38265838 3.61608999 4.56640625 3.4765625 C3.71949219 3.31929687 2.87257813 3.16203125 2 3 C1.34 2.01 0.68 1.02 0 0 Z " fill="#F7FAF5" transform="translate(263,165)"/>
<path d="M0 0 C1.52634923 3.05269846 0.83794444 5.75845689 0.5625 9.125 C0.46066406 10.40632812 0.35882813 11.68765625 0.25390625 13.0078125 C0.17011719 13.99523437 0.08632812 14.98265625 0 16 C-0.66 14.68 -1.32 13.36 -2 12 C-2.33 12.66 -2.66 13.32 -3 14 C-2.07335536 16.34288292 -2.07335536 16.34288292 -0.6875 18.875 C-0.01267578 20.17050781 -0.01267578 20.17050781 0.67578125 21.4921875 C1.11277344 22.31976563 1.54976562 23.14734375 2 24 C2.32355469 24.74507812 2.64710938 25.49015625 2.98046875 26.2578125 C3.94703187 28.34849264 3.94703187 28.34849264 7 29 C7 29.33 7 29.66 7 30 C2.46451613 30.36774194 2.46451613 30.36774194 0.5 28.8125 C0.005 28.214375 -0.49 27.61625 -1 27 C-1.82757813 26.28585938 -2.65515625 25.57171875 -3.5078125 24.8359375 C-6.52014367 21.40811238 -6.87353447 19.3020357 -7.375 14.8125 C-7.52710938 13.58144531 -7.67921875 12.35039062 -7.8359375 11.08203125 C-8 8 -8 8 -7 6 C-3.9375 5.375 -3.9375 5.375 -1 5 C-0.67 3.35 -0.34 1.7 0 0 Z " fill="#3D2524" transform="translate(147,196)"/>
<path d="M0 0 C12.54 0 25.08 0 38 0 C38 12 38 12 37 14 C36.77377919 15.70363822 36.59111527 17.41328701 36.4375 19.125 C36.35371094 20.03507812 36.26992188 20.94515625 36.18359375 21.8828125 C36.12300781 22.58148438 36.06242187 23.28015625 36 24 C35.34 23.67 34.68 23.34 34 23 C34 19.04 34 15.08 34 11 C23.11 11 12.22 11 1 11 C1 10.67 1 10.34 1 10 C12.55 10 24.1 10 36 10 C35.505 5.545 35.505 5.545 35 1 C23.45 1 11.9 1 0 1 C0 0.67 0 0.34 0 0 Z " fill="#865755" transform="translate(254,118)"/>
<path d="M0 0 C0.33 0 0.66 0 1 0 C1.03738281 0.61488281 1.07476562 1.22976562 1.11328125 1.86328125 C1.21189453 3.07564453 1.21189453 3.07564453 1.3125 4.3125 C1.39951172 5.51326172 1.39951172 5.51326172 1.48828125 6.73828125 C2.0953208 9.42130337 2.82148846 10.35584035 5 12 C8.10839021 12.7269226 8.10839021 12.7269226 11 13 C11 12.34 11 11.68 11 11 C11.66 11 12.32 11 13 11 C13.66 9.02 14.32 7.04 15 5 C15.75 6.6875 15.75 6.6875 16 9 C14.0625 11.75 14.0625 11.75 12 14 C14.31 14.33 16.62 14.66 19 15 C19 15.33 19 15.66 19 16 C16.94921875 16.22786458 14.8984375 16.45572917 12.84765625 16.68359375 C10.98859771 16.81886614 10.98859771 16.81886614 10 18 C7.30345146 18.07319621 4.63308542 18.09242537 1.9375 18.0625 C1.17888672 18.05798828 0.42027344 18.05347656 -0.36132812 18.04882812 C-2.24091871 18.0370068 -4.12046899 18.01907078 -6 18 C-6 17.67 -6 17.34 -6 17 C-1.38 17 3.24 17 8 17 C8 16.34 8 15.68 8 15 C6.4221875 14.87625 6.4221875 14.87625 4.8125 14.75 C0.66324802 13.93375371 -1.15835073 13.09998102 -4 10 C-4.3125 7.25 -4.3125 7.25 -4 5 C-5.32 5.33 -6.64 5.66 -8 6 C-8.33 5.01 -8.66 4.02 -9 3 C-6.69 3 -4.38 3 -2 3 C-1.67 4.32 -1.34 5.64 -1 7 C-0.67 4.69 -0.34 2.38 0 0 Z " fill="#9B1C1D" transform="translate(292,146)"/>
<path d="M0 0 C4.95 0 9.9 0 15 0 C16 5 16 5 16 6 C12.5625177 6.02901394 9.12506688 6.04680335 5.6875 6.0625 C4.22280273 6.07506836 4.22280273 6.07506836 2.72851562 6.08789062 C1.79072266 6.09111328 0.85292969 6.09433594 -0.11328125 6.09765625 C-0.97735596 6.10289307 -1.84143066 6.10812988 -2.73168945 6.11352539 C-5 6 -5 6 -8 5 C-8 4.34 -8 3.68 -8 3 C-6.56260487 2.97287934 -5.12506137 2.95354933 -3.6875 2.9375 C-2.48673828 2.92009766 -2.48673828 2.92009766 -1.26171875 2.90234375 C1 3 1 3 4 4 C4 3.34 4 2.68 4 2 C2.68 2 1.36 2 0 2 C0 1.34 0 0.68 0 0 Z " fill="#F2F3EE" transform="translate(261,142)"/>
<path d="M0 0 C0.66 0.33 1.32 0.66 2 1 C1.7834375 2.01707031 1.7834375 2.01707031 1.5625 3.0546875 C0.12323199 10.27101736 -1.37914345 17.86256966 1 25 C-0.40445835 27.2636564 -2.1967913 29.0208685 -4 31 C-4.66 30.67 -5.32 30.34 -6 30 C-5.01 27.03 -4.02 24.06 -3 21 C-4.65 20.67 -6.3 20.34 -8 20 C-7.34 19.67 -6.68 19.34 -6 19 C-5.67 18.01 -5.34 17.02 -5 16 C-5 16.66 -5 17.32 -5 18 C-4.34 18 -3.68 18 -3 18 C-3.061875 16.88625 -3.12375 15.7725 -3.1875 14.625 C-3.21538129 9.43908031 -1.6739295 4.86236666 0 0 Z " fill="#F8D8D6" transform="translate(170,193)"/>
<path d="M0 0 C0.66 0 1.32 0 2 0 C2 0.99 2 1.98 2 3 C2.66 3.33 3.32 3.66 4 4 C3.57476184 5.60746056 3.13429874 7.21089836 2.6875 8.8125 C2.44386719 9.70582031 2.20023438 10.59914063 1.94921875 11.51953125 C0.9799181 14.05247738 0.04990396 15.2716496 -2 17 C-2.33 16.34 -2.66 15.68 -3 15 C-4.65 15.33 -6.3 15.66 -8 16 C-6.57250019 12.20950293 -4.83763458 8.72877544 -2.875 5.1875 C-2.33617187 4.21167969 -1.79734375 3.23585938 -1.2421875 2.23046875 C-0.83226562 1.49441406 -0.42234375 0.75835937 0 0 Z " fill="#E0E2DD" transform="translate(164,375)"/>
<path d="M0 0 C0 0.33 0 0.66 0 1 C-2.64 1.33 -5.28 1.66 -8 2 C-8 2.66 -8 3.32 -8 4 C-15.59 4 -23.18 4 -31 4 C-30.67 4.99 -30.34 5.98 -30 7 C-30 9.31 -30 11.62 -30 14 C-23.73 14 -17.46 14 -11 14 C-11 14.33 -11 14.66 -11 15 C-17.93 15 -24.86 15 -32 15 C-34 8 -34 8 -34 3 C-25.75 3 -17.5 3 -9 3 C-9 2.34 -9 1.68 -9 1 C-5.8035914 -0.06546953 -3.34252724 -0.07427838 0 0 Z " fill="#C3B6B3" transform="translate(341,114)"/>
<path d="M0 0 C1.9375 0.375 1.9375 0.375 4 1 C5.32229189 3.64458379 5.09677194 5.67761301 5.0625 8.625 C5.05347656 9.62789062 5.04445312 10.63078125 5.03515625 11.6640625 C5.02355469 12.43492187 5.01195312 13.20578125 5 14 C6.32 13.67 7.64 13.34 9 13 C8.34 14.32 7.68 15.64 7 17 C6.38125 16.79375 5.7625 16.5875 5.125 16.375 C4.42375 16.25125 3.7225 16.1275 3 16 C2.34 16.66 1.68 17.32 1 18 C1 13.38 1 8.76 1 4 C-3.95 4.33 -8.9 4.66 -14 5 C-10.71508627 2.81005752 -9.16904361 2.64722661 -5.3125 2.375 C-4.31863281 2.30023438 -3.32476562 2.22546875 -2.30078125 2.1484375 C-1.16189453 2.07496094 -1.16189453 2.07496094 0 2 C0 1.34 0 0.68 0 0 Z " fill="#2B2422" transform="translate(199,189)"/>
<path d="M0 0 C2.375 0.3125 2.375 0.3125 5 1 C7 4 7 4 7.125 6.5 C5.78175607 9.48498652 5.13762921 9.65332446 2.1875 10.8125 C-0.84515008 11.84234928 -2.67206858 12 -6 12 C-4.63016497 8.83884224 -4.0109362 8.0072908 -1 6 C0.30065921 4.06616713 0.30065921 4.06616713 1 2 C0.67 1.34 0.34 0.68 0 0 Z " fill="#E3E6E1" transform="translate(346,136)"/>
<path d="M0 0 C2.1793144 1.75864246 2.93686419 2.69396 3.51171875 5.48046875 C3.59873047 6.82044922 3.59873047 6.82044922 3.6875 8.1875 C3.78611328 9.53908203 3.78611328 9.53908203 3.88671875 10.91796875 C3.92410156 11.60503906 3.96148437 12.29210937 4 13 C3.01 12.67 2.02 12.34 1 12 C0.67 9.69 0.34 7.38 0 5 C-0.45375 5.495 -0.9075 5.99 -1.375 6.5 C-3 8 -3 8 -5 8 C-4.97679687 8.62648438 -4.95359375 9.25296875 -4.9296875 9.8984375 C-4.91164063 10.71570313 -4.89359375 11.53296875 -4.875 12.375 C-4.85179687 13.18710938 -4.82859375 13.99921875 -4.8046875 14.8359375 C-5 17 -5 17 -7 19 C-8.0735426 6.40717489 -8.0735426 6.40717489 -5.44140625 2.95703125 C-3.5 1.625 -3.5 1.625 0 0 Z " fill="#E9090A" transform="translate(300,107)"/>
<path d="M0 0 C0.33 0 0.66 0 1 0 C4.44419134 14.59681093 4.44419134 14.59681093 4 22 C7.63 22 11.26 22 15 22 C15 22.33 15 22.66 15 23 C11.37 23 7.74 23 4 23 C4.020625 24.0725 4.04125 25.145 4.0625 26.25 C4.0142016 29.14790424 3.86844115 31.28612141 3 34 C2.34 34 1.68 34 1 34 C0.67 34.66 0.34 35.32 0 36 C0.165 34.88625 0.33 33.7725 0.5 32.625 C1.06737553 27.58346311 1.11301862 22.56712572 1.125 17.5 C1.12951172 16.68611816 1.13402344 15.87223633 1.13867188 15.03369141 C1.50310179 11.20854242 1.50310179 11.20854242 0 8 C-0.14115161 5.32941149 -0.04247107 2.67567762 0 0 Z " fill="#A14544" transform="translate(306,117)"/>
<path d="M0 0 C-1.05786854 2.55651563 -1.68589699 3.80324113 -4.0703125 5.296875 C-6.26892671 6.85874196 -6.26892671 6.85874196 -6.3203125 9.55859375 C-6.25585938 10.50863281 -6.19140625 11.45867187 -6.125 12.4375 C-5.88222765 16.31657989 -5.95369634 18.64501377 -8 22 C-8 19.36 -8 16.72 -8 14 C-9.32 13.67 -10.64 13.34 -12 13 C-12.33 13.99 -12.66 14.98 -13 16 C-13 13.69 -13 11.38 -13 9 C-12.34 9 -11.68 9 -11 9 C-11 6.69 -11 4.38 -11 2 C-10.67 2 -10.34 2 -10 2 C-9.67 3.65 -9.34 5.3 -9 7 C-8.60167969 6.4946875 -8.20335937 5.989375 -7.79296875 5.46875 C-7.26316406 4.8190625 -6.73335937 4.169375 -6.1875 3.5 C-5.66542969 2.8503125 -5.14335937 2.200625 -4.60546875 1.53125 C-3 0 -3 0 0 0 Z " fill="#A49796" transform="translate(184,184)"/>
<path d="M0 0 C0.33 0 0.66 0 1 0 C1.02496472 4.10765642 1.04298366 8.21528264 1.05493164 12.32299805 C1.05991957 13.71656057 1.06671231 15.11011798 1.07543945 16.50366211 C1.12158795 24.06930078 1.05558458 31.49454426 0 39 C-0.66 38.34 -1.32 37.68 -2 37 C-2 35.68 -2 34.36 -2 33 C-3.65 33 -5.3 33 -7 33 C-7 32.67 -7 32.34 -7 32 C-5.35 32 -3.7 32 -2 32 C-2.01160156 30.86820313 -2.02320313 29.73640625 -2.03515625 28.5703125 C-2.04453454 27.08854331 -2.0536347 25.60677235 -2.0625 24.125 C-2.07087891 23.37863281 -2.07925781 22.63226563 -2.08789062 21.86328125 C-2.11328125 16.2265625 -2.11328125 16.2265625 -1 14 C-0.76970044 11.62876754 -0.58880058 9.25258057 -0.4375 6.875 C-0.35371094 5.59367187 -0.26992188 4.31234375 -0.18359375 2.9921875 C-0.09271484 1.51105469 -0.09271484 1.51105469 0 0 Z " fill="#C41719" transform="translate(292,116)"/>
<path d="M0 0 C1.52634923 3.05269846 0.83794444 5.75845689 0.5625 9.125 C0.46066406 10.40632812 0.35882813 11.68765625 0.25390625 13.0078125 C0.17011719 13.99523437 0.08632812 14.98265625 0 16 C-0.66 14.68 -1.32 13.36 -2 12 C-2.66 12 -3.32 12 -4 12 C-4 13.98 -4 15.96 -4 18 C-4.99 18 -5.98 18 -7 18 C-7.19477739 16.37585622 -7.38059458 14.75063577 -7.5625 13.125 C-7.66691406 12.22007812 -7.77132812 11.31515625 -7.87890625 10.3828125 C-8 8 -8 8 -7 6 C-3.9375 5.375 -3.9375 5.375 -1 5 C-0.67 3.35 -0.34 1.7 0 0 Z " fill="#674645" transform="translate(147,196)"/>
<path d="M0 0 C2.19050021 0.09017996 4.378466 0.24666208 6.5625 0.4375 C7.76003906 0.53933594 8.95757812 0.64117187 10.19140625 0.74609375 C11.11824219 0.82988281 12.04507813 0.91367188 13 1 C12.34 1.66 11.68 2.32 11 3 C10.01 3 9.02 3 8 3 C8 3.99 8 4.98 8 6 C7.01 6.33 6.02 6.66 5 7 C4.484375 7.515625 3.96875 8.03125 3.4375 8.5625 C2.7259375 9.2740625 2.7259375 9.2740625 2 10 C1.34 10 0.68 10 0 10 C-0.19412181 8.52168779 -0.38012131 7.04230684 -0.5625 5.5625 C-0.66691406 4.73878906 -0.77132812 3.91507813 -0.87890625 3.06640625 C-0.91886719 2.38449219 -0.95882812 1.70257813 -1 1 C-0.67 0.67 -0.34 0.34 0 0 Z " fill="#252522" transform="translate(184,174)"/>
<path d="M0 0 C0.7425 0.0825 1.485 0.165 2.25 0.25 C4.18833398 6.88198569 4.30268874 12.43597425 3.25 19.25 C4.24 19.58 5.23 19.91 6.25 20.25 C4.6 19.92 2.95 19.59 1.25 19.25 C0.92 13.97 0.59 8.69 0.25 3.25 C-2.06 3.58 -4.37 3.91 -6.75 4.25 C-3.42692308 0.31153846 -3.42692308 0.31153846 0 0 Z " fill="#611A18" transform="translate(303.75,96.75)"/>
<path d="M0 0 C1.93842773 0.07250977 1.93842773 0.07250977 3.91601562 0.14648438 C5.27083869 0.20299676 6.62565634 0.25963901 7.98046875 0.31640625 C9.35479682 0.36968231 10.72914578 0.42242226 12.10351562 0.47460938 C15.4585764 0.60410295 18.81332602 0.73906341 22.16796875 0.87890625 C22.16796875 1.20890625 22.16796875 1.53890625 22.16796875 1.87890625 C12.26796875 2.37390625 12.26796875 2.37390625 2.16796875 2.87890625 C2.16796875 3.20890625 2.16796875 3.53890625 2.16796875 3.87890625 C-7.24205403 4.0634165 -7.24205403 4.0634165 -11.83203125 2.87890625 C-11.83203125 2.21890625 -11.83203125 1.55890625 -11.83203125 0.87890625 C-7.78899975 -0.11101985 -4.15157624 -0.16459994 0 0 Z " fill="#CDCFCB" transform="translate(261.83203125,163.12109375)"/>
<path d="M0 0 C0.33 0 0.66 0 1 0 C1 1.98 1 3.96 1 6 C1.66 6 2.32 6 3 6 C2.52342708 8.60466582 2.04385281 11.20871714 1.5625 13.8125 C1.42779297 14.55048828 1.29308594 15.28847656 1.15429688 16.04882812 C0.58580263 19.11315076 -0.01309651 22.03928953 -1 25 C-1.66 25 -2.32 25 -3 25 C-2.11440501 17.4091858 -2.11440501 17.4091858 -1.46484375 15.0859375 C-0.88113699 12.46661473 -0.94220665 10.05516683 -1 7.375 C-1.11053985 2.22107969 -1.11053985 2.22107969 0 0 Z " fill="#F4D8D7" transform="translate(178,189)"/>
<path d="M0 0 C1.06513937 3.36653887 0.97679383 6.13898592 0.66015625 9.640625 C0.56669922 10.71054688 0.47324219 11.78046875 0.37695312 12.8828125 C0.22129883 14.54957031 0.22129883 14.54957031 0.0625 16.25 C-0.03740234 17.37664062 -0.13730469 18.50328125 -0.24023438 19.6640625 C-0.48753932 22.44329908 -0.74101284 25.22183173 -1 28 C-1.33 28 -1.66 28 -2 28 C-2 23.71 -2 19.42 -2 15 C-2.99 15.33 -3.98 15.66 -5 16 C-3.90301833 10.30860098 -2.45946923 5.25432063 0 0 Z " fill="#C0C1BE" transform="translate(196,98)"/>
<path d="M0 0 C2 2 2 2 2.125 4.625 C2.08375 5.40875 2.0425 6.1925 2 7 C1.34 7 0.68 7 0 7 C0.33 8.32 0.66 9.64 1 11 C1.66 11 2.32 11 3 11 C3 10.01 3 9.02 3 8 C3.66 8 4.32 8 5 8 C5 9.98 5 11.96 5 14 C3.34385343 14.38218767 1.67542976 14.71395102 0 15 C-1 14 -1 14 -1.1328125 11.85546875 C-1.13023437 10.97503906 -1.12765625 10.09460938 -1.125 9.1875 C-1.12757813 8.31480469 -1.13015625 7.44210938 -1.1328125 6.54296875 C-1.01114834 4.21345785 -0.65514709 2.23061985 0 0 Z " fill="#A65655" transform="translate(170,201)"/>
<path d="M0 0 C1.9375 0.75 1.9375 0.75 4 2 C4.75 4.125 4.75 4.125 5 6 C4.01 6 3.02 6 2 6 C2.33 6.598125 2.66 7.19625 3 7.8125 C4 10 4 10 4 13 C1.11562221 11.70700306 -0.87219421 10.34058637 -3 8 C-2.67 7.34 -2.34 6.68 -2 6 C-1.34 6 -0.68 6 0 6 C0 4.02 0 2.04 0 0 Z " fill="#E5E9E3" transform="translate(68,192)"/>
<path d="M0 0 C1.32 0 2.64 0 4 0 C4 2.97 4 5.94 4 9 C2.35 9.66 0.7 10.32 -1 11 C-2.60080151 6.99799622 -1.29279692 3.95443764 0 0 Z " fill="#573C3B" transform="translate(205,193)"/>
<path d="M0 0 C0.33 0.66 0.66 1.32 1 2 C0.29296875 4.0234375 0.29296875 4.0234375 -0.8125 6.375 C-1.16957031 7.14585938 -1.52664062 7.91671875 -1.89453125 8.7109375 C-2.91155818 10.81686605 -3.94651587 12.91209933 -5 15 C-6 13 -7 11 -8 9 C-5.68462045 5.27885429 -3.71420527 2.38770339 0 0 Z " fill="#CFD1CC" transform="translate(212,108)"/>
<path d="M0 0 C0.37125 0.45375 0.7425 0.9075 1.125 1.375 C3.54264685 3.47029394 5.95430602 4.12013285 9 5 C8.02471263 6.33617352 7.04466681 7.6688751 6.0625 9 C5.51722656 9.7425 4.97195312 10.485 4.41015625 11.25 C3.94480469 11.8275 3.47945312 12.405 3 13 C2.67 13 2.34 13 2 13 C0.54815522 8.46298506 -0.23509196 4.81938524 0 0 Z " fill="#ECE7E4" transform="translate(172,179)"/>
<path d="M0 0 C2.50112217 2.9224342 3.38437998 4.85657595 3.625 8.6875 C3.61393486 11.64220284 3.61393486 11.64220284 5 14 C5.04092937 16.33297433 5.04241723 18.66705225 5 21 C3 20 3 20 1.9375 17.25 C0.44345149 11.63849495 0.32984001 5.77220025 0 0 Z " fill="#C91618" transform="translate(303,112)"/>
<path d="M0 0 C1.37562854 1.28965176 2.70766393 2.62689293 4 4 C4 4.66 4 5.32 4 6 C3.01 6.33 2.02 6.66 1 7 C0.01 8.485 0.01 8.485 -1 10 C-4 6.375 -4 6.375 -4 3 C-2 1.3125 -2 1.3125 0 0 Z " fill="#E8EDE7" transform="translate(182,260)"/>
<path d="M0 0 C5.28 0.33 10.56 0.66 16 1 C16 1.33 16 1.66 16 2 C13.94921875 2.22786458 11.8984375 2.45572917 9.84765625 2.68359375 C7.98859771 2.81886614 7.98859771 2.81886614 7 4 C4.30345146 4.07319621 1.63308542 4.09242537 -1.0625 4.0625 C-1.82111328 4.05798828 -2.57972656 4.05347656 -3.36132812 4.04882812 C-5.24091871 4.0370068 -7.12046899 4.01907078 -9 4 C-9 3.67 -9 3.34 -9 3 C-4.38 3 0.24 3 5 3 C5 2.34 5 1.68 5 1 C3.35 1 1.7 1 0 1 C0 0.67 0 0.34 0 0 Z " fill="#69504E" transform="translate(295,160)"/>
<path d="M0 0 C0.33 0.99 0.66 1.98 1 3 C0.34 3 -0.32 3 -1 3 C-1.04898437 3.84304687 -1.09796875 4.68609375 -1.1484375 5.5546875 C-1.22320312 6.65039062 -1.29796875 7.74609375 -1.375 8.875 C-1.44460938 9.96554688 -1.51421875 11.05609375 -1.5859375 12.1796875 C-2 15 -2 15 -4 17 C-4.10794277 14.73020335 -4.18556176 12.45894804 -4.25 10.1875 C-4.29640625 8.92292969 -4.3428125 7.65835938 -4.390625 6.35546875 C-4 3 -4 3 -1.984375 1.05078125 C-1.32953125 0.70402344 -0.6746875 0.35726562 0 0 Z " fill="#D21316" transform="translate(297,109)"/>
<path d="M0 0 C0.33 0 0.66 0 1 0 C2.84974093 5.10880829 2.84974093 5.10880829 3 8 C1.65558513 10.56028012 0.13075077 11.97071355 -2 14 C-2.66 13.67 -3.32 13.34 -4 13 C-2.68 8.71 -1.36 4.42 0 0 Z " fill="#BCABA9" transform="translate(168,210)"/>
<path d="M0 0 C2.64 0 5.28 0 8 0 C7.67 0.99 7.34 1.98 7 3 C8.32 3 9.64 3 11 3 C11 3.66 11 4.32 11 5 C7.04 4.67 3.08 4.34 -1 4 C-1.33 4.66 -1.66 5.32 -2 6 C-2 5.01 -2 4.02 -2 3 C-1.34 2.67 -0.68 2.34 0 2 C0 1.34 0 0.68 0 0 Z " fill="#696A67" transform="translate(254,141)"/>
<path d="M0 0 C0.33 0.99 0.66 1.98 1 3 C-2.05106275 7.99264814 -5.29040689 11.54629838 -10 15 C-10.66 15 -11.32 15 -12 15 C-10.66727125 11.40163237 -8.49638568 9.70395785 -5.53125 7.37109375 C-3.13178239 5.22259087 -1.66051138 2.74623036 0 0 Z " fill="#C4C6C2" transform="translate(171,126)"/>
<path d="M0 0 C0 0.66 0 1.32 0 2 C-4.47080161 3.39066066 -9.13382185 3.33955725 -13.77539062 3.51757812 C-15.52196538 3.60859923 -17.26290594 3.79674533 -19 4 C-19.33 4.66 -19.66 5.32 -20 6 C-20.66 6 -21.32 6 -22 6 C-21.37109375 4.04296875 -21.37109375 4.04296875 -20 2 C-17.28515625 1.42578125 -17.28515625 1.42578125 -14.0625 1.3125 C-9.21181097 1.1062131 -4.83335624 -0.13063125 0 0 Z " fill="#4A4B48" transform="translate(253,119)"/>
<path d="M0 0 C1.21386936 3.64160808 0.6674695 4.33165469 -0.9375 7.6875 C-1.31777344 8.49574219 -1.69804687 9.30398438 -2.08984375 10.13671875 C-2.39019531 10.75160156 -2.69054687 11.36648438 -3 12 C-5.15116049 9.84883951 -5.72549364 8.98035482 -6 6 C-4.78515625 4.296875 -4.78515625 4.296875 -3.0625 2.75 C-2.21365234 1.96882813 -2.21365234 1.96882813 -1.34765625 1.171875 C-0.90292969 0.78515625 -0.45820313 0.3984375 0 0 Z " fill="#E5E7E3" transform="translate(471,410)"/>
<path d="M0 0 C1.52634923 3.05269846 0.83794444 5.75845689 0.5625 9.125 C0.46066406 10.40632812 0.35882813 11.68765625 0.25390625 13.0078125 C0.17011719 13.99523437 0.08632812 14.98265625 0 16 C-1.58158962 12.99112219 -2.43945339 10.36327963 -3 7 C-4.32 6.67 -5.64 6.34 -7 6 C-5.02 5.67 -3.04 5.34 -1 5 C-0.67 3.35 -0.34 1.7 0 0 Z " fill="#3D3936" transform="translate(147,196)"/>
<path d="M0 0 C0.33 0 0.66 0 1 0 C1.19561869 2.0825867 1.38119313 4.16611856 1.5625 6.25 C1.66691406 7.41015625 1.77132813 8.5703125 1.87890625 9.765625 C1.98198087 12.51871477 1.86213473 14.419982 1 17 C0.34 17 -0.32 17 -1 17 C-1.33 17.66 -1.66 18.32 -2 19 C-1.34 12.73 -0.68 6.46 0 0 Z " fill="#B52C2C" transform="translate(308,134)"/>
<path d="M0 0 C0.66 0 1.32 0 2 0 C1 3 1 3 -1 4 C-8.30434783 4.23188406 -8.30434783 4.23188406 -12 3 C-12 2.34 -12 1.68 -12 1 C-10.56260487 0.97287934 -9.12506137 0.95354933 -7.6875 0.9375 C-6.48673828 0.92009766 -6.48673828 0.92009766 -5.26171875 0.90234375 C-3 1 -3 1 0 2 C0 1.34 0 0.68 0 0 Z " fill="#CDCFCB" transform="translate(265,144)"/>
<path d="M0 0 C0 3 0 3 -1.28515625 4.62573242 C-2.16494141 5.4819519 -2.16494141 5.4819519 -3.0625 6.35546875 C-3.69414063 6.97744141 -4.32578125 7.59941406 -4.9765625 8.24023438 C-5.64429687 8.88283203 -6.31203125 9.52542969 -7 10.1875 C-8.00160156 11.16879883 -8.00160156 11.16879883 -9.0234375 12.16992188 C-10.67578441 13.78686135 -12.33471601 15.39640491 -14 17 C-14 12.08113186 -10.31173311 9.3948461 -7 6 C-4.72300284 3.91201998 -2.39497582 1.9550823 0 0 Z " fill="#272826" transform="translate(89,125)"/>
<path d="M0 0 C1 2 1 2 0.0625 5.125 C-0.288125 6.07375 -0.63875 7.0225 -1 8 C-1.66 8 -2.32 8 -3 8 C-3.66 9.32 -4.32 10.64 -5 12 C-5.99 11.34 -6.98 10.68 -8 10 C-5.36 6.7 -2.72 3.4 0 0 Z " fill="#DADDD9" transform="translate(69,116)"/>
<path d="M0 0 C1.6852084 4.07679159 0.16939007 6.83075593 -1.4375 10.75 C-1.91058594 11.92046875 -2.38367188 13.0909375 -2.87109375 14.296875 C-3.24363281 15.18890625 -3.61617188 16.0809375 -4 17 C-5.32 16.67 -6.64 16.34 -8 16 C-7.01 16 -6.02 16 -5 16 C-4.9175 14.845 -4.835 13.69 -4.75 12.5 C-4.18513317 7.77872502 -2.33831147 4.0893261 0 0 Z " fill="#761C1C" transform="translate(296,101)"/>
<path d="M0 0 C1.44207941 2.88415883 1.09394887 5.41721528 1.0625 8.625 C1.05347656 9.81351563 1.04445313 11.00203125 1.03515625 12.2265625 C1.02355469 13.14179687 1.01195312 14.05703125 1 15 C-0.95474874 11.45845523 -1.08792438 9.04452147 -1 5 C-1.33 4.34 -1.66 3.68 -2 3 C-2.99 3 -3.98 3 -5 3 C-5.66 3.66 -6.32 4.32 -7 5 C-7 3.68 -7 2.36 -7 1 C-4 0 -4 0 0 0 Z " fill="#A81F1F" transform="translate(304,100)"/>
<path d="M0 0 C1.98 0.99 1.98 0.99 4 2 C4 2.66 4 3.32 4 4 C5.98 3.34 7.96 2.68 10 2 C10.66 3.32 11.32 4.64 12 6 C9.69 6.33 7.38 6.66 5 7 C5 6.34 5 5.68 5 5 C4.34 5 3.68 5 3 5 C1.375 3.625 1.375 3.625 0 2 C0 1.34 0 0.68 0 0 Z " fill="#291C1B" transform="translate(145,222)"/>
<path d="M0 0 C-2.17220355 2.73277221 -3.85827965 4.72888915 -7.3359375 5.5546875 C-9.56274452 5.78650022 -11.76217118 5.94637012 -14 6 C-12.66796875 4.48046875 -12.66796875 4.48046875 -11 3 C-8.3125 3.3125 -8.3125 3.3125 -6 4 C-6.33 3.01 -6.66 2.02 -7 1 C-4.53721199 -0.231394 -2.7204945 -0.07159196 0 0 Z " fill="#D9DCD7" transform="translate(208,169)"/>
<path d="M0 0 C0.62261719 0.15339844 1.24523437 0.30679688 1.88671875 0.46484375 C6.18274772 1.20330795 10.46241952 1.36462162 14.8125 1.5625 C15.69615234 1.60568359 16.57980469 1.64886719 17.49023438 1.69335938 C19.65999623 1.79891536 21.8299791 1.89991071 24 2 C24 2.33 24 2.66 24 3 C20.5625177 3.02901394 17.12506688 3.04680335 13.6875 3.0625 C12.22280273 3.07506836 12.22280273 3.07506836 10.72851562 3.08789062 C9.79072266 3.09111328 8.85292969 3.09433594 7.88671875 3.09765625 C7.02264404 3.10289307 6.15856934 3.10812988 5.26831055 3.11352539 C3 3 3 3 0 2 C0 1.34 0 0.68 0 0 Z " fill="#8A8B88" transform="translate(272,168)"/>
<path d="M0 0 C3.73209414 1.24403138 5.30708475 3.17243898 8 6 C8.598125 6.598125 9.19625 7.19625 9.8125 7.8125 C10.204375 8.204375 10.59625 8.59625 11 9 C6.45614035 9.36842105 6.45614035 9.36842105 4.375 7.6875 C3.92125 7.130625 3.4675 6.57375 3 6 C2.443125 5.505 1.88625 5.01 1.3125 4.5 C0 3 0 3 0 0 Z " fill="#5A4241" transform="translate(143,217)"/>
<path d="M0 0 C3 3 3 3 4 6 C5.32 5.67 6.64 5.34 8 5 C7.34 6.32 6.68 7.64 6 9 C5.38125 8.79375 4.7625 8.5875 4.125 8.375 C3.42375 8.25125 2.7225 8.1275 2 8 C1.34 8.66 0.68 9.32 0 10 C0 6.7 0 3.4 0 0 Z " fill="#443836" transform="translate(200,197)"/>
<path d="M0 0 C0.33 0 0.66 0 1 0 C1 5.61 1 11.22 1 17 C0.01 17.33 -0.98 17.66 -2 18 C-1.85805236 15.93722893 -1.71127784 13.87478969 -1.5625 11.8125 C-1.48128906 10.66394531 -1.40007812 9.51539063 -1.31640625 8.33203125 C-1.04596188 5.48401829 -0.62478253 2.78789518 0 0 Z " fill="#C9CBC7" transform="translate(134,328)"/>
<path d="M0 0 C5.28 0 10.56 0 16 0 C16 0.66 16 1.32 16 2 C13.6739143 2.38063221 11.33944736 2.71269945 9 3 C8.67 2.67 8.34 2.34 8 2 C6.65252916 1.76924918 5.29622435 1.58846937 3.9375 1.4375 C2.638125 1.293125 1.33875 1.14875 0 1 C0 0.67 0 0.34 0 0 Z " fill="#555653" transform="translate(261,148)"/>
<path d="M0 0 C1.98 0 3.96 0 6 0 C6.28571429 7.42857143 6.28571429 7.42857143 4 11 C4 8.36 4 5.72 4 3 C2.68 2.67 1.36 2.34 0 2 C-0.33 2.99 -0.66 3.98 -1 5 C-0.67 3.35 -0.34 1.7 0 0 Z " fill="#B67574" transform="translate(172,195)"/>
<path d="M0 0 C0.99 0.33 1.98 0.66 3 1 C2.67 2.98 2.34 4.96 2 7 C0.68 6.67 -0.64 6.34 -2 6 C-1.125 1.125 -1.125 1.125 0 0 Z " fill="#F0F2ED" transform="translate(167,372)"/>
<path d="M0 0 C1.32 0 2.64 0 4 0 C3.67 1.65 3.34 3.3 3 5 C0.36 5 -2.28 5 -5 5 C-4.360625 4.731875 -3.72125 4.46375 -3.0625 4.1875 C-0.66868314 3.11332248 -0.66868314 3.11332248 0 0 Z " fill="#E5E7E2" transform="translate(95,209)"/>
<path d="M0 0 C0.66 0.33 1.32 0.66 2 1 C1.67 5.62 1.34 10.24 1 15 C0.34 15 -0.32 15 -1 15 C-1.33 13.68 -1.66 12.36 -2 11 C-1.34 11 -0.68 11 0 11 C-0.185625 9.741875 -0.37125 8.48375 -0.5625 7.1875 C-1.00732761 4.17255732 -0.99843846 2.99531539 0 0 Z " fill="#B54543" transform="translate(172,197)"/>
<path d="M0 0 C1.32 0 2.64 0 4 0 C4.99 2.31 5.98 4.62 7 7 C5.1875 6.875 5.1875 6.875 3 6 C1.25 2.9375 1.25 2.9375 0 0 Z " fill="#362524" transform="translate(202,186)"/>
<path d="M0 0 C1.485 0.99 1.485 0.99 3 2 C3.66 2.33 4.32 2.66 5 3 C5 5.66666667 5 8.33333333 5 11 C4.34 10.67 3.68 10.34 3 10 C3 8.68 3 7.36 3 6 C2.34 6 1.68 6 1 6 C0.67 4.02 0.34 2.04 0 0 Z " fill="#D0D3CE" transform="translate(50,177)"/>
<path d="M0 0 C2.97 0 5.94 0 9 0 C9 0.99 9 1.98 9 3 C5.625 3.1875 5.625 3.1875 2 3 C1.34 2.01 0.68 1.02 0 0 Z " fill="#EAECE7" transform="translate(263,165)"/>
<path d="M0 0 C2.13586678 3.20380017 2.23132175 4.01939967 2.125 7.6875 C2.10695313 8.49574219 2.08890625 9.30398437 2.0703125 10.13671875 C2.03550781 11.05904297 2.03550781 11.05904297 2 12 C1.34 11.34 0.68 10.68 0 10 C0 8.68 0 7.36 0 6 C-1.65 6 -3.3 6 -5 6 C-5 5.67 -5 5.34 -5 5 C-3.35 5 -1.7 5 0 5 C0 3.35 0 1.7 0 0 Z " fill="#AD3939" transform="translate(290,143)"/>
<path d="M0 0 C1.32 0 2.64 0 4 0 C4.33 0.99 4.66 1.98 5 3 C0.25 6 0.25 6 -2 6 C-2 4.68 -2 3.36 -2 2 C-1.34 2 -0.68 2 0 2 C0 1.34 0 0.68 0 0 Z " fill="#E9EDE7" transform="translate(109,106)"/>
<path d="M0 0 C1.485 0.99 1.485 0.99 3 2 C3.6875 5.625 3.6875 5.625 4 9 C3.67 8.34 3.34 7.68 3 7 C2.01 7.33 1.02 7.66 0 8 C0 5.36 0 2.72 0 0 Z " fill="#AEB0AC" transform="translate(177,100)"/>
<path d="M0 0 C4.455 0.99 4.455 0.99 9 2 C8.34 3.32 7.68 4.64 7 6 C5.83054208 5.19152271 4.66449539 4.37810888 3.5 3.5625 C2.8503125 3.11003906 2.200625 2.65757812 1.53125 2.19140625 C1.0259375 1.79824219 0.520625 1.40507812 0 1 C0 0.67 0 0.34 0 0 Z " fill="#DADBD7" transform="translate(293,410)"/>
<path d="M0 0 C0.66 0.33 1.32 0.66 2 1 C-2.625 6.75 -2.625 6.75 -6 9 C-6.99 8.67 -7.98 8.34 -9 8 C-6.03 5.36 -3.06 2.72 0 0 Z " fill="#CDCECA" transform="translate(366,176)"/>
<path d="M0 0 C1.98 0 3.96 0 6 0 C6.66 2.97 7.32 5.94 8 9 C7.01 8.34 6.02 7.68 5 7 C4.8125 4.375 4.8125 4.375 5 2 C3.68 2.33 2.36 2.66 1 3 C0.67 2.01 0.34 1.02 0 0 Z " fill="#3C1E1C" transform="translate(283,149)"/>
<path d="M0 0 C0.99 0 1.98 0 3 0 C3 2 3 2 1.625 3.4375 C1.08875 3.953125 0.5525 4.46875 0 5 C-0.99 6.485 -0.99 6.485 -2 8 C-2.66 8 -3.32 8 -4 8 C-3.67 6.35 -3.34 4.7 -3 3 C-2.34 3 -1.68 3 -1 3 C-0.67 2.01 -0.34 1.02 0 0 Z " fill="#C41B1C" transform="translate(299,102)"/>
<path d="M0 0 C0.99 0 1.98 0 3 0 C3 0.66 3 1.32 3 2 C3.66 2.33 4.32 2.66 5 3 C4.67 4.32 4.34 5.64 4 7 C3.01 6.67 2.02 6.34 1 6 C0.67 4.02 0.34 2.04 0 0 Z " fill="#F8FCF6" transform="translate(70,198)"/>
<path d="M0 0 C0.99 0 1.98 0 3 0 C3 1.65 3 3.3 3 5 C2.67 4.34 2.34 3.68 2 3 C1.34 3 0.68 3 0 3 C-0.66 4.32 -1.32 5.64 -2 7 C-2.33 6.34 -2.66 5.68 -3 5 C-1.75 2.375 -1.75 2.375 0 0 Z " fill="#D7D8D5" transform="translate(171,361)"/>
<path d="M0 0 C0.33 0 0.66 0 1 0 C1.33 1.98 1.66 3.96 2 6 C2.66 6 3.32 6 4 6 C4 6.99 4 7.98 4 9 C2.35 9 0.7 9 -1 9 C-1.33 8.34 -1.66 7.68 -2 7 C-1.34 7 -0.68 7 0 7 C0 4.69 0 2.38 0 0 Z " fill="#BDA1A0" transform="translate(173,186)"/>
<path d="M0 0 C0.66 0.33 1.32 0.66 2 1 C0.02 3.31 -1.96 5.62 -4 8 C-4.33 7.01 -4.66 6.02 -5 5 C-4.67 4.34 -4.34 3.68 -4 3 C-3.34 3 -2.68 3 -2 3 C-1.67 2.34 -1.34 1.68 -1 1 C-0.67 0.67 -0.34 0.34 0 0 Z " fill="#DFE1DC" transform="translate(385,177)"/>
<path d="M0 0 C-0.99 0 -1.98 0 -3 0 C-3.33 1.98 -3.66 3.96 -4 6 C-4.33 5.01 -4.66 4.02 -5 3 C-5.99 2.67 -6.98 2.34 -8 2 C-6.14210462 -1.71579076 -3.44525918 -1.06921837 0 0 Z " fill="#E3C9C7" transform="translate(178,216)"/>
<path d="M0 0 C-0.33 1.32 -0.66 2.64 -1 4 C-2.32 4 -3.64 4 -5 4 C-5 3.01 -5 2.02 -5 1 C-3 0 -3 0 0 0 Z " fill="#825757" transform="translate(208,199)"/>
<path d="M0 0 C0.66 0 1.32 0 2 0 C2 1.98 2 3.96 2 6 C0.35 6 -1.3 6 -3 6 C-3 5.34 -3 4.68 -3 4 C-2.34 3.67 -1.68 3.34 -1 3 C-0.67 2.01 -0.34 1.02 0 0 Z " fill="#F4CDC9" transform="translate(288,142)"/>
<path d="M0 0 C0.66 0.33 1.32 0.66 2 1 C0.84826645 3.46800047 -0.04783565 5.04783565 -2 7 C-2.33 5.35 -2.66 3.7 -3 2 C-2.01 1.34 -1.02 0.68 0 0 Z " fill="#E6E8E4" transform="translate(155,399)"/>
<path d="M0 0 C2.97 1.98 2.97 1.98 6 4 C5.01 4.66 4.02 5.32 3 6 C2.01 5.67 1.02 5.34 0 5 C0 3.35 0 1.7 0 0 Z " fill="#DDE1DC" transform="translate(257,350)"/>
<path d="M0 0 C1.32 0.66 2.64 1.32 4 2 C4 2.66 4 3.32 4 4 C2.35 4.33 0.7 4.66 -1 5 C-0.67 3.35 -0.34 1.7 0 0 Z " fill="#DFE2DD" transform="translate(234,325)"/>
<path d="M0 0 C1.65 1.65 3.3 3.3 5 5 C4.01 5.33 3.02 5.66 2 6 C1.01 5.34 0.02 4.68 -1 4 C-0.67 2.68 -0.34 1.36 0 0 Z " fill="#D6D9D4" transform="translate(211,297)"/>
<path d="M0 0 C1.32 0.33 2.64 0.66 4 1 C-0.75 5 -0.75 5 -3 5 C-2.67 4.01 -2.34 3.02 -2 2 C-1.34 2 -0.68 2 0 2 C0 1.34 0 0.68 0 0 Z " fill="#F8FBF5" transform="translate(318,208)"/>
<path d="M0 0 C0.99 0.33 1.98 0.66 3 1 C3 3.31 3 5.62 3 8 C0.9375 6.25 0.9375 6.25 -1 4 C-0.75 1.75 -0.75 1.75 0 0 Z " fill="#311E1D" transform="translate(137,203)"/>
<path d="M0 0 C0.33 0 0.66 0 1 0 C0.67 4.29 0.34 8.58 0 13 C-0.33 13 -0.66 13 -1 13 C-1.2236337 11.58566794 -1.42826476 10.16832382 -1.625 8.75 C-1.74101562 7.96109375 -1.85703125 7.1721875 -1.9765625 6.359375 C-2.00319395 3.67847541 -1.36592084 2.27305911 0 0 Z " fill="#AC5352" transform="translate(176,196)"/>
<path d="M0 0 C0.99 0 1.98 0 3 0 C3 0.99 3 1.98 3 3 C4.65 3 6.3 3 8 3 C8 3.33 8 3.66 8 4 C5.03 4 2.06 4 -1 4 C-0.67 2.68 -0.34 1.36 0 0 Z " fill="#E4E9E3" transform="translate(332,145)"/>
<path d="M0 0 C2.475 0.99 2.475 0.99 5 2 C4.34 2.66 3.68 3.32 3 4 C0.375 3.625 0.375 3.625 -2 3 C-1.34 2.01 -0.68 1.02 0 0 Z " fill="#E0E1DD" transform="translate(429,445)"/>
<path d="M0 0 C0.33 0.66 0.66 1.32 1 2 C1.66 2 2.32 2 3 2 C3.33 1.34 3.66 0.68 4 0 C4 1.65 4 3.3 4 5 C1.03 4.505 1.03 4.505 -2 4 C-1.34 3.67 -0.68 3.34 0 3 C0 2.01 0 1.02 0 0 Z " fill="#EDE3E0" transform="translate(164,209)"/>
<path d="M0 0 C2 2 2 2 2.125 4.625 C2.08375 5.40875 2.0425 6.1925 2 7 C1.34 7 0.68 7 0 7 C-0.33 7.66 -0.66 8.32 -1 9 C-0.67 6.03 -0.34 3.06 0 0 Z " fill="#C16565" transform="translate(170,201)"/>
<path d="M0 0 C2.475 0.495 2.475 0.495 5 1 C5.33 2.32 5.66 3.64 6 5 C4.02 4.34 2.04 3.68 0 3 C0 2.01 0 1.02 0 0 Z " fill="#F2F4EE" transform="translate(272,165)"/>
<path d="M0 0 C0.99 0.495 0.99 0.495 2 1 C2.75 3.875 2.75 3.875 3 7 C2.34 7.99 1.68 8.98 1 10 C0.67 6.7 0.34 3.4 0 0 Z " fill="#E30D0F" transform="translate(292,138)"/>
<path d="M0 0 C2.29013653 3.4352048 2.17842973 4.985331 2 9 C1.34 9 0.68 9 0 9 C-1.125 2.25 -1.125 2.25 0 0 Z " fill="#F2D2CF" transform="translate(288,119)"/>
<path d="M0 0 C0.66 0.99 1.32 1.98 2 3 C1.34 4.32 0.68 5.64 0 7 C-0.99 5.68 -1.98 4.36 -3 3 C-2.34 3 -1.68 3 -1 3 C-0.67 2.01 -0.34 1.02 0 0 Z " fill="#E6EAE5" transform="translate(381,98)"/>
</svg>
