<?xml version="1.0" encoding="UTF-8"?>
<!DOCTYPE svg PUBLIC "-//W3C//DTD SVG 1.1//EN" "http://www.w3.org/Graphics/SVG/1.1/DTD/svg11.dtd">
<svg xmlns="http://www.w3.org/2000/svg" version="1.1" width="769px" height="823px" style="shape-rendering:geometricPrecision; text-rendering:geometricPrecision; image-rendering:optimizeQuality; fill-rule:evenodd; clip-rule:evenodd" xmlns:xlink="http://www.w3.org/1999/xlink">
<g><path style="opacity:1" fill="#02252b" d="M -0.5,-0.5 C 255.833,-0.5 512.167,-0.5 768.5,-0.5C 768.5,273.833 768.5,548.167 768.5,822.5C 512.167,822.5 255.833,822.5 -0.5,822.5C -0.5,548.167 -0.5,273.833 -0.5,-0.5 Z"/></g>
<g><path style="opacity:1" fill="#2e434a" d="M 375.5,52.5 C 388.866,51.1201 402.199,51.4534 415.5,53.5C 411.167,53.5 406.833,53.5 402.5,53.5C 393.682,52.5067 384.682,52.1734 375.5,52.5 Z"/></g>
<g><path style="opacity:1" fill="#61737a" d="M 375.5,52.5 C 384.682,52.1734 393.682,52.5067 402.5,53.5C 382.637,53.0842 362.971,53.7509 343.5,55.5C 340.833,55.5 338.167,55.5 335.5,55.5C 340.569,53.9006 345.902,53.0673 351.5,53C 359.493,52.5003 367.493,52.3336 375.5,52.5 Z"/></g>
<g><path style="opacity:1" fill="#b0bdc4" d="M 402.5,53.5 C 406.833,53.5 411.167,53.5 415.5,53.5C 419.167,54.1667 422.833,54.8333 426.5,55.5C 398.835,54.2233 371.168,54.2233 343.5,55.5C 362.971,53.7509 382.637,53.0842 402.5,53.5 Z"/></g>
<g><path style="opacity:1" fill="#44585e" d="M 415.5,53.5 C 420.844,53.334 426.177,53.5006 431.5,54C 433.382,54.1981 435.048,54.6981 436.5,55.5C 433.167,55.5 429.833,55.5 426.5,55.5C 422.833,54.8333 419.167,54.1667 415.5,53.5 Z"/></g>
<g><path style="opacity:1" fill="#667980" d="M 442.5,56.5 C 448.069,56.376 453.402,57.0427 458.5,58.5C 452.931,58.624 447.598,57.9573 442.5,56.5 Z"/></g>
<g><path style="opacity:1" fill="#697a80" d="M 331.5,55.5 C 315.28,58.0363 298.946,60.7029 282.5,63.5C 282.611,62.8826 282.944,62.3826 283.5,62C 299.379,58.8531 315.379,56.6864 331.5,55.5 Z"/></g>
<g><path style="opacity:1" fill="#93a2a7" d="M 458.5,58.5 C 463.12,58.7402 467.453,59.7402 471.5,61.5C 467.466,61.3279 463.466,60.8279 459.5,60C 458.944,59.6174 458.611,59.1174 458.5,58.5 Z"/></g>
<g><path style="opacity:1" fill="#53686d" d="M 475.5,61.5 C 482.573,61.9773 489.24,63.644 495.5,66.5C 489.242,65.0281 482.909,63.8614 476.5,63C 475.944,62.6174 475.611,62.1174 475.5,61.5 Z"/></g>
<g><path style="opacity:1" fill="#75888d" d="M 281.5,63.5 C 275.964,66.381 269.964,67.7143 263.5,67.5C 269.191,65.2926 275.191,63.9593 281.5,63.5 Z"/></g>
<g><path style="opacity:1" fill="#61747b" d="M 495.5,66.5 C 498.228,66.1706 500.562,66.8372 502.5,68.5C 499.848,68.5905 497.515,67.9238 495.5,66.5 Z"/></g>
<g><path style="opacity:1" fill="#75838c" d="M 263.5,67.5 C 259.207,69.7438 254.54,71.0771 249.5,71.5C 253.814,69.2957 258.481,67.9624 263.5,67.5 Z"/></g>
<g><path style="opacity:1" fill="#abbabd" d="M 239.5,74.5 C 234.372,78.714 228.372,81.0473 221.5,81.5C 227.063,78.2655 233.063,75.9322 239.5,74.5 Z"/></g>
<g><path style="opacity:1" fill="#788890" d="M 532.5,80.5 C 537.668,81.5794 542.002,83.9127 545.5,87.5C 540.815,85.7243 536.482,83.3909 532.5,80.5 Z"/></g>
<g><path style="opacity:1" fill="#8e9da3" d="M 215.5,83.5 C 215.047,84.4584 214.381,85.2917 213.5,86C 206.257,89.1239 198.923,91.9573 191.5,94.5C 191.953,93.5416 192.619,92.7083 193.5,92C 198.912,90.4593 203.912,88.126 208.5,85C 210.813,84.338 213.146,83.838 215.5,83.5 Z"/></g>
<g><path style="opacity:1" fill="#8c9ca2" d="M 548.5,89.5 C 552.054,90.7693 555.054,92.7693 557.5,95.5C 554.659,94.7763 551.992,93.6096 549.5,92C 548.748,91.3292 548.414,90.4959 548.5,89.5 Z"/></g>
<g><path style="opacity:1" fill="#607078" d="M 191.5,94.5 C 189.544,95.4918 187.544,96.4918 185.5,97.5C 186.687,95.0246 188.687,94.0246 191.5,94.5 Z"/></g>
<g><path style="opacity:1" fill="#6c7b83" d="M 185.5,97.5 C 185.631,98.3764 185.298,99.0431 184.5,99.5C 181.33,100.588 178.33,101.921 175.5,103.5C 178.161,100.498 181.495,98.4977 185.5,97.5 Z"/></g>
<g><path style="opacity:1" fill="#95a0a8" d="M 175.5,103.5 C 173.886,106.769 171.219,108.436 167.5,108.5C 169.484,105.836 172.151,104.169 175.5,103.5 Z"/></g>
<g><path style="opacity:1" fill="#84939a" d="M 167.5,108.5 C 166.323,110.032 164.989,111.532 163.5,113C 162.207,113.49 160.873,113.657 159.5,113.5C 161.629,111.05 164.296,109.383 167.5,108.5 Z"/></g>
<g><path style="opacity:1" fill="#9ba9af" d="M 159.5,113.5 C 157.059,116.949 154.059,119.616 150.5,121.5C 151.211,119.97 152.211,118.637 153.5,117.5C 155.246,115.748 157.246,114.415 159.5,113.5 Z"/></g>
<g><path style="opacity:1" fill="#5a6b71" d="M 153.5,117.5 C 152.211,118.637 151.211,119.97 150.5,121.5C 148.15,122.861 145.816,124.194 143.5,125.5C 145.606,122.945 147.94,120.612 150.5,118.5C 151.417,117.873 152.417,117.539 153.5,117.5 Z"/></g>
<g><path style="opacity:1" fill="#74818b" d="M 143.5,125.5 C 142.109,127.89 140.109,129.557 137.5,130.5C 138.865,128.14 140.865,126.473 143.5,125.5 Z"/></g>
<g><path style="opacity:1" fill="#798991" d="M 137.5,130.5 C 134.789,134.212 131.456,137.212 127.5,139.5C 127.414,138.504 127.748,137.671 128.5,137C 131.397,134.59 134.397,132.423 137.5,130.5 Z"/></g>
<g><path style="opacity:1" fill="#7f9298" d="M 127.5,139.5 C 124.5,144.5 120.5,148.5 115.5,151.5C 118.446,148.378 121.279,145.044 124,141.5C 124.816,140.177 125.983,139.511 127.5,139.5 Z"/></g>
<g><path style="opacity:1" fill="#c0cad2" d="M 574.5,111.5 C 579.791,117.316 584.624,123.649 589,130.5C 591.53,137.546 594.03,144.546 596.5,151.5C 597.48,154.086 597.813,156.753 597.5,159.5C 597.707,170.236 597.04,180.902 595.5,191.5C 593.975,194.079 592.641,196.746 591.5,199.5C 591.336,196.813 591.503,194.146 592,191.5C 592.333,191.833 592.667,192.167 593,192.5C 595.236,181.633 596.236,170.633 596,159.5C 594.173,159.194 593.006,157.694 592.5,155C 593.576,153.274 593.743,151.441 593,149.5C 592.667,149.833 592.333,150.167 592,150.5C 591.481,145.762 590.648,141.095 589.5,136.5C 588.5,136.5 587.5,136.5 586.5,136.5C 581.771,128.49 577.771,120.156 574.5,111.5 Z"/></g>
<g><path style="opacity:1" fill="#66747d" d="M 115.5,151.5 C 114.92,153.749 113.587,155.415 111.5,156.5C 112.08,154.251 113.413,152.585 115.5,151.5 Z"/></g>
<g><path style="opacity:1" fill="#5e7077" d="M 597.5,159.5 C 598.654,165.987 598.821,172.654 598,179.5C 597.811,183.767 596.977,187.767 595.5,191.5C 597.04,180.902 597.707,170.236 597.5,159.5 Z"/></g>
<g><path style="opacity:1" fill="#9aa7b0" d="M 99.5,175.5 C 98.1831,180.09 96.8497,184.757 95.5,189.5C 94.2696,204.507 94.2696,219.507 95.5,234.5C 94.7321,233.737 94.2321,232.737 94,231.5C 93.3333,217.167 93.3333,202.833 94,188.5C 95,185.167 96,181.833 97,178.5C 97.3768,177.058 98.2101,176.058 99.5,175.5 Z"/></g>
<g><path style="opacity:1" fill="#6d7d84" d="M 595.5,191.5 C 594.705,197.396 592.705,202.729 589.5,207.5C 589.694,204.67 590.361,202.004 591.5,199.5C 592.641,196.746 593.975,194.079 595.5,191.5 Z"/></g>
<g><path style="opacity:1" fill="#4e6066" d="M 585.5,215.5 C 585.66,217.199 585.494,218.866 585,220.5C 581.973,224.269 578.806,227.936 575.5,231.5C 576.75,228.933 577.917,226.267 579,223.5C 581.789,221.224 583.956,218.557 585.5,215.5 Z"/></g>
<g><path style="opacity:1" fill="#5e6e75" d="M 575.5,231.5 C 573.57,235.1 570.903,238.1 567.5,240.5C 569.43,236.9 572.097,233.9 575.5,231.5 Z"/></g>
<g><path style="opacity:1" fill="#506369" d="M 567.5,240.5 C 563.471,246.861 558.138,251.861 551.5,255.5C 556.833,250.5 562.167,245.5 567.5,240.5 Z"/></g>
<g><path style="opacity:1" fill="#e6e3e9" d="M 245.5,240.5 C 248.515,242.674 251.849,244.341 255.5,245.5C 258.871,247.846 262.204,250.179 265.5,252.5C 266.423,256.064 266.756,259.731 266.5,263.5C 265.673,267.807 265.007,272.14 264.5,276.5C 263.539,278.265 263.205,280.265 263.5,282.5C 253.521,281.778 243.521,281.112 233.5,280.5C 232.44,272.18 232.774,263.846 234.5,255.5C 235.562,251.258 237.229,247.258 239.5,243.5C 241.053,241.615 243.053,240.615 245.5,240.5 Z"/></g>
<g><path style="opacity:1" fill="#e5e3e9" d="M 307.5,267.5 C 307.5,268.167 307.5,268.833 307.5,269.5C 306.265,269.721 305.265,270.388 304.5,271.5C 303.753,279.145 302.087,286.479 299.5,293.5C 297.034,294.634 294.367,294.801 291.5,294C 286.25,292.327 281.583,289.827 277.5,286.5C 276.432,285.566 275.099,285.232 273.5,285.5C 271.986,281.263 272.486,277.263 275,273.5C 275.498,270.183 275.665,266.85 275.5,263.5C 276.566,261.299 277.233,258.965 277.5,256.5C 287.112,254.959 296.779,254.459 306.5,255C 307.464,259.066 307.797,263.233 307.5,267.5 Z"/></g>
<g><path style="opacity:1" fill="#2c4348" d="M 107.5,255.5 C 114.668,262.031 122.002,268.031 129.5,273.5C 125.913,270.93 121.913,269.263 117.5,268.5C 117.5,267.5 117.5,266.5 117.5,265.5C 114.001,265.259 113.668,266.092 116.5,268C 114.386,268.329 112.72,267.496 111.5,265.5C 112.428,264.232 112.595,262.899 112,261.5C 109.873,259.886 108.373,257.886 107.5,255.5 Z"/></g>
<g><path style="opacity:1" fill="#45585e" d="M 551.5,255.5 C 547.533,261.486 542.2,265.486 535.5,267.5C 540.819,263.602 546.152,259.602 551.5,255.5 Z"/></g>
<g><path style="opacity:1" fill="#63727b" d="M 535.5,267.5 C 534.415,269.587 532.749,270.92 530.5,271.5C 531.585,269.413 533.251,268.08 535.5,267.5 Z"/></g>
<g><path style="opacity:1" fill="#bd7175" d="M 268.5,259.5 C 270.772,260.441 272.772,261.774 274.5,263.5C 275.114,268.032 274.114,272.032 271.5,275.5C 271.5,272.167 271.5,268.833 271.5,265.5C 269.876,265.36 268.71,266.027 268,267.5C 266.775,272.085 266.275,276.752 266.5,281.5C 267.833,281.5 269.167,281.5 270.5,281.5C 269.928,284.244 268.262,285.077 265.5,284C 264.565,281.619 264.232,279.119 264.5,276.5C 265.007,272.14 265.673,267.807 266.5,263.5C 267.167,262.167 267.833,260.833 268.5,259.5 Z"/></g>
<g><path style="opacity:1" fill="#c4cbd4" d="M 307.5,269.5 C 307.5,271.167 307.5,272.833 307.5,274.5C 307.5,275.167 307.5,275.833 307.5,276.5C 305.399,279.797 304.065,283.463 303.5,287.5C 302.66,289.853 301.326,291.853 299.5,293.5C 302.087,286.479 303.753,279.145 304.5,271.5C 305.265,270.388 306.265,269.721 307.5,269.5 Z"/></g>
<g><path style="opacity:1" fill="#3c3e42" d="M 231.5,266.5 C 230.897,271.619 231.564,276.285 233.5,280.5C 233.5,280.833 233.5,281.167 233.5,281.5C 229.976,281.346 226.976,282.18 224.5,284C 223.577,281.959 223.244,279.792 223.5,277.5C 225.144,277.714 226.644,277.38 228,276.5C 228.497,273.854 228.664,271.187 228.5,268.5C 226.833,268.5 225.167,268.5 223.5,268.5C 223.5,270.833 223.5,273.167 223.5,275.5C 222.232,273.095 221.565,270.428 221.5,267.5C 224.448,267.223 227.281,267.556 230,268.5C 230.278,267.584 230.778,266.918 231.5,266.5 Z"/></g>
<g><path style="opacity:1" fill="#47555d" d="M 307.5,276.5 C 307.543,280.733 306.21,284.4 303.5,287.5C 304.065,283.463 305.399,279.797 307.5,276.5 Z"/></g>
<g><path style="opacity:1" fill="#acb9c0" d="M 161.5,275.5 C 162.993,276.312 163.66,277.645 163.5,279.5C 163.291,280.994 162.624,282.161 161.5,283C 155.139,283.935 149.139,283.102 143.5,280.5C 149.822,281.014 156.155,281.347 162.5,281.5C 162.483,279.435 162.15,277.435 161.5,275.5 Z"/></g>
<g><path style="opacity:1" fill="#697980" d="M 463.5,280.5 C 460.965,282.017 458.298,283.35 455.5,284.5C 457.412,281.851 460.079,280.518 463.5,280.5 Z"/></g>
<g><path style="opacity:1" fill="#d9aaae" d="M 274.5,263.5 C 274.833,263.5 275.167,263.5 275.5,263.5C 275.665,266.85 275.498,270.183 275,273.5C 272.486,277.263 271.986,281.263 273.5,285.5C 272.5,286.167 271.5,286.833 270.5,287.5C 268.114,287.741 266.114,287.075 264.5,285.5C 263.89,284.609 263.557,283.609 263.5,282.5C 263.205,280.265 263.539,278.265 264.5,276.5C 264.232,279.119 264.565,281.619 265.5,284C 268.262,285.077 269.928,284.244 270.5,281.5C 271.461,279.735 271.795,277.735 271.5,275.5C 274.114,272.032 275.114,268.032 274.5,263.5 Z"/></g>
<g><path style="opacity:1" fill="#aeb2b9" d="M 233.5,281.5 C 233.5,281.167 233.5,280.833 233.5,280.5C 243.521,281.112 253.521,281.778 263.5,282.5C 263.557,283.609 263.89,284.609 264.5,285.5C 261.885,287.363 261.885,289.363 264.5,291.5C 261.833,294.5 259.167,297.5 256.5,300.5C 256.083,304.863 254.417,308.529 251.5,311.5C 253.598,303.033 256.764,295.033 261,287.5C 261.781,286.056 261.614,284.723 260.5,283.5C 251.501,282.806 242.501,282.139 233.5,281.5 Z"/></g>
<g><path style="opacity:1" fill="#96a3a9" d="M 494.5,290.5 C 491.021,292.403 487.354,294.07 483.5,295.5C 486.155,291.9 489.822,290.233 494.5,290.5 Z"/></g>
<g><path style="opacity:1" fill="#2d4449" d="M 463.5,303.5 C 463.047,304.458 462.381,305.292 461.5,306C 462.167,306.333 462.833,306.667 463.5,307C 455.653,307.265 448.32,309.265 441.5,313C 439.19,313.497 436.857,313.663 434.5,313.5C 436.598,312.065 438.931,310.898 441.5,310C 448.947,308.128 456.28,305.961 463.5,303.5 Z"/></g>
<g><path style="opacity:1" fill="#9dadb3" d="M 251.5,311.5 C 251.03,312.693 250.03,313.36 248.5,313.5C 242.857,312.478 237.19,312.311 231.5,313C 228.91,314.445 226.243,315.612 223.5,316.5C 224.333,314.171 226,312.671 228.5,312C 236.137,310.169 243.804,310.003 251.5,311.5 Z"/></g>
<g><path style="opacity:1" fill="#74878d" d="M 433.5,313.5 C 430.417,315.025 427.084,316.025 423.5,316.5C 426.381,314.32 429.714,313.32 433.5,313.5 Z"/></g>
<g><path style="opacity:1" fill="#e4e4ea" d="M 426.5,55.5 C 429.833,55.5 433.167,55.5 436.5,55.5C 438.735,55.2053 440.735,55.5386 442.5,56.5C 447.598,57.9573 452.931,58.624 458.5,58.5C 458.611,59.1174 458.944,59.6174 459.5,60C 463.466,60.8279 467.466,61.3279 471.5,61.5C 472.833,61.5 474.167,61.5 475.5,61.5C 475.611,62.1174 475.944,62.6174 476.5,63C 482.909,63.8614 489.242,65.0281 495.5,66.5C 497.515,67.9238 499.848,68.5905 502.5,68.5C 509.733,69.9669 516.733,72.1336 523.5,75C 526.865,76.3439 529.865,78.1773 532.5,80.5C 536.482,83.3909 540.815,85.7243 545.5,87.5C 546.5,88.1667 547.5,88.8333 548.5,89.5C 548.414,90.4959 548.748,91.3292 549.5,92C 551.992,93.6096 554.659,94.7763 557.5,95.5C 563.515,100.517 569.182,105.85 574.5,111.5C 577.771,120.156 581.771,128.49 586.5,136.5C 587.5,136.5 588.5,136.5 589.5,136.5C 590.648,141.095 591.481,145.762 592,150.5C 592.333,150.167 592.667,149.833 593,149.5C 593.743,151.441 593.576,153.274 592.5,155C 593.006,157.694 594.173,159.194 596,159.5C 596.236,170.633 595.236,181.633 593,192.5C 592.667,192.167 592.333,191.833 592,191.5C 591.503,194.146 591.336,196.813 591.5,199.5C 590.361,202.004 589.694,204.67 589.5,207.5C 588.617,210.385 587.284,213.052 585.5,215.5C 583.956,218.557 581.789,221.224 579,223.5C 577.917,226.267 576.75,228.933 575.5,231.5C 572.097,233.9 569.43,236.9 567.5,240.5C 562.167,245.5 556.833,250.5 551.5,255.5C 546.152,259.602 540.819,263.602 535.5,267.5C 533.251,268.08 531.585,269.413 530.5,271.5C 525.932,272.787 521.932,275.12 518.5,278.5C 510.709,282.968 502.709,286.968 494.5,290.5C 489.822,290.233 486.155,291.9 483.5,295.5C 476.846,298.165 470.179,300.832 463.5,303.5C 456.28,305.961 448.947,308.128 441.5,310C 438.931,310.898 436.598,312.065 434.5,313.5C 434.167,313.5 433.833,313.5 433.5,313.5C 429.714,313.32 426.381,314.32 423.5,316.5C 416.259,318.299 408.925,319.799 401.5,321C 398.691,322.093 396.024,323.26 393.5,324.5C 392.167,324.5 390.833,324.5 389.5,324.5C 381.887,324.989 374.554,326.322 367.5,328.5C 363.21,328.198 359.21,328.864 355.5,330.5C 351.21,330.198 347.21,330.864 343.5,332.5C 335.512,333.632 327.512,334.632 319.5,335.5C 311.49,335.644 303.49,335.977 295.5,336.5C 288.825,336.334 282.158,336.5 275.5,337C 273.957,339.045 274.29,340.545 276.5,341.5C 277.5,342.833 278.5,344.167 279.5,345.5C 281.167,347.833 283.167,349.833 285.5,351.5C 287.167,354.167 288.833,356.833 290.5,359.5C 291.419,362.089 293.086,364.089 295.5,365.5C 296.845,367.697 298.011,370.03 299,372.5C 300.129,374.141 301.629,375.141 303.5,375.5C 304.833,375.5 305.5,376.167 305.5,377.5C 306.419,380.089 308.086,382.089 310.5,383.5C 312.392,387.067 315.059,390.067 318.5,392.5C 319.127,393.417 319.461,394.417 319.5,395.5C 319.678,398.216 320.178,400.883 321,403.5C 322.06,403.254 323.227,403.254 324.5,403.5C 326.82,407.153 329.82,410.153 333.5,412.5C 335.074,413.984 336.407,415.651 337.5,417.5C 338.757,420.427 340.757,422.761 343.5,424.5C 343.5,424.833 343.5,425.167 343.5,425.5C 345.43,429.1 348.097,432.1 351.5,434.5C 354.382,437.23 357.049,440.23 359.5,443.5C 360.419,446.089 362.086,448.089 364.5,449.5C 366.5,451.5 368.5,453.5 370.5,455.5C 371.419,458.089 373.086,460.089 375.5,461.5C 375.833,462.5 376.5,463.167 377.5,463.5C 379.094,466.764 381.427,469.431 384.5,471.5C 387.167,473.5 389.5,475.833 391.5,478.5C 395.892,483.894 400.892,488.561 406.5,492.5C 412.325,497.825 417.991,503.325 423.5,509C 426.699,511.702 430.032,514.202 433.5,516.5C 436.228,519.719 438.728,523.052 441,526.5C 441.333,526.167 441.667,525.833 442,525.5C 443.725,526.464 445.559,527.131 447.5,527.5C 453.545,531.894 459.545,536.228 465.5,540.5C 467.843,542.672 470.51,544.339 473.5,545.5C 476.183,549.358 479.85,552.025 484.5,553.5C 485.386,554.325 485.719,555.325 485.5,556.5C 487.833,556.5 490.167,556.5 492.5,556.5C 498.098,559.032 503.765,561.365 509.5,563.5C 517.432,568.796 526.098,572.463 535.5,574.5C 536.252,576.1 537.252,577.6 538.5,579C 540.869,579.314 543.036,580.148 545,581.5C 547.532,580.111 549.699,580.611 551.5,583C 554.146,583.497 556.813,583.664 559.5,583.5C 559.5,584.5 559.5,585.5 559.5,586.5C 564.98,587.051 570.313,587.051 575.5,586.5C 575.5,587.5 575.5,588.5 575.5,589.5C 577.527,589.338 579.527,589.505 581.5,590C 581.167,590.333 580.833,590.667 580.5,591C 598.626,592.12 616.626,591.453 634.5,589C 634.167,588.667 633.833,588.333 633.5,588C 637.791,588.208 641.458,586.875 644.5,584C 648.108,583.974 651.442,583.141 654.5,581.5C 657.586,583.218 660.586,583.385 663.5,582C 662.376,581.751 661.376,581.251 660.5,580.5C 664.124,579.597 666.124,577.264 666.5,573.5C 669.39,571.957 671.057,569.624 671.5,566.5C 675.981,567.037 677.314,565.37 675.5,561.5C 677.011,560.498 678.678,559.831 680.5,559.5C 680.351,556.393 680.851,553.393 682,550.5C 683.011,549.663 684.178,549.33 685.5,549.5C 686.717,539.332 686.717,529.165 685.5,519C 686.091,515.473 686.758,511.973 687.5,508.5C 689.167,508.5 690.833,508.5 692.5,508.5C 693.845,510.697 695.011,513.03 696,515.5C 697.166,527.472 697.666,539.472 697.5,551.5C 696.294,558.199 694.96,564.865 693.5,571.5C 691.879,575.422 690.212,579.422 688.5,583.5C 686.037,585.732 684.037,588.398 682.5,591.5C 678.92,593.647 675.253,595.647 671.5,597.5C 671.5,598.5 671.5,599.5 671.5,600.5C 666.157,602.374 660.824,604.374 655.5,606.5C 655.5,607.5 655.5,608.5 655.5,609.5C 653.567,609.729 651.9,610.562 650.5,612C 640.185,613.829 629.852,615.496 619.5,617C 616.705,618.036 614.038,619.369 611.5,621C 601.419,621.921 591.419,621.421 581.5,619.5C 578.727,621.154 576.227,620.821 574,618.5C 573.228,618.645 572.561,618.978 572,619.5C 566.576,618.68 561.243,617.347 556,615.5C 550.529,614.682 545.029,614.348 539.5,614.5C 539.423,613.25 538.756,612.417 537.5,612C 534.173,611.39 530.839,610.89 527.5,610.5C 524.79,609.494 522.124,608.494 519.5,607.5C 517.786,606.262 515.786,605.595 513.5,605.5C 513.5,604.5 513.5,603.5 513.5,602.5C 508.269,600.664 502.269,598.997 495.5,597.5C 490.962,594.869 486.295,592.536 481.5,590.5C 479.772,588.123 477.439,586.456 474.5,585.5C 471.567,583.355 468.567,581.188 465.5,579C 464.663,577.989 464.33,576.822 464.5,575.5C 462.167,575.5 459.833,575.5 457.5,575.5C 455.326,575.25 453.659,574.25 452.5,572.5C 451.415,570.413 449.749,569.08 447.5,568.5C 439.19,562.849 431.19,556.849 423.5,550.5C 418.11,544.108 412.11,538.441 405.5,533.5C 401.441,528.438 396.774,524.105 391.5,520.5C 391.5,520.167 391.5,519.833 391.5,519.5C 389.167,516.5 386.5,513.833 383.5,511.5C 376.471,503.475 369.471,495.475 362.5,487.5C 361.581,484.911 359.914,482.911 357.5,481.5C 353.733,477.745 350.4,473.745 347.5,469.5C 347.291,468.078 346.791,466.745 346,465.5C 343.048,461.901 339.882,458.567 336.5,455.5C 334.924,452.074 333.091,448.74 331,445.5C 326.606,439.622 322.106,433.955 317.5,428.5C 317.589,424.677 316.089,421.677 313,419.5C 312.019,414.362 309.352,410.362 305,407.5C 304.503,405.19 304.337,402.857 304.5,400.5C 302.833,400.5 301.167,400.5 299.5,400.5C 297.388,397.247 296.055,393.58 295.5,389.5C 294.127,389.657 292.793,389.49 291.5,389C 290.968,386.537 289.634,384.703 287.5,383.5C 287.167,382.5 286.5,381.833 285.5,381.5C 284.313,377.004 281.98,373.337 278.5,370.5C 273.833,364.167 269.167,357.833 264.5,351.5C 263.664,347.809 261.664,346.809 258.5,348.5C 257.034,349.347 256.2,350.68 256,352.5C 255.667,355.833 255.333,359.167 255,362.5C 252.413,364.367 250.913,366.867 250.5,370C 251.602,372.401 251.769,374.901 251,377.5C 250.212,382.764 248.545,387.764 246,392.5C 245.667,396.5 245.333,400.5 245,404.5C 244.085,405.328 243.419,406.328 243,407.5C 242.667,406.833 242.333,406.167 242,405.5C 241.803,408.692 240.97,411.692 239.5,414.5C 241.171,420.297 240.504,425.797 237.5,431C 238.728,434.174 238.561,437.341 237,440.5C 236.667,440.167 236.333,439.833 236,439.5C 233.426,449.974 232.259,460.641 232.5,471.5C 230.253,479.209 228.92,487.209 228.5,495.5C 226.989,498.544 226.322,501.878 226.5,505.5C 225.113,507.877 224.279,510.543 224,513.5C 223.168,522.186 223.335,530.853 224.5,539.5C 225.919,540.005 226.585,541.005 226.5,542.5C 225.791,543.404 224.791,543.737 223.5,543.5C 223.281,544.675 223.614,545.675 224.5,546.5C 226.258,547.128 227.758,548.128 229,549.5C 229.308,548.692 229.808,548.025 230.5,547.5C 233.452,548.068 236.119,549.234 238.5,551C 239.444,553.719 239.777,556.552 239.5,559.5C 238.022,559.238 236.689,559.571 235.5,560.5C 233.942,562.956 231.942,564.956 229.5,566.5C 230.629,568.529 230.129,568.863 228,567.5C 227.517,568.448 227.351,569.448 227.5,570.5C 223.327,573.749 218.66,574.416 213.5,572.5C 212.057,569.923 210.39,567.59 208.5,565.5C 206.806,548.56 206.14,531.56 206.5,514.5C 206.334,509.489 206.501,504.489 207,499.5C 208.826,490.203 210.326,480.869 211.5,471.5C 213.932,465.794 215.765,459.794 217,453.5C 217.17,446.77 217.837,440.103 219,433.5C 220.049,431.893 221.549,431.227 223.5,431.5C 223.334,426.156 223.501,420.823 224,415.5C 226.463,404.837 228.797,394.17 231,383.5C 231.535,386.827 231.035,389.994 229.5,393C 231.482,392.406 233.316,391.24 235,389.5C 235.445,385.386 234.945,381.386 233.5,377.5C 235.152,370.923 236.152,364.256 236.5,357.5C 236.5,356.167 236.5,354.833 236.5,353.5C 238.638,350.913 239.471,347.913 239,344.5C 233.565,344.068 228.399,342.734 223.5,340.5C 215.635,332.651 215.635,324.651 223.5,316.5C 226.243,315.612 228.91,314.445 231.5,313C 237.19,312.311 242.857,312.478 248.5,313.5C 250.03,313.36 251.03,312.693 251.5,311.5C 254.417,308.529 256.083,304.863 256.5,300.5C 259.167,297.5 261.833,294.5 264.5,291.5C 261.885,289.363 261.885,287.363 264.5,285.5C 266.114,287.075 268.114,287.741 270.5,287.5C 270.058,291.154 269.724,294.821 269.5,298.5C 268.51,302.772 267.844,307.106 267.5,311.5C 265.755,314.885 265.255,318.552 266,322.5C 267.725,323.464 269.559,324.131 271.5,324.5C 280.833,324.5 290.167,324.5 299.5,324.5C 309.197,324.045 318.864,323.212 328.5,322C 329.328,321.085 330.328,320.419 331.5,320C 342.792,319.26 353.792,317.093 364.5,313.5C 367.518,313.665 370.518,313.498 373.5,313C 377.71,312.072 381.877,310.905 386,309.5C 387.366,309.706 388.699,310.04 390,310.5C 395.823,307.339 401.656,304.339 407.5,301.5C 410.839,301.11 414.173,300.61 417.5,300C 420.175,298.139 423.175,297.139 426.5,297C 428.233,295.811 429.9,294.644 431.5,293.5C 439.242,289.895 447.242,286.895 455.5,284.5C 458.298,283.35 460.965,282.017 463.5,280.5C 469.208,278.934 474.541,276.601 479.5,273.5C 479.953,272.542 480.619,271.708 481.5,271C 484.279,270.439 486.946,269.606 489.5,268.5C 493.988,267.424 497.655,265.091 500.5,261.5C 506.029,259.242 511.029,256.242 515.5,252.5C 519.881,251.804 523.214,249.471 525.5,245.5C 525.842,244.662 526.508,244.328 527.5,244.5C 532.412,243.108 536.412,240.274 539.5,236C 540.5,235.667 541.5,235.333 542.5,235C 545.738,231.272 548.738,227.439 551.5,223.5C 553.833,220.5 556.5,217.833 559.5,215.5C 562.471,213.557 564.471,210.891 565.5,207.5C 567.218,205.777 568.551,203.777 569.5,201.5C 570.756,201.096 571.923,200.429 573,199.5C 573.772,199.645 574.439,199.978 575,200.5C 577.599,192.324 579.432,183.99 580.5,175.5C 580.666,168.492 580.5,161.492 580,154.5C 579.768,153.263 579.268,152.263 578.5,151.5C 576.118,142.735 572.118,134.735 566.5,127.5C 562.286,124.121 558.62,120.288 555.5,116C 552.261,113.577 548.928,111.41 545.5,109.5C 544.826,107.976 543.826,106.642 542.5,105.5C 536.903,103.197 531.237,101.197 525.5,99.5C 523.901,99.7678 522.568,99.4345 521.5,98.5C 520.194,97.5326 519.527,96.1993 519.5,94.5C 514.167,94.1667 508.833,93.8333 503.5,93.5C 493.342,89.5818 482.675,87.5818 471.5,87.5C 468.833,87.5 466.167,87.5 463.5,87.5C 451.767,85.0419 439.767,84.0419 427.5,84.5C 420.341,83.8336 413.008,83.5003 405.5,83.5C 393.632,83.3629 381.965,84.0295 370.5,85.5C 363.485,86.1256 356.485,86.7922 349.5,87.5C 342.822,87.7888 336.156,88.2888 329.5,89C 328.584,89.2784 327.918,89.7784 327.5,90.5C 313.939,91.5574 300.605,93.8907 287.5,97.5C 281.609,97.0268 276.276,98.3601 271.5,101.5C 266.948,102.057 262.615,103.057 258.5,104.5C 254.353,104.126 250.686,105.126 247.5,107.5C 239.426,109.969 231.426,112.636 223.5,115.5C 214.946,117.574 206.612,120.241 198.5,123.5C 196.583,125.432 194.583,127.099 192.5,128.5C 189.865,129.811 187.531,131.478 185.5,133.5C 184.486,134.674 183.153,135.34 181.5,135.5C 178.802,135.845 176.802,137.178 175.5,139.5C 172.588,140.429 169.921,141.762 167.5,143.5C 163.927,145.464 160.927,148.131 158.5,151.5C 154.254,152.745 151.254,155.412 149.5,159.5C 146.802,159.845 144.802,161.178 143.5,163.5C 142.5,165.167 141.167,166.5 139.5,167.5C 137.413,168.585 136.08,170.251 135.5,172.5C 131.891,178.275 127.724,183.608 123,188.5C 122.392,190.154 121.892,191.821 121.5,193.5C 119.926,193.937 118.759,194.937 118,196.5C 115.269,202.532 113.436,208.865 112.5,215.5C 111.421,221.449 111.254,227.449 112,233.5C 112.566,235.723 113.4,237.723 114.5,239.5C 117.039,245.39 120.705,250.557 125.5,255C 126.793,255.49 128.127,255.657 129.5,255.5C 129.297,257.39 129.963,258.89 131.5,260C 140.819,264.326 150.153,268.659 159.5,273C 160.381,273.708 161.047,274.542 161.5,275.5C 162.15,277.435 162.483,279.435 162.5,281.5C 156.155,281.347 149.822,281.014 143.5,280.5C 138.639,278.66 133.972,276.327 129.5,273.5C 122.002,268.031 114.668,262.031 107.5,255.5C 103.939,250.729 100.606,245.729 97.5,240.5C 96.2528,238.677 95.5861,236.677 95.5,234.5C 94.2696,219.507 94.2696,204.507 95.5,189.5C 96.8497,184.757 98.1831,180.09 99.5,175.5C 102.184,171.465 104.351,167.132 106,162.5C 107.769,160.383 109.602,158.383 111.5,156.5C 113.587,155.415 114.92,153.749 115.5,151.5C 120.5,148.5 124.5,144.5 127.5,139.5C 131.456,137.212 134.789,134.212 137.5,130.5C 140.109,129.557 142.109,127.89 143.5,125.5C 145.816,124.194 148.15,122.861 150.5,121.5C 154.059,119.616 157.059,116.949 159.5,113.5C 160.873,113.657 162.207,113.49 163.5,113C 164.989,111.532 166.323,110.032 167.5,108.5C 171.219,108.436 173.886,106.769 175.5,103.5C 178.33,101.921 181.33,100.588 184.5,99.5C 185.298,99.0431 185.631,98.3764 185.5,97.5C 187.544,96.4918 189.544,95.4918 191.5,94.5C 198.923,91.9573 206.257,89.1239 213.5,86C 214.381,85.2917 215.047,84.4584 215.5,83.5C 217.302,82.5418 219.302,81.8751 221.5,81.5C 228.372,81.0473 234.372,78.714 239.5,74.5C 243.084,74.0246 246.417,73.0246 249.5,71.5C 254.54,71.0771 259.207,69.7438 263.5,67.5C 269.964,67.7143 275.964,66.381 281.5,63.5C 281.833,63.5 282.167,63.5 282.5,63.5C 298.946,60.7029 315.28,58.0363 331.5,55.5C 332.833,55.5 334.167,55.5 335.5,55.5C 338.167,55.5 340.833,55.5 343.5,55.5C 371.168,54.2233 398.835,54.2233 426.5,55.5 Z"/></g>
<g><path style="opacity:1" fill="#bec8ce" d="M 407.5,301.5 C 401.656,304.339 395.823,307.339 390,310.5C 388.699,310.04 387.366,309.706 386,309.5C 381.877,310.905 377.71,312.072 373.5,313C 370.518,313.498 367.518,313.665 364.5,313.5C 364.5,313.167 364.5,312.833 364.5,312.5C 371.066,311.277 377.399,309.61 383.5,307.5C 387.122,307.678 390.456,307.011 393.5,305.5C 397.972,303.799 402.639,302.465 407.5,301.5 Z"/></g>
<g><path style="opacity:1" fill="#5a6f74" d="M 393.5,305.5 C 390.456,307.011 387.122,307.678 383.5,307.5C 386.589,306.215 389.922,305.549 393.5,305.5 Z"/></g>
<g><path style="opacity:1" fill="#556d71" d="M 271.5,295.5 C 270.795,301.125 269.462,306.458 267.5,311.5C 267.844,307.106 268.51,302.772 269.5,298.5C 270.167,297.5 270.833,296.5 271.5,295.5 Z"/></g>
<g><path style="opacity:1" fill="#99a7ad" d="M 431.5,293.5 C 429.9,294.644 428.233,295.811 426.5,297C 423.175,297.139 420.175,298.139 417.5,300C 414.173,300.61 410.839,301.11 407.5,301.5C 415.068,297.866 423.068,295.199 431.5,293.5 Z"/></g>
<g><path style="opacity:1" fill="#96999f" d="M 273.5,285.5 C 275.099,285.232 276.432,285.566 277.5,286.5C 275.278,286.178 273.444,286.845 272,288.5C 271.503,290.81 271.337,293.143 271.5,295.5C 270.833,296.5 270.167,297.5 269.5,298.5C 269.724,294.821 270.058,291.154 270.5,287.5C 271.5,286.833 272.5,286.167 273.5,285.5 Z"/></g>
<g><path style="opacity:1" fill="#c66366" d="M 271.5,275.5 C 271.795,277.735 271.461,279.735 270.5,281.5C 269.167,281.5 267.833,281.5 266.5,281.5C 266.275,276.752 266.775,272.085 268,267.5C 268.71,266.027 269.876,265.36 271.5,265.5C 271.5,268.833 271.5,272.167 271.5,275.5 Z"/></g>
<g><path style="opacity:1" fill="#70585e" d="M 223.5,277.5 C 223.5,276.833 223.5,276.167 223.5,275.5C 223.5,273.167 223.5,270.833 223.5,268.5C 225.167,268.5 226.833,268.5 228.5,268.5C 228.664,271.187 228.497,273.854 228,276.5C 226.644,277.38 225.144,277.714 223.5,277.5 Z"/></g>
<g><path style="opacity:1" fill="#7c8b93" d="M 479.5,273.5 C 474.541,276.601 469.208,278.934 463.5,280.5C 468.292,277.108 473.626,274.775 479.5,273.5 Z"/></g>
<g><path style="opacity:1" fill="#7e878d" d="M 234.5,255.5 C 232.774,263.846 232.44,272.18 233.5,280.5C 231.564,276.285 230.897,271.619 231.5,266.5C 232.043,262.624 233.043,258.958 234.5,255.5 Z"/></g>
<g><path style="opacity:1" fill="#96a0a9" d="M 500.5,261.5 C 497.655,265.091 493.988,267.424 489.5,268.5C 492.379,264.959 496.046,262.626 500.5,261.5 Z"/></g>
<g><path style="opacity:1" fill="#5e5561" d="M 313.5,258.5 C 316.659,258.917 318.659,260.75 319.5,264C 318.571,266.909 316.571,268.075 313.5,267.5C 313.5,264.5 313.5,261.5 313.5,258.5 Z"/></g>
<g><path style="opacity:1" fill="#5c6f75" d="M 308.5,254.5 C 309.877,261.231 309.543,267.898 307.5,274.5C 307.5,272.833 307.5,271.167 307.5,269.5C 307.5,268.833 307.5,268.167 307.5,267.5C 308.485,263.366 308.818,259.032 308.5,254.5 Z"/></g>
<g><path style="opacity:1" fill="#a39094" d="M 269.5,242.5 C 270.993,243.312 271.66,244.645 271.5,246.5C 271.003,248.818 270.67,251.152 270.5,253.5C 271.5,254.167 272.5,254.833 273.5,255.5C 271.833,255.5 270.167,255.5 268.5,255.5C 268.5,256.833 268.5,258.167 268.5,259.5C 267.833,260.833 267.167,262.167 266.5,263.5C 266.756,259.731 266.423,256.064 265.5,252.5C 266.5,252.5 267.5,252.5 268.5,252.5C 269.051,249.193 269.384,245.86 269.5,242.5 Z"/></g>
<g><path style="opacity:1" fill="#6e444a" d="M 273.5,255.5 C 275.797,257.815 276.131,260.482 274.5,263.5C 272.772,261.774 270.772,260.441 268.5,259.5C 268.5,258.167 268.5,256.833 268.5,255.5C 270.167,255.5 271.833,255.5 273.5,255.5 Z"/></g>
<g><path style="opacity:1" fill="#94a0a8" d="M 525.5,245.5 C 523.214,249.471 519.881,251.804 515.5,252.5C 518.475,249.677 521.808,247.344 525.5,245.5 Z"/></g>
<g><path style="opacity:1" fill="#2d4047" d="M 291.5,227.5 C 289.833,227.5 288.167,227.5 286.5,227.5C 287.097,231.832 287.263,236.165 287,240.5C 285.782,243.558 283.949,246.224 281.5,248.5C 282,249.5 282.5,250.5 283,251.5C 291.265,252.153 299.432,252.82 307.5,253.5C 297.692,253.012 288.026,253.678 278.5,255.5C 278.149,249.895 280.316,245.562 285,242.5C 285.483,241.552 285.649,240.552 285.5,239.5C 285.325,235.459 285.158,231.459 285,227.5C 287.274,226.189 289.44,226.189 291.5,227.5 Z"/></g>
<g><path style="opacity:1" fill="#b2b4be" d="M 285.5,239.5 C 285.649,240.552 285.483,241.552 285,242.5C 280.316,245.562 278.149,249.895 278.5,255.5C 288.026,253.678 297.692,253.012 307.5,253.5C 308.167,253.5 308.5,253.833 308.5,254.5C 308.818,259.032 308.485,263.366 307.5,267.5C 307.797,263.233 307.464,259.066 306.5,255C 296.779,254.459 287.112,254.959 277.5,256.5C 277.233,258.965 276.566,261.299 275.5,263.5C 275.167,263.5 274.833,263.5 274.5,263.5C 276.131,260.482 275.797,257.815 273.5,255.5C 272.5,254.833 271.5,254.167 270.5,253.5C 273.333,251.032 275.333,247.865 276.5,244C 279.414,242.216 282.414,240.716 285.5,239.5 Z"/></g>
<g><path style="opacity:1" fill="#63757c" d="M 245.5,240.5 C 249.748,240.624 253.082,242.29 255.5,245.5C 251.849,244.341 248.515,242.674 245.5,240.5 Z"/></g>
<g><path style="opacity:1" fill="#5d7177" d="M 245.5,240.5 C 243.053,240.615 241.053,241.615 239.5,243.5C 240.336,239.809 242.336,238.809 245.5,240.5 Z"/></g>
<g><path style="opacity:1" fill="#93a1a9" d="M 273.5,228.5 C 270.45,232.62 269.117,237.287 269.5,242.5C 267.973,238.075 268.473,233.742 271,229.5C 271.671,228.748 272.504,228.414 273.5,228.5 Z"/></g>
<g><path style="opacity:1" fill="#9fabb2" d="M 551.5,223.5 C 548.738,227.439 545.738,231.272 542.5,235C 541.5,235.333 540.5,235.667 539.5,236C 536.412,240.274 532.412,243.108 527.5,244.5C 535.426,237.584 543.426,230.584 551.5,223.5 Z"/></g>
<g><path style="opacity:1" fill="#41575d" d="M 114.5,211.5 C 113.387,220.848 113.387,230.182 114.5,239.5C 113.4,237.723 112.566,235.723 112,233.5C 111.254,227.449 111.421,221.449 112.5,215.5C 113.167,214.167 113.833,212.833 114.5,211.5 Z"/></g>
<g><path style="opacity:1" fill="#465b5f" d="M 315.5,223.5 C 313.887,226.74 311.22,228.24 307.5,228C 301.984,228.817 296.65,228.651 291.5,227.5C 299.938,228.41 307.938,227.077 315.5,223.5 Z"/></g>
<g><path style="opacity:1" fill="#7b888e" d="M 271.5,222.5 C 272.5,222.5 273.5,222.5 274.5,222.5C 274.795,224.735 274.461,226.735 273.5,228.5C 273.741,226.114 273.075,224.114 271.5,222.5 Z"/></g>
<g><path style="opacity:1" fill="#40565a" d="M 322.5,215.5 C 321.699,217.042 321.366,218.708 321.5,220.5C 320.5,220.5 319.5,220.5 318.5,220.5C 318.5,221.5 318.5,222.5 318.5,223.5C 317.5,223.5 316.5,223.5 315.5,223.5C 317.519,220.486 319.852,217.82 322.5,215.5 Z"/></g>
<g><path style="opacity:1" fill="#728389" d="M 565.5,207.5 C 564.471,210.891 562.471,213.557 559.5,215.5C 561.037,212.398 563.037,209.732 565.5,207.5 Z"/></g>
<g><path style="opacity:1" fill="#4f6268" d="M 326.5,193.5 C 327.846,200.056 327.679,206.722 326,213.5C 325.292,214.381 324.458,215.047 323.5,215.5C 326.103,208.423 327.103,201.09 326.5,193.5 Z"/></g>
<g><path style="opacity:1" fill="#5f6e78" d="M 569.5,201.5 C 568.551,203.777 567.218,205.777 565.5,207.5C 565.622,204.708 566.956,202.708 569.5,201.5 Z"/></g>
<g><path style="opacity:1" fill="#6e7f85" d="M 121.5,193.5 C 119.655,199.831 117.321,205.831 114.5,211.5C 113.833,212.833 113.167,214.167 112.5,215.5C 113.436,208.865 115.269,202.532 118,196.5C 118.759,194.937 119.926,193.937 121.5,193.5 Z"/></g>
<g><path style="opacity:1" fill="#e2e3e9" d="M 324.5,188.5 C 325.537,189.93 326.204,191.597 326.5,193.5C 327.103,201.09 326.103,208.423 323.5,215.5C 323.167,215.5 322.833,215.5 322.5,215.5C 319.852,217.82 317.519,220.486 315.5,223.5C 307.938,227.077 299.938,228.41 291.5,227.5C 289.44,226.189 287.274,226.189 285,227.5C 285.158,231.459 285.325,235.459 285.5,239.5C 282.414,240.716 279.414,242.216 276.5,244C 275.333,247.865 273.333,251.032 270.5,253.5C 270.67,251.152 271.003,248.818 271.5,246.5C 271.66,244.645 270.993,243.312 269.5,242.5C 269.117,237.287 270.45,232.62 273.5,228.5C 274.461,226.735 274.795,224.735 274.5,222.5C 273.5,222.5 272.5,222.5 271.5,222.5C 265.837,222.665 261.17,220.665 257.5,216.5C 256.909,215.849 256.243,215.182 255.5,214.5C 255.833,214.167 256.167,213.833 256.5,213.5C 259.704,215.393 263.037,216.56 266.5,217C 264.178,215.076 261.511,213.743 258.5,213C 257.929,211.795 257.262,210.628 256.5,209.5C 255.38,210.833 254.047,211.333 252.5,211C 251.167,210 251.167,209 252.5,208C 251,207.167 249.833,206 249,204.5C 245.891,195.42 247.558,187.42 254,180.5C 254.494,178.866 254.66,177.199 254.5,175.5C 256.346,175.222 257.68,175.889 258.5,177.5C 258.634,180.467 257.634,183.301 255.5,186C 255.312,191.388 255.646,196.888 256.5,202.5C 264.182,208.502 272.182,209.002 280.5,204C 281.211,202.745 282.044,201.579 283,200.5C 283.333,200.833 283.667,201.167 284,201.5C 283.725,197.517 284.725,197.517 287,201.5C 285.788,209.782 289.288,213.782 297.5,213.5C 304.561,214.703 309.894,212.37 313.5,206.5C 314.825,202.724 315.491,198.557 315.5,194C 315.333,189.833 315.167,185.667 315,181.5C 314.066,180.142 313.232,178.808 312.5,177.5C 311.483,170.195 311.317,162.861 312,155.5C 312.423,154.044 313.256,153.544 314.5,154C 315.167,155.333 315.833,156.667 316.5,158C 317.314,165.144 317.314,172.477 316.5,180C 318.654,183.321 321.321,186.154 324.5,188.5 Z"/></g>
<g><path style="opacity:1" fill="#849499" d="M 313.5,206.5 C 309.894,212.37 304.561,214.703 297.5,213.5C 297.5,213.167 297.5,212.833 297.5,212.5C 300.187,212.664 302.854,212.497 305.5,212C 308.047,209.946 310.714,208.113 313.5,206.5 Z"/></g>
<g><path style="opacity:1" fill="#bec9d0" d="M 579.5,175.5 C 579.833,175.5 580.167,175.5 580.5,175.5C 579.432,183.99 577.599,192.324 575,200.5C 574.439,199.978 573.772,199.645 573,199.5C 571.923,200.429 570.756,201.096 569.5,201.5C 570.547,197.739 572.381,194.406 575,191.5C 577.457,186.305 578.957,180.972 579.5,175.5 Z"/></g>
<g><path style="opacity:1" fill="#78878e" d="M 292.5,191.5 C 290.583,193.775 289.583,196.442 289.5,199.5C 289.706,202.336 290.373,205.002 291.5,207.5C 288.577,203.757 287.743,199.424 289,194.5C 290.039,193.29 291.206,192.29 292.5,191.5 Z"/></g>
<g><path style="opacity:1" fill="#697a80" d="M 251.5,175.5 C 249.931,179.585 248.097,183.585 246,187.5C 245.501,192.155 245.334,196.821 245.5,201.5C 243.364,193.085 244.531,185.085 249,177.5C 249.708,176.619 250.542,175.953 251.5,175.5 Z"/></g>
<g><path style="opacity:1" fill="#aebcc2" d="M 312.5,177.5 C 313.232,178.808 314.066,180.142 315,181.5C 315.167,185.667 315.333,189.833 315.5,194C 315.491,198.557 314.825,202.724 313.5,206.5C 314.997,197.976 314.663,189.643 312.5,181.5C 312.5,180.167 312.5,178.833 312.5,177.5 Z"/></g>
<g><path style="opacity:1" fill="#08272d" d="M 312.5,181.5 C 314.663,189.643 314.997,197.976 313.5,206.5C 310.714,208.113 308.047,209.946 305.5,212C 302.854,212.497 300.187,212.664 297.5,212.5C 295.544,210.886 293.544,209.219 291.5,207.5C 290.373,205.002 289.706,202.336 289.5,199.5C 289.583,196.442 290.583,193.775 292.5,191.5C 295.261,190.407 296.927,188.407 297.5,185.5C 299.522,178.144 301.355,170.477 303,162.5C 303.777,165.429 303.61,168.263 302.5,171C 302.817,177.325 304.317,177.825 307,172.5C 308.263,175.912 310.096,178.912 312.5,181.5 Z"/></g>
<g><path style="opacity:1" fill="#3f545b" d="M 319.5,156.5 C 319.737,165.588 320.737,174.588 322.5,183.5C 320.599,179.163 319.432,174.497 319,169.5C 318.186,164.98 318.353,160.646 319.5,156.5 Z"/></g>
<g><path style="opacity:1" fill="#68797d" d="M 285.5,167.5 C 285.5,168.167 285.5,168.833 285.5,169.5C 284.687,171.261 283.687,172.928 282.5,174.5C 282.166,171.509 283.166,169.176 285.5,167.5 Z"/></g>
<g><path style="opacity:1" fill="#64747b" d="M 139.5,167.5 C 138.92,169.749 137.587,171.415 135.5,172.5C 136.08,170.251 137.413,168.585 139.5,167.5 Z"/></g>
<g><path style="opacity:1" fill="#78868e" d="M 276.5,161.5 C 275.167,163.5 273.5,165.167 271.5,166.5C 272.167,163.833 273.833,162.167 276.5,161.5 Z"/></g>
<g><path style="opacity:1" fill="#a0adb4" d="M 301.5,137.5 C 300.606,153.558 299.273,169.558 297.5,185.5C 296.927,188.407 295.261,190.407 292.5,191.5C 293.167,189.833 293.833,188.167 294.5,186.5C 296.403,169.979 298.736,153.646 301.5,137.5 Z"/></g>
<g><path style="opacity:1" fill="#e3e4e9" d="M 301.5,135.5 C 301.5,136.167 301.5,136.833 301.5,137.5C 298.736,153.646 296.403,169.979 294.5,186.5C 293.5,186.5 292.5,186.5 291.5,186.5C 291.071,191.466 288.904,192.466 285,189.5C 284.704,186.294 284.204,183.128 283.5,180C 284.489,176.553 285.156,173.053 285.5,169.5C 285.5,168.833 285.5,168.167 285.5,167.5C 288.252,163.931 290.252,159.931 291.5,155.5C 292.598,152.247 293.264,148.914 293.5,145.5C 294.807,141.191 296.14,136.858 297.5,132.5C 299.41,131.025 300.576,129.025 301,126.5C 301.498,129.482 301.665,132.482 301.5,135.5 Z"/></g>
<g><path style="opacity:1" fill="#64757a" d="M 149.5,159.5 C 147.853,161.326 145.853,162.66 143.5,163.5C 144.802,161.178 146.802,159.845 149.5,159.5 Z"/></g>
<g><path style="opacity:1" fill="#53656c" d="M 578.5,151.5 C 579.268,152.263 579.768,153.263 580,154.5C 580.5,161.492 580.666,168.492 580.5,175.5C 580.167,175.5 579.833,175.5 579.5,175.5C 579.656,167.471 579.323,159.471 578.5,151.5 Z"/></g>
<g><path style="opacity:1" fill="#183037" d="M 303.5,124.5 C 303.609,135.75 303.609,146.916 303.5,158C 304.204,161.128 304.704,164.294 305,167.5C 308.361,159.877 310.528,151.877 311.5,143.5C 312.833,143.5 314.167,143.5 315.5,143.5C 310.029,152.402 308.195,162.068 310,172.5C 310.374,174.491 311.207,176.158 312.5,177.5C 312.5,178.833 312.5,180.167 312.5,181.5C 310.096,178.912 308.263,175.912 307,172.5C 304.317,177.825 302.817,177.325 302.5,171C 303.61,168.263 303.777,165.429 303,162.5C 301.355,170.477 299.522,178.144 297.5,185.5C 299.273,169.558 300.606,153.558 301.5,137.5C 301.5,136.833 301.5,136.167 301.5,135.5C 302.167,131.833 302.833,128.167 303.5,124.5 Z"/></g>
<g><path style="opacity:1" fill="#c3cdd3" d="M 322.5,135.5 C 323.376,135.369 324.043,135.702 324.5,136.5C 322.98,138.662 321.98,140.995 321.5,143.5C 320.125,147.698 319.458,152.031 319.5,156.5C 318.353,160.646 318.186,164.98 319,169.5C 319.432,174.497 320.599,179.163 322.5,183.5C 324.213,184.635 324.88,186.302 324.5,188.5C 321.321,186.154 318.654,183.321 316.5,180C 317.314,172.477 317.314,165.144 316.5,158C 315.833,156.667 315.167,155.333 314.5,154C 313.256,153.544 312.423,154.044 312,155.5C 311.317,162.861 311.483,170.195 312.5,177.5C 311.207,176.158 310.374,174.491 310,172.5C 308.195,162.068 310.029,152.402 315.5,143.5C 315.351,142.448 315.517,141.448 316,140.5C 318.184,138.712 320.351,137.046 322.5,135.5 Z"/></g>
<g><path style="opacity:1" fill="#b3bcc2" d="M 293.5,145.5 C 293.264,148.914 292.598,152.247 291.5,155.5C 290.252,159.931 288.252,163.931 285.5,167.5C 287.59,159.891 290.257,152.558 293.5,145.5 Z"/></g>
<g><path style="opacity:1" fill="#5c6b70" d="M 158.5,151.5 C 155.486,154.246 152.486,156.913 149.5,159.5C 151.254,155.412 154.254,152.745 158.5,151.5 Z"/></g>
<g><path style="opacity:1" fill="#cfd5dd" d="M 278.5,123.5 C 279.234,124.708 279.567,126.041 279.5,127.5C 280.833,136.5 280.833,145.5 279.5,154.5C 277.935,156.509 276.935,158.843 276.5,161.5C 273.833,162.167 272.167,163.833 271.5,166.5C 267.247,170.659 264.247,175.659 262.5,181.5C 257.787,185.202 256.454,189.869 258.5,195.5C 258.584,200.25 260.917,203.25 265.5,204.5C 268.976,205.643 272.642,205.81 276.5,205C 278.588,203.7 279.921,201.867 280.5,199.5C 281.926,197.321 282.592,194.821 282.5,192C 279.995,186.068 279.995,180.235 282.5,174.5C 283.687,172.928 284.687,171.261 285.5,169.5C 285.156,173.053 284.489,176.553 283.5,180C 284.204,183.128 284.704,186.294 285,189.5C 288.904,192.466 291.071,191.466 291.5,186.5C 292.5,186.5 293.5,186.5 294.5,186.5C 293.833,188.167 293.167,189.833 292.5,191.5C 291.206,192.29 290.039,193.29 289,194.5C 287.743,199.424 288.577,203.757 291.5,207.5C 293.544,209.219 295.544,210.886 297.5,212.5C 297.5,212.833 297.5,213.167 297.5,213.5C 289.288,213.782 285.788,209.782 287,201.5C 284.725,197.517 283.725,197.517 284,201.5C 283.667,201.167 283.333,200.833 283,200.5C 282.044,201.579 281.211,202.745 280.5,204C 272.182,209.002 264.182,208.502 256.5,202.5C 255.646,196.888 255.312,191.388 255.5,186C 257.634,183.301 258.634,180.467 258.5,177.5C 257.68,175.889 256.346,175.222 254.5,175.5C 254.66,177.199 254.494,178.866 254,180.5C 247.558,187.42 245.891,195.42 249,204.5C 249.833,206 251,207.167 252.5,208C 251.167,209 251.167,210 252.5,211C 254.047,211.333 255.38,210.833 256.5,209.5C 257.262,210.628 257.929,211.795 258.5,213C 261.511,213.743 264.178,215.076 266.5,217C 263.037,216.56 259.704,215.393 256.5,213.5C 256.167,213.833 255.833,214.167 255.5,214.5C 256.243,215.182 256.909,215.849 257.5,216.5C 256.448,216.649 255.448,216.483 254.5,216C 250.097,212.025 247.097,207.191 245.5,201.5C 245.334,196.821 245.501,192.155 246,187.5C 248.097,183.585 249.931,179.585 251.5,175.5C 255.119,171.215 259.119,167.215 263.5,163.5C 267.357,158.644 270.357,153.311 272.5,147.5C 274.129,145.142 275.295,142.476 276,139.5C 276.333,133.833 276.667,128.167 277,122.5C 277.383,123.056 277.883,123.389 278.5,123.5 Z"/></g>
<g><path style="opacity:1" fill="#47565e" d="M 280.5,199.5 C 279.921,201.867 278.588,203.7 276.5,205C 272.642,205.81 268.976,205.643 265.5,204.5C 268.85,204.665 272.183,204.498 275.5,204C 277.083,202.242 278.75,200.742 280.5,199.5 Z"/></g>
<g><path style="opacity:1" fill="#58696d" d="M 262.5,181.5 C 261.62,184.262 260.454,186.929 259,189.5C 258.505,191.473 258.338,193.473 258.5,195.5C 256.454,189.869 257.787,185.202 262.5,181.5 Z"/></g>
<g><path style="opacity:1" fill="#607178" d="M 167.5,143.5 C 167.489,145.017 166.823,146.184 165.5,147C 163.449,149.02 161.116,150.52 158.5,151.5C 160.927,148.131 163.927,145.464 167.5,143.5 Z"/></g>
<g><path style="opacity:1" fill="#809097" d="M 278.5,123.5 C 277.883,123.389 277.383,123.056 277,122.5C 276.667,128.167 276.333,133.833 276,139.5C 275.295,142.476 274.129,145.142 272.5,147.5C 274.483,138.967 275.483,130.3 275.5,121.5C 277.179,121.285 278.179,121.952 278.5,123.5 Z"/></g>
<g><path style="opacity:1" fill="#85939b" d="M 279.5,127.5 C 280.222,127.918 280.722,128.584 281,129.5C 282.355,135.785 282.689,142.118 282,148.5C 281.434,150.723 280.6,152.723 279.5,154.5C 280.833,145.5 280.833,136.5 279.5,127.5 Z"/></g>
<g><path style="opacity:1" fill="#5c6d75" d="M 181.5,135.5 C 179.966,137.369 177.966,138.702 175.5,139.5C 176.802,137.178 178.802,135.845 181.5,135.5 Z"/></g>
<g><path style="opacity:1" fill="#738d93" d="M 321.5,143.5 C 321.98,140.995 322.98,138.662 324.5,136.5C 324.043,135.702 323.376,135.369 322.5,135.5C 323.048,133.468 324.381,132.468 326.5,132.5C 326.47,137.022 324.803,140.689 321.5,143.5 Z"/></g>
<g><path style="opacity:1" fill="#3f5459" d="M 195.5,127.5 C 193.141,131.017 189.808,133.017 185.5,133.5C 187.531,131.478 189.865,129.811 192.5,128.5C 193.391,127.89 194.391,127.557 195.5,127.5 Z"/></g>
<g><path style="opacity:1" fill="#8aa0a9" d="M 303.5,124.5 C 302.833,128.167 302.167,131.833 301.5,135.5C 301.665,132.482 301.498,129.482 301,126.5C 300.576,129.025 299.41,131.025 297.5,132.5C 299.35,128.432 300.35,124.099 300.5,119.5C 301.5,119.5 302.5,119.5 303.5,119.5C 303.5,121.167 303.5,122.833 303.5,124.5 Z"/></g>
<g><path style="opacity:1" fill="#b1bcc3" d="M 223.5,115.5 C 219.722,117.892 215.722,120.059 211.5,122C 205.784,122.923 200.451,124.757 195.5,127.5C 194.391,127.557 193.391,127.89 192.5,128.5C 194.583,127.099 196.583,125.432 198.5,123.5C 206.612,120.241 214.946,117.574 223.5,115.5 Z"/></g>
<g><path style="opacity:1" fill="#4b5c63" d="M 247.5,107.5 C 248.833,107.5 250.167,107.5 251.5,107.5C 242.401,110.752 233.068,113.419 223.5,115.5C 231.426,112.636 239.426,109.969 247.5,107.5 Z"/></g>
<g><path style="opacity:1" fill="#818e96" d="M 258.5,104.5 C 256.025,105.131 253.691,106.131 251.5,107.5C 250.167,107.5 248.833,107.5 247.5,107.5C 250.686,105.126 254.353,104.126 258.5,104.5 Z"/></g>
<g><path style="opacity:1" fill="#a5b4bb" d="M 525.5,99.5 C 531.237,101.197 536.903,103.197 542.5,105.5C 543.826,106.642 544.826,107.976 545.5,109.5C 538.351,107.054 531.685,103.72 525.5,99.5 Z"/></g>
<g><path style="opacity:1" fill="#74838a" d="M 287.5,97.5 C 282.259,98.8103 276.926,100.144 271.5,101.5C 276.276,98.3601 281.609,97.0268 287.5,97.5 Z"/></g>
<g><path style="opacity:1" fill="#abb6be" d="M 503.5,93.5 C 508.833,93.8333 514.167,94.1667 519.5,94.5C 519.527,96.1993 520.194,97.5326 521.5,98.5C 515.292,97.203 509.292,95.5364 503.5,93.5 Z"/></g>
<g><path style="opacity:1" fill="#44575e" d="M 479.5,89.5 C 485.097,89.7703 490.43,90.7703 495.5,92.5C 489.863,92.4147 484.529,91.4147 479.5,89.5 Z"/></g>
<g><path style="opacity:1" fill="#94a2a9" d="M 471.5,87.5 C 482.675,87.5818 493.342,89.5818 503.5,93.5C 500.763,93.5987 498.096,93.2653 495.5,92.5C 490.43,90.7703 485.097,89.7703 479.5,89.5C 476.572,89.4349 473.905,88.7682 471.5,87.5 Z"/></g>
<g><path style="opacity:1" fill="#76868c" d="M 349.5,87.5 C 342.376,89.0452 335.043,90.0452 327.5,90.5C 327.918,89.7784 328.584,89.2784 329.5,89C 336.156,88.2888 342.822,87.7888 349.5,87.5 Z"/></g>
<g><path style="opacity:1" fill="#5b6d74" d="M 391.5,85.5 C 403.322,84.5049 415.322,84.1716 427.5,84.5C 439.767,84.0419 451.767,85.0419 463.5,87.5C 439.535,85.834 415.535,85.1674 391.5,85.5 Z"/></g>
<g><path style="opacity:1" fill="#94a1a7" d="M 427.5,84.5 C 415.322,84.1716 403.322,84.5049 391.5,85.5C 384.5,85.5 377.5,85.5 370.5,85.5C 381.965,84.0295 393.632,83.3629 405.5,83.5C 413.008,83.5003 420.341,83.8336 427.5,84.5 Z"/></g>
<g><path style="opacity:1" fill="#9eabb2" d="M 364.5,312.5 C 364.5,312.833 364.5,313.167 364.5,313.5C 353.792,317.093 342.792,319.26 331.5,320C 330.328,320.419 329.328,321.085 328.5,322C 318.864,323.212 309.197,324.045 299.5,324.5C 321.112,320.941 342.778,316.941 364.5,312.5 Z"/></g>
<g><path style="opacity:1" fill="#52666b" d="M 423.5,316.5 C 413.823,320.011 403.823,322.678 393.5,324.5C 396.024,323.26 398.691,322.093 401.5,321C 408.925,319.799 416.259,318.299 423.5,316.5 Z"/></g>
<g><path style="opacity:1" fill="#6c7d81" d="M 267.5,311.5 C 267.5,315.167 267.5,318.833 267.5,322.5C 269.483,322.157 270.817,322.824 271.5,324.5C 269.559,324.131 267.725,323.464 266,322.5C 265.255,318.552 265.755,314.885 267.5,311.5 Z"/></g>
<g><path style="opacity:1" fill="#809097" d="M 389.5,324.5 C 382.392,326.472 375.059,327.805 367.5,328.5C 374.554,326.322 381.887,324.989 389.5,324.5 Z"/></g>
<g><path style="opacity:1" fill="#6e7d85" d="M 367.5,328.5 C 363.817,330.25 359.817,330.917 355.5,330.5C 359.21,328.864 363.21,328.198 367.5,328.5 Z"/></g>
<g><path style="opacity:1" fill="#4f646b" d="M 355.5,330.5 C 351.79,332.136 347.79,332.802 343.5,332.5C 347.21,330.864 351.21,330.198 355.5,330.5 Z"/></g>
<g><path style="opacity:1" fill="#495e64" d="M 319.5,335.5 C 311.743,337.269 303.743,337.935 295.5,337.5C 295.5,337.167 295.5,336.833 295.5,336.5C 303.49,335.977 311.49,335.644 319.5,335.5 Z"/></g>
<g><path style="opacity:1" fill="#a0abb2" d="M 295.5,336.5 C 295.5,336.833 295.5,337.167 295.5,337.5C 289.489,337.801 283.489,338.301 277.5,339C 276.748,339.671 276.414,340.504 276.5,341.5C 274.29,340.545 273.957,339.045 275.5,337C 282.158,336.5 288.825,336.334 295.5,336.5 Z"/></g>
<g><path style="opacity:1" fill="#53676e" d="M 279.5,345.5 C 282.5,346.5 284.5,348.5 285.5,351.5C 283.167,349.833 281.167,347.833 279.5,345.5 Z"/></g>
<g><path style="opacity:1" fill="#45565e" d="M 223.5,340.5 C 228.399,342.734 233.565,344.068 239,344.5C 239.471,347.913 238.638,350.913 236.5,353.5C 236.833,350.833 237.167,348.167 237.5,345.5C 231.646,346.695 226.98,345.028 223.5,340.5 Z"/></g>
<g><path style="opacity:1" fill="#616f75" d="M 264.5,351.5 C 263.185,350.524 261.852,349.524 260.5,348.5C 259.34,350.875 258.34,353.208 257.5,355.5C 257.448,353.097 257.781,350.764 258.5,348.5C 261.664,346.809 263.664,347.809 264.5,351.5 Z"/></g>
<g><path style="opacity:1" fill="#34494e" d="M 236.5,353.5 C 236.5,354.833 236.5,356.167 236.5,357.5C 234.189,363.416 232.189,369.416 230.5,375.5C 231.29,367.656 233.29,360.322 236.5,353.5 Z"/></g>
<g><path style="opacity:1" fill="#809097" d="M 290.5,359.5 C 292.914,360.911 294.581,362.911 295.5,365.5C 293.086,364.089 291.419,362.089 290.5,359.5 Z"/></g>
<g><path style="opacity:1" fill="#91a1a6" d="M 295.5,365.5 C 299.338,367.994 302.005,371.327 303.5,375.5C 301.629,375.141 300.129,374.141 299,372.5C 298.011,370.03 296.845,367.697 295.5,365.5 Z"/></g>
<g><path style="opacity:1" fill="#8b989f" d="M 278.5,370.5 C 281.98,373.337 284.313,377.004 285.5,381.5C 282.432,378.378 280.098,374.711 278.5,370.5 Z"/></g>
<g><path style="opacity:1" fill="#61737a" d="M 305.5,377.5 C 307.914,378.911 309.581,380.911 310.5,383.5C 308.086,382.089 306.419,380.089 305.5,377.5 Z"/></g>
<g><path style="opacity:1" fill="#c9d0d8" d="M 236.5,357.5 C 236.152,364.256 235.152,370.923 233.5,377.5C 234.945,381.386 235.445,385.386 235,389.5C 233.316,391.24 231.482,392.406 229.5,393C 231.035,389.994 231.535,386.827 231,383.5C 228.797,394.17 226.463,404.837 224,415.5C 223.501,420.823 223.334,426.156 223.5,431.5C 221.549,431.227 220.049,431.893 219,433.5C 217.837,440.103 217.17,446.77 217,453.5C 215.765,459.794 213.932,465.794 211.5,471.5C 212.794,455.099 215.461,439.099 219.5,423.5C 220.768,421.095 221.435,418.428 221.5,415.5C 222.793,414.158 223.626,412.491 224,410.5C 224.835,404.823 225.669,399.156 226.5,393.5C 227.024,387.287 228.357,381.287 230.5,375.5C 232.189,369.416 234.189,363.416 236.5,357.5 Z"/></g>
<g><path style="opacity:1" fill="#384d51" d="M 252.5,379.5 C 252.579,383.202 252.246,386.868 251.5,390.5C 249.351,394.322 248.017,398.322 247.5,402.5C 248.079,394.527 249.745,386.861 252.5,379.5 Z"/></g>
<g><path style="opacity:1" fill="#abb8be" d="M 319.5,395.5 C 324.87,400.566 329.537,406.232 333.5,412.5C 329.82,410.153 326.82,407.153 324.5,403.5C 323.227,403.254 322.06,403.254 321,403.5C 320.178,400.883 319.678,398.216 319.5,395.5 Z"/></g>
<g><path style="opacity:1" fill="#b5bfc5" d="M 287.5,383.5 C 289.634,384.703 290.968,386.537 291.5,389C 292.793,389.49 294.127,389.657 295.5,389.5C 296.055,393.58 297.388,397.247 299.5,400.5C 301.167,400.5 302.833,400.5 304.5,400.5C 304.337,402.857 304.503,405.19 305,407.5C 309.352,410.362 312.019,414.362 313,419.5C 316.089,421.677 317.589,424.677 317.5,428.5C 316.309,426.673 314.975,425.007 313.5,423.5C 311.407,420.518 309.907,417.184 309,413.5C 307.406,412.284 305.906,410.951 304.5,409.5C 302.822,406.734 301.156,404.067 299.5,401.5C 297.065,396.985 293.898,392.985 290,389.5C 289.345,387.372 288.511,385.372 287.5,383.5 Z"/></g>
<g><path style="opacity:1" fill="#86959c" d="M 226.5,393.5 C 225.669,399.156 224.835,404.823 224,410.5C 223.626,412.491 222.793,414.158 221.5,415.5C 221.975,407.777 223.641,400.444 226.5,393.5 Z"/></g>
<g><path style="opacity:1" fill="#708289" d="M 337.5,417.5 C 340.243,419.239 342.243,421.573 343.5,424.5C 340.757,422.761 338.757,420.427 337.5,417.5 Z"/></g>
<g><path style="opacity:1" fill="#354a4f" d="M 299.5,401.5 C 301.156,404.067 302.822,406.734 304.5,409.5C 305.906,410.951 307.406,412.284 309,413.5C 309.907,417.184 311.407,420.518 313.5,423.5C 310.284,421.427 308.284,418.427 307.5,414.5C 306.349,413.269 305.183,413.269 304,414.5C 302.95,409.943 301.45,405.609 299.5,401.5 Z"/></g>
<g><path style="opacity:1" fill="#5d6c76" d="M 221.5,415.5 C 221.435,418.428 220.768,421.095 219.5,423.5C 219.294,420.505 219.96,417.838 221.5,415.5 Z"/></g>
<g><path style="opacity:1" fill="#8a989e" d="M 343.5,425.5 C 346.903,427.9 349.57,430.9 351.5,434.5C 348.097,432.1 345.43,429.1 343.5,425.5 Z"/></g>
<g><path style="opacity:1" fill="#bfc9cf" d="M 258.5,348.5 C 257.781,350.764 257.448,353.097 257.5,355.5C 255.199,363.288 253.532,371.288 252.5,379.5C 249.745,386.861 248.079,394.527 247.5,402.5C 243.732,414.575 241.065,426.908 239.5,439.5C 236.141,445.977 234.807,452.977 235.5,460.5C 234.097,464.066 233.097,467.733 232.5,471.5C 232.259,460.641 233.426,449.974 236,439.5C 236.333,439.833 236.667,440.167 237,440.5C 238.561,437.341 238.728,434.174 237.5,431C 240.504,425.797 241.171,420.297 239.5,414.5C 240.97,411.692 241.803,408.692 242,405.5C 242.333,406.167 242.667,406.833 243,407.5C 243.419,406.328 244.085,405.328 245,404.5C 245.333,400.5 245.667,396.5 246,392.5C 248.545,387.764 250.212,382.764 251,377.5C 251.769,374.901 251.602,372.401 250.5,370C 250.913,366.867 252.413,364.367 255,362.5C 255.333,359.167 255.667,355.833 256,352.5C 256.2,350.68 257.034,349.347 258.5,348.5 Z"/></g>
<g><path style="opacity:1" fill="#70848b" d="M 359.5,443.5 C 361.914,444.911 363.581,446.911 364.5,449.5C 362.086,448.089 360.419,446.089 359.5,443.5 Z"/></g>
<g><path style="opacity:1" fill="#56696f" d="M 239.5,439.5 C 238.078,446.599 236.745,453.599 235.5,460.5C 234.807,452.977 236.141,445.977 239.5,439.5 Z"/></g>
<g><path style="opacity:1" fill="#56676d" d="M 370.5,455.5 C 373.107,456.712 374.774,458.712 375.5,461.5C 373.086,460.089 371.419,458.089 370.5,455.5 Z"/></g>
<g><path style="opacity:1" fill="#2e454b" d="M 336.5,455.5 C 339.882,458.567 343.048,461.901 346,465.5C 346.791,466.745 347.291,468.078 347.5,469.5C 346.504,469.586 345.671,469.252 345,468.5C 344.222,466.416 343.055,464.583 341.5,463C 339.905,463.617 338.572,463.284 337.5,462C 338.022,461.439 338.355,460.772 338.5,460C 337.586,458.594 336.92,457.094 336.5,455.5 Z"/></g>
<g><path style="opacity:1" fill="#75868d" d="M 377.5,463.5 C 380.573,465.569 382.906,468.236 384.5,471.5C 381.427,469.431 379.094,466.764 377.5,463.5 Z"/></g>
<g><path style="opacity:1" fill="#5c6d74" d="M 391.5,478.5 C 397.108,482.439 402.108,487.106 406.5,492.5C 400.892,488.561 395.892,483.894 391.5,478.5 Z"/></g>
<g><path style="opacity:1" fill="#62737b" d="M 357.5,481.5 C 359.914,482.911 361.581,484.911 362.5,487.5C 360.086,486.089 358.419,484.089 357.5,481.5 Z"/></g>
<g><path style="opacity:1" fill="#8e9da5" d="M 232.5,471.5 C 231.813,479.753 230.48,487.753 228.5,495.5C 228.92,487.209 230.253,479.209 232.5,471.5 Z"/></g>
<g><path style="opacity:1" fill="#71828a" d="M 211.5,471.5 C 210.326,480.869 208.826,490.203 207,499.5C 206.501,504.489 206.334,509.489 206.5,514.5C 206.167,514.5 205.833,514.5 205.5,514.5C 204.936,499.687 206.936,485.353 211.5,471.5 Z"/></g>
<g><path style="opacity:1" fill="#5f6e75" d="M 228.5,495.5 C 228.72,500.1 228.054,504.433 226.5,508.5C 226.5,507.5 226.5,506.5 226.5,505.5C 226.322,501.878 226.989,498.544 228.5,495.5 Z"/></g>
<g><path style="opacity:1" fill="#55666d" d="M 271.5,500.5 C 270.181,507.464 267.514,513.797 263.5,519.5C 265.398,512.795 268.065,506.462 271.5,500.5 Z"/></g>
<g><path style="opacity:1" fill="#61737a" d="M 383.5,511.5 C 386.5,513.833 389.167,516.5 391.5,519.5C 387.833,517.833 385.167,515.167 383.5,511.5 Z"/></g>
<g><path style="opacity:1" fill="#60747a" d="M 689.5,506.5 C 687.278,506.178 685.444,506.845 684,508.5C 683.501,512.152 683.335,515.818 683.5,519.5C 682.355,515.689 682.188,511.689 683,507.5C 685.016,505.392 687.183,505.058 689.5,506.5 Z"/></g>
<g><path style="opacity:1" fill="#76868d" d="M 391.5,520.5 C 396.774,524.105 401.441,528.438 405.5,533.5C 400.226,529.895 395.559,525.562 391.5,520.5 Z"/></g>
<g><path style="opacity:1" fill="#a8b5bc" d="M 226.5,505.5 C 226.5,506.5 226.5,507.5 226.5,508.5C 224.408,520.53 225.408,532.197 229.5,543.5C 228.391,543.443 227.391,543.11 226.5,542.5C 226.585,541.005 225.919,540.005 224.5,539.5C 223.335,530.853 223.168,522.186 224,513.5C 224.279,510.543 225.113,507.877 226.5,505.5 Z"/></g>
<g><path style="opacity:1" fill="#a1aeb5" d="M 433.5,516.5 C 436.391,519.202 439.724,521.368 443.5,523C 445.041,524.371 446.375,525.871 447.5,527.5C 445.559,527.131 443.725,526.464 442,525.5C 441.667,525.833 441.333,526.167 441,526.5C 438.728,523.052 436.228,519.719 433.5,516.5 Z"/></g>
<g><path style="opacity:1" fill="#99a6ac" d="M 692.5,508.5 C 695.843,510.508 697.676,513.508 698,517.5C 698.5,528.828 698.667,540.162 698.5,551.5C 698.167,551.5 697.833,551.5 697.5,551.5C 697.666,539.472 697.166,527.472 696,515.5C 695.011,513.03 693.845,510.697 692.5,508.5 Z"/></g>
<g><path style="opacity:1" fill="#74858a" d="M 252.5,523.5 C 252.008,525.819 251.008,527.819 249.5,529.5C 249.025,526.687 250.025,524.687 252.5,523.5 Z"/></g>
<g><path style="opacity:1" fill="#6c7a7f" d="M 249.5,529.5 C 248.551,531.777 247.218,533.777 245.5,535.5C 245.622,532.708 246.956,530.708 249.5,529.5 Z"/></g>
<g><path style="opacity:1" fill="#adbac2" d="M 205.5,514.5 C 205.833,514.5 206.167,514.5 206.5,514.5C 206.14,531.56 206.806,548.56 208.5,565.5C 206.742,561.133 205.575,556.466 205,551.5C 204.173,538.993 204.34,526.66 205.5,514.5 Z"/></g>
<g><path style="opacity:1" fill="#839299" d="M 405.5,533.5 C 412.11,538.441 418.11,544.108 423.5,550.5C 416.916,545.587 410.916,539.92 405.5,533.5 Z"/></g>
<g><path style="opacity:1" fill="#d4dae1" d="M 271.5,500.5 C 268.065,506.462 265.398,512.795 263.5,519.5C 261.027,525.779 258.027,531.779 254.5,537.5C 252.386,538.784 251.386,540.784 251.5,543.5C 247.013,549.13 243.013,555.13 239.5,561.5C 236.437,563.713 233.77,566.379 231.5,569.5C 230.167,569.833 228.833,570.167 227.5,570.5C 227.351,569.448 227.517,568.448 228,567.5C 230.129,568.863 230.629,568.529 229.5,566.5C 231.942,564.956 233.942,562.956 235.5,560.5C 236.689,559.571 238.022,559.238 239.5,559.5C 239.777,556.552 239.444,553.719 238.5,551C 236.119,549.234 233.452,548.068 230.5,547.5C 229.808,548.025 229.308,548.692 229,549.5C 227.758,548.128 226.258,547.128 224.5,546.5C 223.614,545.675 223.281,544.675 223.5,543.5C 224.791,543.737 225.791,543.404 226.5,542.5C 227.391,543.11 228.391,543.443 229.5,543.5C 230.817,543.821 232.151,544.154 233.5,544.5C 235.932,542.744 238.599,541.41 241.5,540.5C 243.587,539.415 244.92,537.749 245.5,535.5C 247.218,533.777 248.551,531.777 249.5,529.5C 251.008,527.819 252.008,525.819 252.5,523.5C 255.078,516.461 258.245,509.795 262,503.5C 262.314,497.355 265.48,494.021 271.5,493.5C 271.5,495.833 271.5,498.167 271.5,500.5 Z"/></g>
<g><path style="opacity:1" fill="#79898e" d="M 245.5,535.5 C 244.92,537.749 243.587,539.415 241.5,540.5C 242.08,538.251 243.413,536.585 245.5,535.5 Z"/></g>
<g><path style="opacity:1" fill="#62737a" d="M 683.5,523.5 C 684.653,529.319 684.819,535.319 684,541.5C 682.778,545.015 681.278,548.348 679.5,551.5C 680.175,547.643 681.342,543.977 683,540.5C 683.499,534.843 683.666,529.176 683.5,523.5 Z"/></g>
<g><path style="opacity:1" fill="#7a8c90" d="M 254.5,537.5 C 254.008,539.819 253.008,541.819 251.5,543.5C 251.386,540.784 252.386,538.784 254.5,537.5 Z"/></g>
<g><path style="opacity:1" fill="#74878e" d="M 465.5,540.5 C 469.174,540.707 471.84,542.374 473.5,545.5C 470.51,544.339 467.843,542.672 465.5,540.5 Z"/></g>
<g><path style="opacity:1" fill="#c9d1d9" d="M 689.5,506.5 C 691.027,506.427 692.027,507.094 692.5,508.5C 690.833,508.5 689.167,508.5 687.5,508.5C 686.758,511.973 686.091,515.473 685.5,519C 686.717,529.165 686.717,539.332 685.5,549.5C 684.178,549.33 683.011,549.663 682,550.5C 680.851,553.393 680.351,556.393 680.5,559.5C 678.678,559.831 677.011,560.498 675.5,561.5C 675.5,560.833 675.5,560.167 675.5,559.5C 677.873,557.421 679.206,554.754 679.5,551.5C 681.278,548.348 682.778,545.015 684,541.5C 684.819,535.319 684.653,529.319 683.5,523.5C 683.5,522.167 683.5,520.833 683.5,519.5C 683.335,515.818 683.501,512.152 684,508.5C 685.444,506.845 687.278,506.178 689.5,506.5 Z"/></g>
<g><path style="opacity:1" fill="#b8c1c9" d="M 473.5,545.5 C 480.037,548.931 486.37,552.598 492.5,556.5C 490.167,556.5 487.833,556.5 485.5,556.5C 485.719,555.325 485.386,554.325 484.5,553.5C 479.85,552.025 476.183,549.358 473.5,545.5 Z"/></g>
<g><path style="opacity:1" fill="#4f656d" d="M 679.5,551.5 C 679.206,554.754 677.873,557.421 675.5,559.5C 676.304,556.558 677.638,553.891 679.5,551.5 Z"/></g>
<g><path style="opacity:1" fill="#72838a" d="M 675.5,559.5 C 675.5,560.167 675.5,560.833 675.5,561.5C 674.167,562.5 672.833,563.5 671.5,564.5C 672.08,562.251 673.413,560.585 675.5,559.5 Z"/></g>
<g><path style="opacity:1" fill="#3d535a" d="M 697.5,551.5 C 697.833,551.5 698.167,551.5 698.5,551.5C 698.847,558.792 697.181,565.458 693.5,571.5C 694.96,564.865 696.294,558.199 697.5,551.5 Z"/></g>
<g><path style="opacity:1" fill="#5d7076" d="M 239.5,561.5 C 237.66,565.069 234.993,567.736 231.5,569.5C 233.77,566.379 236.437,563.713 239.5,561.5 Z"/></g>
<g><path style="opacity:1" fill="#74848a" d="M 671.5,564.5 C 669.431,567.573 666.764,569.906 663.5,571.5C 665.569,568.427 668.236,566.094 671.5,564.5 Z"/></g>
<g><path style="opacity:1" fill="#76878b" d="M 447.5,568.5 C 449.749,569.08 451.415,570.413 452.5,572.5C 450.251,571.92 448.585,570.587 447.5,568.5 Z"/></g>
<g><path style="opacity:1" fill="#23383e" d="M 509.5,563.5 C 515.034,563.217 519.7,565.051 523.5,569C 530.836,569.348 537.17,571.848 542.5,576.5C 540.167,575.833 537.833,575.167 535.5,574.5C 526.098,572.463 517.432,568.796 509.5,563.5 Z"/></g>
<g><path style="opacity:1" fill="#51666a" d="M 663.5,571.5 C 661.109,573.362 658.442,574.696 655.5,575.5C 657.579,573.127 660.246,571.794 663.5,571.5 Z"/></g>
<g><path style="opacity:1" fill="#7f9095" d="M 231.5,569.5 C 227.219,574.184 221.885,575.684 215.5,574C 214.584,573.722 213.918,573.222 213.5,572.5C 218.66,574.416 223.327,573.749 227.5,570.5C 228.833,570.167 230.167,569.833 231.5,569.5 Z"/></g>
<g><path style="opacity:1" fill="#a7b4bb" d="M 457.5,575.5 C 459.833,575.5 462.167,575.5 464.5,575.5C 464.33,576.822 464.663,577.989 465.5,579C 468.567,581.188 471.567,583.355 474.5,585.5C 473.127,585.657 471.793,585.49 470.5,585C 466.044,581.798 461.711,578.632 457.5,575.5 Z"/></g>
<g><path style="opacity:1" fill="#83949b" d="M 474.5,585.5 C 477.439,586.456 479.772,588.123 481.5,590.5C 478.237,590.044 475.904,588.377 474.5,585.5 Z"/></g>
<g><path style="opacity:1" fill="#7e8e95" d="M 688.5,583.5 C 687.471,586.891 685.471,589.557 682.5,591.5C 684.037,588.398 686.037,585.732 688.5,583.5 Z"/></g>
<g><path style="opacity:1" fill="#d6dce2" d="M 675.5,561.5 C 677.314,565.37 675.981,567.037 671.5,566.5C 671.057,569.624 669.39,571.957 666.5,573.5C 666.124,577.264 664.124,579.597 660.5,580.5C 661.376,581.251 662.376,581.751 663.5,582C 660.586,583.385 657.586,583.218 654.5,581.5C 651.442,583.141 648.108,583.974 644.5,584C 641.458,586.875 637.791,588.208 633.5,588C 633.833,588.333 634.167,588.667 634.5,589C 616.626,591.453 598.626,592.12 580.5,591C 580.833,590.667 581.167,590.333 581.5,590C 579.527,589.505 577.527,589.338 575.5,589.5C 575.5,588.5 575.5,587.5 575.5,586.5C 570.313,587.051 564.98,587.051 559.5,586.5C 559.5,585.5 559.5,584.5 559.5,583.5C 556.813,583.664 554.146,583.497 551.5,583C 549.699,580.611 547.532,580.111 545,581.5C 543.036,580.148 540.869,579.314 538.5,579C 537.252,577.6 536.252,576.1 535.5,574.5C 537.833,575.167 540.167,575.833 542.5,576.5C 550.601,579.775 558.934,582.275 567.5,584C 572.898,584.517 578.231,585.351 583.5,586.5C 589.419,588.045 595.586,588.711 602,588.5C 606.68,588.499 611.18,588.166 615.5,587.5C 621.18,587.701 626.514,586.701 631.5,584.5C 632.167,584.5 632.833,584.5 633.5,584.5C 638.795,584.351 643.462,582.684 647.5,579.5C 650.437,578.528 653.103,577.195 655.5,575.5C 658.442,574.696 661.109,573.362 663.5,571.5C 666.764,569.906 669.431,567.573 671.5,564.5C 672.833,563.5 674.167,562.5 675.5,561.5 Z"/></g>
<g><path style="opacity:1" fill="#758389" d="M 583.5,586.5 C 594.148,587.277 604.815,587.61 615.5,587.5C 611.18,588.166 606.68,588.499 602,588.5C 595.586,588.711 589.419,588.045 583.5,586.5 Z"/></g>
<g><path style="opacity:1" fill="#586a71" d="M 631.5,584.5 C 626.514,586.701 621.18,587.701 615.5,587.5C 620.551,585.656 625.884,584.656 631.5,584.5 Z"/></g>
<g><path style="opacity:1" fill="#65787f" d="M 647.5,579.5 C 643.462,582.684 638.795,584.351 633.5,584.5C 637.885,582.319 642.552,580.653 647.5,579.5 Z"/></g>
<g><path style="opacity:1" fill="#a2aeb6" d="M 495.5,597.5 C 502.269,598.997 508.269,600.664 513.5,602.5C 513.5,603.5 513.5,604.5 513.5,605.5C 515.786,605.595 517.786,606.262 519.5,607.5C 517.073,607.477 514.74,606.977 512.5,606C 506.568,603.609 500.901,600.776 495.5,597.5 Z"/></g>
<g><path style="opacity:1" fill="#364b54" d="M 671.5,602.5 C 669.533,604.493 667.533,606.493 665.5,608.5C 660.722,610.388 656.055,612.555 651.5,615C 651.833,615.333 652.167,615.667 652.5,616C 648.27,617.29 643.936,617.79 639.5,617.5C 646.832,615.014 654.165,612.181 661.5,609C 664.464,606.19 667.798,604.024 671.5,602.5 Z"/></g>
<g><path style="opacity:1" fill="#97a2aa" d="M 527.5,610.5 C 530.839,610.89 534.173,611.39 537.5,612C 538.756,612.417 539.423,613.25 539.5,614.5C 534.996,614.381 530.996,613.048 527.5,610.5 Z"/></g>
<g><path style="opacity:1" fill="#66797f" d="M 559.5,619.5 C 561.898,619.259 563.898,619.926 565.5,621.5C 563.102,621.741 561.102,621.074 559.5,619.5 Z"/></g>
<g><path style="opacity:1" fill="#d1d7df" d="M 682.5,591.5 C 682.013,592.473 681.513,593.473 681,594.5C 678.23,597.781 675.064,600.447 671.5,602.5C 667.798,604.024 664.464,606.19 661.5,609C 654.165,612.181 646.832,615.014 639.5,617.5C 631.456,619.18 623.456,620.846 615.5,622.5C 604.346,623.495 593.012,623.828 581.5,623.5C 577.081,622.028 572.414,621.362 567.5,621.5C 566.833,621.5 566.167,621.5 565.5,621.5C 563.898,619.926 561.898,619.259 559.5,619.5C 552.582,618.437 545.915,616.77 539.5,614.5C 545.029,614.348 550.529,614.682 556,615.5C 561.243,617.347 566.576,618.68 572,619.5C 572.561,618.978 573.228,618.645 574,618.5C 576.227,620.821 578.727,621.154 581.5,619.5C 591.419,621.421 601.419,621.921 611.5,621C 614.038,619.369 616.705,618.036 619.5,617C 629.852,615.496 640.185,613.829 650.5,612C 651.9,610.562 653.567,609.729 655.5,609.5C 655.5,608.5 655.5,607.5 655.5,606.5C 660.824,604.374 666.157,602.374 671.5,600.5C 671.5,599.5 671.5,598.5 671.5,597.5C 675.253,595.647 678.92,593.647 682.5,591.5 Z"/></g>
<g><path style="opacity:1" fill="#576b72" d="M 639.5,617.5 C 632.279,621.992 624.279,623.659 615.5,622.5C 623.456,620.846 631.456,619.18 639.5,617.5 Z"/></g>
<g><path style="opacity:1" fill="#7d8890" d="M 567.5,621.5 C 572.414,621.362 577.081,622.028 581.5,623.5C 576.566,623.771 571.9,623.104 567.5,621.5 Z"/></g>
<g><path style="opacity:1" fill="#758689" d="M 288.5,685.5 C 278.5,685.5 268.5,685.5 258.5,685.5C 258.5,688.833 258.5,692.167 258.5,695.5C 258.167,695.5 257.833,695.5 257.5,695.5C 257.5,691.833 257.5,688.167 257.5,684.5C 268.014,684.172 278.347,684.506 288.5,685.5 Z"/></g>
<g><path style="opacity:1" fill="#f9fbfb" d="M 131.5,711.5 C 129.541,715.126 126.874,718.126 123.5,720.5C 127.999,725.32 131.665,730.653 134.5,736.5C 129.944,738.442 124.944,739.108 119.5,738.5C 116.35,732.362 112.35,726.862 107.5,722C 105.866,721.506 104.199,721.34 102.5,721.5C 101.512,726.64 101.179,731.974 101.5,737.5C 97.5,737.5 93.5,737.5 89.5,737.5C 89.5,720.167 89.5,702.833 89.5,685.5C 101.334,684.837 113,685.671 124.5,688C 126.607,689.264 127.607,691.097 127.5,693.5C 129.39,693.297 130.89,693.963 132,695.5C 131.904,700.809 131.738,706.142 131.5,711.5 Z"/></g>
<g><path style="opacity:1" fill="#fafcfc" d="M 190.5,684.5 C 190.762,698.529 190.429,712.529 189.5,726.5C 187.931,734.066 183.265,738.066 175.5,738.5C 169.491,738.666 163.491,738.499 157.5,738C 155.091,736.293 152.425,735.46 149.5,735.5C 148.542,735.047 147.708,734.381 147,733.5C 146.621,730.97 145.787,728.637 144.5,726.5C 144.5,725.167 144.5,723.833 144.5,722.5C 144.333,710.829 144.5,699.162 145,687.5C 148.494,685.623 152.327,684.956 156.5,685.5C 156.333,697.505 156.5,709.505 157,721.5C 157.278,722.416 157.778,723.082 158.5,723.5C 159.338,723.842 159.672,724.508 159.5,725.5C 161.462,727.017 163.795,727.684 166.5,727.5C 168.369,727.493 170.036,727.16 171.5,726.5C 174.773,725.404 176.439,723.071 176.5,719.5C 177.495,708.012 177.828,696.345 177.5,684.5C 181.833,684.5 186.167,684.5 190.5,684.5 Z"/></g>
<g><path style="opacity:1" fill="#65777c" d="M 435.5,697.5 C 435.5,693.833 435.5,690.167 435.5,686.5C 420.833,686.5 406.167,686.5 391.5,686.5C 391.5,690.167 391.5,693.833 391.5,697.5C 390.517,693.702 390.183,689.702 390.5,685.5C 405.833,685.5 421.167,685.5 436.5,685.5C 436.817,689.702 436.483,693.702 435.5,697.5 Z"/></g>
<g><path style="opacity:1" fill="#607579" d="M 530.5,689.5 C 529.733,688.828 529.066,687.995 528.5,687C 522.085,686.21 515.752,686.376 509.5,687.5C 512.428,686.18 515.761,685.514 519.5,685.5C 522.833,685.667 526.167,685.833 529.5,686C 530.337,687.011 530.67,688.178 530.5,689.5 Z"/></g>
<g><path style="opacity:1" fill="#f8fbfb" d="M 233.5,685.5 C 238.887,686.532 243.387,689.199 247,693.5C 249.775,704.107 250.108,714.774 248,725.5C 246.82,730.821 243.986,734.821 239.5,737.5C 226.863,738.421 214.197,738.754 201.5,738.5C 201.5,720.833 201.5,703.167 201.5,685.5C 212.167,685.5 222.833,685.5 233.5,685.5 Z"/></g>
<g><path style="opacity:1" fill="#f7fafa" d="M 288.5,685.5 C 296.506,685.674 301.34,689.674 303,697.5C 304.82,705.11 303.154,711.777 298,717.5C 295.732,718.76 293.566,720.094 291.5,721.5C 296.765,726.001 301.098,731.335 304.5,737.5C 299.604,739.446 294.271,740.113 288.5,739.5C 285.456,733.616 281.79,728.116 277.5,723C 275.527,722.505 273.527,722.338 271.5,722.5C 271.5,727.833 271.5,733.167 271.5,738.5C 267.167,738.5 262.833,738.5 258.5,738.5C 258.5,724.167 258.5,709.833 258.5,695.5C 258.5,692.167 258.5,688.833 258.5,685.5C 268.5,685.5 278.5,685.5 288.5,685.5 Z"/></g>
<g><path style="opacity:1" fill="#f7fafa" d="M 347.5,691.5 C 350.501,697.838 352.501,704.505 353.5,711.5C 354.661,716.096 355.661,720.763 356.5,725.5C 358.564,728.727 360.23,732.06 361.5,735.5C 362.338,735.842 362.672,736.508 362.5,737.5C 357.944,739.442 352.944,740.108 347.5,739.5C 347.5,738.167 347.5,736.833 347.5,735.5C 347.335,733.173 346.669,731.007 345.5,729C 338.986,728.18 332.653,728.347 326.5,729.5C 324.928,732.215 323.928,735.215 323.5,738.5C 318.833,738.5 314.167,738.5 309.5,738.5C 309.5,737.5 309.5,736.5 309.5,735.5C 313.473,723.918 317.473,712.251 321.5,700.5C 323.104,699.713 323.771,698.38 323.5,696.5C 324.552,696.649 325.552,696.483 326.5,696C 325.427,692.888 325.427,689.721 326.5,686.5C 332.833,686.5 339.167,686.5 345.5,686.5C 345.402,688.553 346.069,690.22 347.5,691.5 Z"/></g>
<g><path style="opacity:1" fill="#667e82" d="M 650.5,687.5 C 637.167,687.5 623.833,687.5 610.5,687.5C 610.5,705.5 610.5,723.5 610.5,741.5C 609.503,723.341 609.17,705.008 609.5,686.5C 623.344,686.171 637.01,686.504 650.5,687.5 Z"/></g>
<g><path style="opacity:1" fill="#fafcfc" d="M 435.5,697.5 C 430.305,697.179 425.305,697.513 420.5,698.5C 419.504,711.99 419.171,725.656 419.5,739.5C 415.5,739.5 411.5,739.5 407.5,739.5C 407.829,725.656 407.496,711.99 406.5,698.5C 401.695,697.513 396.695,697.179 391.5,697.5C 391.5,693.833 391.5,690.167 391.5,686.5C 406.167,686.5 420.833,686.5 435.5,686.5C 435.5,690.167 435.5,693.833 435.5,697.5 Z"/></g>
<g><path style="opacity:1" fill="#f7fafa" d="M 473.5,686.5 C 475.936,687.871 478.603,688.871 481.5,689.5C 489.783,699.574 489.45,709.408 480.5,719C 478.975,720.009 477.308,720.509 475.5,720.5C 480.567,726.591 484.901,733.258 488.5,740.5C 482.773,740.74 477.106,740.407 471.5,739.5C 468.589,733.918 465.256,728.585 461.5,723.5C 459.393,722.532 457.059,722.198 454.5,722.5C 454.5,728.167 454.5,733.833 454.5,739.5C 450.5,739.5 446.5,739.5 442.5,739.5C 442.5,721.833 442.5,704.167 442.5,686.5C 452.833,686.5 463.167,686.5 473.5,686.5 Z"/></g>
<g><path style="opacity:1" fill="#f7fafa" d="M 530.5,689.5 C 530.5,690.167 530.5,690.833 530.5,691.5C 530.82,694.952 530.82,698.285 530.5,701.5C 533.727,707.685 535.894,714.351 537,721.5C 537.317,719.699 537.984,719.366 539,720.5C 539.236,722.764 539.736,724.931 540.5,727C 540.167,727.333 539.833,727.667 539.5,728C 542.87,730.697 544.204,734.197 543.5,738.5C 540.15,738.665 536.817,738.498 533.5,738C 532.512,735.833 531.179,734 529.5,732.5C 529.672,731.508 529.338,730.842 528.5,730.5C 522.355,729.51 516.022,729.177 509.5,729.5C 509.5,730.5 509.5,731.5 509.5,732.5C 508.681,734.772 508.015,737.106 507.5,739.5C 502.381,740.103 497.715,739.436 493.5,737.5C 498.534,720.682 503.868,704.015 509.5,687.5C 515.752,686.376 522.085,686.21 528.5,687C 529.066,687.995 529.733,688.828 530.5,689.5 Z"/></g>
<g><path style="opacity:1" fill="#5a6a6f" d="M 473.5,686.5 C 476.716,686.345 479.383,687.345 481.5,689.5C 478.603,688.871 475.936,687.871 473.5,686.5 Z"/></g>
<g><path style="opacity:1" fill="#f8fbfb" d="M 583.5,687.5 C 587.683,688.257 591.683,689.59 595.5,691.5C 598.609,695.051 600.609,699.051 601.5,703.5C 601.656,711.529 601.323,719.529 600.5,727.5C 599.723,731.278 598.056,734.611 595.5,737.5C 592.982,738.264 590.649,739.264 588.5,740.5C 585.794,740.575 583.127,740.908 580.5,741.5C 571.5,741.5 562.5,741.5 553.5,741.5C 553.5,723.5 553.5,705.5 553.5,687.5C 563.5,687.5 573.5,687.5 583.5,687.5 Z"/></g>
<g><path style="opacity:1" fill="#fcfefe" d="M 624.5,698.5 C 623.521,701.625 623.187,704.958 623.5,708.5C 630.982,709.492 638.648,709.825 646.5,709.5C 646.5,712.833 646.5,716.167 646.5,719.5C 638.981,719.175 631.648,719.508 624.5,720.5C 623.167,723.833 623.167,727.167 624.5,730.5C 632.65,731.493 640.983,731.826 649.5,731.5C 649.5,734.5 649.5,737.5 649.5,740.5C 636.833,740.5 624.167,740.5 611.5,740.5C 611.5,723.167 611.5,705.833 611.5,688.5C 624.167,688.5 636.833,688.5 649.5,688.5C 649.5,691.5 649.5,694.5 649.5,697.5C 640.983,697.174 632.65,697.507 624.5,698.5 Z"/></g>
<g><path style="opacity:1" fill="#f8fafa" d="M 658.5,687.5 C 668.833,687.5 679.167,687.5 689.5,687.5C 691.277,688.6 693.277,689.434 695.5,690C 700.913,693.326 703.246,698.159 702.5,704.5C 703.166,711.35 700.833,716.85 695.5,721C 694.207,721.49 692.873,721.657 691.5,721.5C 691.351,722.552 691.517,723.552 692,724.5C 694.123,727.113 696.456,729.446 699,731.5C 700.271,734.383 701.771,737.05 703.5,739.5C 698.944,741.442 693.944,742.108 688.5,741.5C 685.17,737.145 682.17,732.479 679.5,727.5C 678.466,723.466 675.8,721.799 671.5,722.5C 671.5,719.833 671.5,717.167 671.5,714.5C 676.833,714.5 682.167,714.5 687.5,714.5C 687.5,713.167 687.5,711.833 687.5,710.5C 688.747,707.133 688.747,703.799 687.5,700.5C 687.027,699.094 686.027,698.427 684.5,698.5C 680.03,697.514 675.363,697.181 670.5,697.5C 670.107,711.877 670.107,726.211 670.5,740.5C 666.5,740.5 662.5,740.5 658.5,740.5C 658.5,722.833 658.5,705.167 658.5,687.5 Z"/></g>
<g><path style="opacity:1" fill="#c6d3d6" d="M 131.5,711.5 C 131.738,706.142 131.904,700.809 132,695.5C 130.89,693.963 129.39,693.297 127.5,693.5C 127.607,691.097 126.607,689.264 124.5,688C 113,685.671 101.334,684.837 89.5,685.5C 89.5,702.833 89.5,720.167 89.5,737.5C 89.1667,737.5 88.8333,737.5 88.5,737.5C 88.5,719.5 88.5,701.5 88.5,683.5C 98.8387,683.334 109.172,683.5 119.5,684C 131.498,686.822 136.332,694.322 134,706.5C 133.626,708.491 132.793,710.158 131.5,711.5 Z"/></g>
<g><path style="opacity:1" fill="#aab8bc" d="M 347.5,691.5 C 346.069,690.22 345.402,688.553 345.5,686.5C 339.167,686.5 332.833,686.5 326.5,686.5C 325.427,689.721 325.427,692.888 326.5,696C 325.552,696.483 324.552,696.649 323.5,696.5C 323.771,698.38 323.104,699.713 321.5,700.5C 322.598,695.205 324.265,690.039 326.5,685C 332.833,684.333 339.167,684.333 345.5,685C 347.016,686.897 347.683,689.064 347.5,691.5 Z"/></g>
<g><path style="opacity:1" fill="#d1dcde" d="M 650.5,687.5 C 650.5,691.167 650.5,694.833 650.5,698.5C 641.833,698.5 633.167,698.5 624.5,698.5C 632.65,697.507 640.983,697.174 649.5,697.5C 649.5,694.5 649.5,691.5 649.5,688.5C 636.833,688.5 624.167,688.5 611.5,688.5C 611.5,705.833 611.5,723.167 611.5,740.5C 624.167,740.5 636.833,740.5 649.5,740.5C 649.5,737.5 649.5,734.5 649.5,731.5C 640.983,731.826 632.65,731.493 624.5,730.5C 633.167,730.5 641.833,730.5 650.5,730.5C 650.5,734.167 650.5,737.833 650.5,741.5C 637.167,741.5 623.833,741.5 610.5,741.5C 610.5,723.5 610.5,705.5 610.5,687.5C 623.833,687.5 637.167,687.5 650.5,687.5 Z"/></g>
<g><path style="opacity:1" fill="#64797d" d="M 689.5,687.5 C 679.167,687.5 668.833,687.5 658.5,687.5C 657.503,705.326 657.17,723.326 657.5,741.5C 656.503,723.341 656.17,705.008 656.5,686.5C 667.679,686.172 678.679,686.505 689.5,687.5 Z"/></g>
<g><path style="opacity:1" fill="#afbfc0" d="M 113.5,695.5 C 109.833,695.5 106.167,695.5 102.5,695.5C 102.5,700.167 102.5,704.833 102.5,709.5C 101.513,704.695 101.179,699.695 101.5,694.5C 105.702,694.183 109.702,694.517 113.5,695.5 Z"/></g>
<g><path style="opacity:1" fill="#586d71" d="M 624.5,698.5 C 633.167,698.5 641.833,698.5 650.5,698.5C 642.016,699.493 633.349,699.826 624.5,699.5C 624.5,702.5 624.5,705.5 624.5,708.5C 624.167,708.5 623.833,708.5 623.5,708.5C 623.187,704.958 623.521,701.625 624.5,698.5 Z"/></g>
<g><path style="opacity:1" fill="#66787a" d="M 671.5,699.5 C 675.634,698.515 679.968,698.182 684.5,698.5C 686.027,698.427 687.027,699.094 687.5,700.5C 682.228,699.6 676.895,699.267 671.5,699.5 Z"/></g>
<g><path style="opacity:1" fill="#0c282c" d="M 113.5,695.5 C 117.528,696.164 119.528,698.497 119.5,702.5C 119.13,704.667 118.463,706.667 117.5,708.5C 112.547,709.329 107.547,709.663 102.5,709.5C 102.5,704.833 102.5,700.167 102.5,695.5C 106.167,695.5 109.833,695.5 113.5,695.5 Z"/></g>
<g><path style="opacity:1" fill="#07252b" d="M 285.5,697.5 C 287.144,697.81 288.144,698.81 288.5,700.5C 288.632,703.57 288.299,706.57 287.5,709.5C 285.883,710.038 284.216,710.371 282.5,710.5C 279.167,710.5 275.833,710.5 272.5,710.5C 272.5,706.167 272.5,701.833 272.5,697.5C 276.833,697.5 281.167,697.5 285.5,697.5 Z"/></g>
<g><path style="opacity:1" fill="#0a282d" d="M 214.5,696.5 C 232.722,694.026 239.555,701.693 235,719.5C 234.122,722.215 232.622,724.549 230.5,726.5C 225.23,727.451 219.897,727.785 214.5,727.5C 214.5,717.167 214.5,706.833 214.5,696.5 Z"/></g>
<g><path style="opacity:1" fill="#05252b" d="M 580.5,699.5 C 582.873,700.203 584.873,701.536 586.5,703.5C 587.275,708.797 587.608,714.13 587.5,719.5C 586.751,722.201 585.751,724.868 584.5,727.5C 583.609,728.11 582.609,728.443 581.5,728.5C 576.833,728.5 572.167,728.5 567.5,728.5C 567.5,718.833 567.5,709.167 567.5,699.5C 571.833,699.5 576.167,699.5 580.5,699.5 Z"/></g>
<g><path style="opacity:1" fill="#062529" d="M 671.5,699.5 C 676.895,699.267 682.228,699.6 687.5,700.5C 688.747,703.799 688.747,707.133 687.5,710.5C 682.392,712.333 677.058,712.999 671.5,712.5C 671.5,708.167 671.5,703.833 671.5,699.5 Z"/></g>
<g><path style="opacity:1" fill="#c5d2d2" d="M 158.5,723.5 C 157.778,723.082 157.278,722.416 157,721.5C 156.5,709.505 156.333,697.505 156.5,685.5C 152.327,684.956 148.494,685.623 145,687.5C 144.5,699.162 144.333,710.829 144.5,722.5C 143.505,710.011 143.171,697.344 143.5,684.5C 147.97,683.514 152.637,683.181 157.5,683.5C 157.242,696.863 157.575,710.196 158.5,723.5 Z"/></g>
<g><path style="opacity:1" fill="#9bacaf" d="M 190.5,684.5 C 186.167,684.5 181.833,684.5 177.5,684.5C 177.828,696.345 177.495,708.012 176.5,719.5C 176.5,707.5 176.5,695.5 176.5,683.5C 181.363,683.181 186.03,683.514 190.5,684.5 Z"/></g>
<g><path style="opacity:1" fill="#51666c" d="M 285.5,697.5 C 281.167,697.5 276.833,697.5 272.5,697.5C 272.5,701.833 272.5,706.167 272.5,710.5C 275.833,710.5 279.167,710.5 282.5,710.5C 279.038,711.482 275.371,711.815 271.5,711.5C 271.5,706.5 271.5,701.5 271.5,696.5C 276.363,696.181 281.03,696.514 285.5,697.5 Z"/></g>
<g><path style="opacity:1" fill="#122d31" d="M 455.5,697.5 C 459.846,697.334 464.179,697.501 468.5,698C 472.602,700.828 473.602,704.661 471.5,709.5C 470.335,710.584 469.002,711.417 467.5,712C 463.514,712.499 459.514,712.666 455.5,712.5C 455.5,707.5 455.5,702.5 455.5,697.5 Z"/></g>
<g><path style="opacity:1" fill="#2b454a" d="M 143.5,684.5 C 143.171,697.344 143.505,710.011 144.5,722.5C 144.5,723.833 144.5,725.167 144.5,726.5C 143.732,725.737 143.232,724.737 143,723.5C 142.173,710.327 142.34,697.327 143.5,684.5 Z"/></g>
<g><path style="opacity:1" fill="#cad8dc" d="M 658.5,687.5 C 658.5,705.167 658.5,722.833 658.5,740.5C 662.5,740.5 666.5,740.5 670.5,740.5C 670.5,740.833 670.5,741.167 670.5,741.5C 666.167,741.5 661.833,741.5 657.5,741.5C 657.17,723.326 657.503,705.326 658.5,687.5 Z"/></g>
<g><path style="opacity:1" fill="#8b9ba2" d="M 334.5,701.5 C 334.741,703.898 334.074,705.898 332.5,707.5C 332.259,705.102 332.926,703.102 334.5,701.5 Z"/></g>
<g><path style="opacity:1" fill="#425659" d="M 391.5,697.5 C 396.695,697.179 401.695,697.513 406.5,698.5C 406.5,712.5 406.5,726.5 406.5,740.5C 405.504,726.677 405.171,712.677 405.5,698.5C 400.637,698.819 395.97,698.486 391.5,697.5 Z"/></g>
<g><path style="opacity:1" fill="#9ba7a8" d="M 288.5,700.5 C 289.634,702.966 289.801,705.633 289,708.5C 288.617,709.056 288.117,709.389 287.5,709.5C 288.299,706.57 288.632,703.57 288.5,700.5 Z"/></g>
<g><path style="opacity:1" fill="#556c6d" d="M 601.5,703.5 C 602.655,710.321 602.821,717.321 602,724.5C 601.768,725.737 601.268,726.737 600.5,727.5C 601.323,719.529 601.656,711.529 601.5,703.5 Z"/></g>
<g><path style="opacity:1" fill="#7b8d8f" d="M 117.5,708.5 C 117.389,709.117 117.056,709.617 116.5,710C 111.648,710.815 106.981,710.648 102.5,709.5C 107.547,709.663 112.547,709.329 117.5,708.5 Z"/></g>
<g><path style="opacity:1" fill="#132c2f" d="M 340.5,713.5 C 340.5,714.833 340.5,716.167 340.5,717.5C 337.5,717.5 334.5,717.5 331.5,717.5C 331.5,716.167 331.5,714.833 331.5,713.5C 332.15,711.565 332.483,709.565 332.5,707.5C 334.074,705.898 334.741,703.898 334.5,701.5C 335.09,700.234 335.59,698.901 336,697.5C 338.441,702.52 339.941,707.853 340.5,713.5 Z"/></g>
<g><path style="opacity:1" fill="#a4b3b6" d="M 586.5,703.5 C 587.222,703.918 587.722,704.584 588,705.5C 588.815,710.352 588.648,715.019 587.5,719.5C 587.608,714.13 587.275,708.797 586.5,703.5 Z"/></g>
<g><path style="opacity:1" fill="#c2cdce" d="M 684.5,698.5 C 679.968,698.182 675.634,698.515 671.5,699.5C 671.5,703.833 671.5,708.167 671.5,712.5C 677.058,712.999 682.392,712.333 687.5,710.5C 687.5,711.833 687.5,713.167 687.5,714.5C 682.167,714.5 676.833,714.5 671.5,714.5C 671.5,717.167 671.5,719.833 671.5,722.5C 675.8,721.799 678.466,723.466 679.5,727.5C 677.455,725.016 674.788,724.016 671.5,724.5C 671.822,730.358 671.489,736.025 670.5,741.5C 670.5,741.167 670.5,740.833 670.5,740.5C 670.107,726.211 670.107,711.877 670.5,697.5C 675.363,697.181 680.03,697.514 684.5,698.5 Z"/></g>
<g><path style="opacity:1" fill="#9bacb0" d="M 257.5,695.5 C 257.833,695.5 258.167,695.5 258.5,695.5C 258.5,709.833 258.5,724.167 258.5,738.5C 262.833,738.5 267.167,738.5 271.5,738.5C 267.03,739.486 262.363,739.819 257.5,739.5C 257.5,724.833 257.5,710.167 257.5,695.5 Z"/></g>
<g><path style="opacity:1" fill="#0f2a2d" d="M 523.5,713.5 C 523.286,715.144 523.62,716.644 524.5,718C 521.167,718.667 517.833,718.667 514.5,718C 515.38,716.644 515.714,715.144 515.5,713.5C 516.236,708.024 517.57,702.691 519.5,697.5C 520.836,702.845 522.17,708.179 523.5,713.5 Z"/></g>
<g><path style="opacity:1" fill="#5a6a6e" d="M 331.5,713.5 C 331.5,714.833 331.5,716.167 331.5,717.5C 334.5,717.5 337.5,717.5 340.5,717.5C 340.5,716.167 340.5,714.833 340.5,713.5C 341.451,714.919 341.784,716.585 341.5,718.5C 337.833,718.5 334.167,718.5 330.5,718.5C 330.216,716.585 330.549,714.919 331.5,713.5 Z"/></g>
<g><path style="opacity:1" fill="#47595b" d="M 580.5,699.5 C 576.167,699.5 571.833,699.5 567.5,699.5C 567.5,709.167 567.5,718.833 567.5,728.5C 572.167,728.5 576.833,728.5 581.5,728.5C 576.695,729.487 571.695,729.821 566.5,729.5C 566.5,719.167 566.5,708.833 566.5,698.5C 571.363,698.181 576.03,698.514 580.5,699.5 Z"/></g>
<g><path style="opacity:1" fill="#4f6768" d="M 515.5,713.5 C 515.714,715.144 515.38,716.644 514.5,718C 517.833,718.667 521.167,718.667 524.5,718C 523.62,716.644 523.286,715.144 523.5,713.5C 524.738,715.214 525.405,717.214 525.5,719.5C 521.5,719.5 517.5,719.5 513.5,719.5C 513.595,717.214 514.262,715.214 515.5,713.5 Z"/></g>
<g><path style="opacity:1" fill="#7f9598" d="M 623.5,708.5 C 623.833,708.5 624.167,708.5 624.5,708.5C 632.167,708.5 639.833,708.5 647.5,708.5C 647.5,712.5 647.5,716.5 647.5,720.5C 639.833,720.5 632.167,720.5 624.5,720.5C 631.648,719.508 638.981,719.175 646.5,719.5C 646.5,716.167 646.5,712.833 646.5,709.5C 638.648,709.825 630.982,709.492 623.5,708.5 Z"/></g>
<g><path style="opacity:1" fill="#b5c3c4" d="M 353.5,711.5 C 356.768,719.214 359.435,727.214 361.5,735.5C 360.23,732.06 358.564,728.727 356.5,725.5C 355.661,720.763 354.661,716.096 353.5,711.5 Z"/></g>
<g><path style="opacity:1" fill="#313f43" d="M 190.5,684.5 C 191.661,697.994 191.827,711.66 191,725.5C 190.617,726.056 190.117,726.389 189.5,726.5C 190.429,712.529 190.762,698.529 190.5,684.5 Z"/></g>
<g><path style="opacity:1" fill="#8f9fa2" d="M 587.5,719.5 C 588.172,722.942 587.172,725.609 584.5,727.5C 585.751,724.868 586.751,722.201 587.5,719.5 Z"/></g>
<g><path style="opacity:1" fill="#627376" d="M 159.5,725.5 C 163.466,726.162 167.466,726.495 171.5,726.5C 170.036,727.16 168.369,727.493 166.5,727.5C 163.795,727.684 161.462,727.017 159.5,725.5 Z"/></g>
<g><path style="opacity:1" fill="#c3d2d4" d="M 406.5,698.5 C 407.496,711.99 407.829,725.656 407.5,739.5C 411.5,739.5 415.5,739.5 419.5,739.5C 419.171,725.656 419.504,711.99 420.5,698.5C 420.5,712.5 420.5,726.5 420.5,740.5C 415.833,740.5 411.167,740.5 406.5,740.5C 406.5,726.5 406.5,712.5 406.5,698.5 Z"/></g>
<g><path style="opacity:1" fill="#84959a" d="M 583.5,687.5 C 573.5,687.5 563.5,687.5 553.5,687.5C 553.5,705.5 553.5,723.5 553.5,741.5C 562.5,741.5 571.5,741.5 580.5,741.5C 571.348,742.494 562.015,742.827 552.5,742.5C 552.5,723.833 552.5,705.167 552.5,686.5C 563.014,686.172 573.347,686.506 583.5,687.5 Z"/></g>
<g><path style="opacity:1" fill="#9dabad" d="M 326.5,729.5 C 332.653,728.347 338.986,728.18 345.5,729C 346.669,731.007 347.335,733.173 347.5,735.5C 346.229,733.891 345.229,732.058 344.5,730C 338.509,729.501 332.509,729.334 326.5,729.5 Z"/></g>
<g><path style="opacity:1" fill="#8f9fa1" d="M 528.5,730.5 C 521.879,729.94 515.545,730.607 509.5,732.5C 509.5,731.5 509.5,730.5 509.5,729.5C 516.022,729.177 522.355,729.51 528.5,730.5 Z"/></g>
<g><path style="opacity:1" fill="#52696e" d="M 624.5,720.5 C 624.5,723.5 624.5,726.5 624.5,729.5C 633.349,729.174 642.016,729.507 650.5,730.5C 641.833,730.5 633.167,730.5 624.5,730.5C 623.167,727.167 623.167,723.833 624.5,720.5 Z"/></g>
<g><path style="opacity:1" fill="#9dadb0" d="M 102.5,721.5 C 102.5,727.167 102.5,732.833 102.5,738.5C 97.6367,738.819 92.97,738.486 88.5,737.5C 88.8333,737.5 89.1667,737.5 89.5,737.5C 93.5,737.5 97.5,737.5 101.5,737.5C 101.179,731.974 101.512,726.64 102.5,721.5 Z"/></g>
<g><path style="opacity:1" fill="#afbfc2" d="M 473.5,686.5 C 463.167,686.5 452.833,686.5 442.5,686.5C 442.5,704.167 442.5,721.833 442.5,739.5C 446.5,739.5 450.5,739.5 454.5,739.5C 454.5,733.833 454.5,728.167 454.5,722.5C 457.059,722.198 459.393,722.532 461.5,723.5C 459.5,723.5 457.5,723.5 455.5,723.5C 455.5,729.167 455.5,734.833 455.5,740.5C 450.833,740.5 446.167,740.5 441.5,740.5C 441.5,722.167 441.5,703.833 441.5,685.5C 452.346,685.172 463.013,685.506 473.5,686.5 Z"/></g>
<g><path style="opacity:1" fill="#dce7e8" d="M 530.5,691.5 C 536.068,706.876 541.068,722.543 545.5,738.5C 541.285,740.436 536.619,741.103 531.5,740.5C 530.833,737.833 530.167,735.167 529.5,732.5C 531.179,734 532.512,735.833 533.5,738C 536.817,738.498 540.15,738.665 543.5,738.5C 544.204,734.197 542.87,730.697 539.5,728C 539.833,727.667 540.167,727.333 540.5,727C 539.736,724.931 539.236,722.764 539,720.5C 537.984,719.366 537.317,719.699 537,721.5C 535.894,714.351 533.727,707.685 530.5,701.5C 530.82,698.285 530.82,694.952 530.5,691.5 Z"/></g>
<g><path style="opacity:1" fill="#8d9da1" d="M 149.5,735.5 C 152.425,735.46 155.091,736.293 157.5,738C 163.491,738.499 169.491,738.666 175.5,738.5C 169.347,739.653 163.014,739.82 156.5,739C 153.826,738.33 151.493,737.163 149.5,735.5 Z"/></g>
<g><path style="opacity:1" fill="#63767a" d="M 134.5,736.5 C 135.404,737.209 135.737,738.209 135.5,739.5C 129.974,739.821 124.64,739.488 119.5,738.5C 124.944,739.108 129.944,738.442 134.5,736.5 Z"/></g>
<g><path style="opacity:1" fill="#9eaeb1" d="M 233.5,685.5 C 222.833,685.5 212.167,685.5 201.5,685.5C 201.5,703.167 201.5,720.833 201.5,738.5C 214.197,738.754 226.863,738.421 239.5,737.5C 235.46,739.117 231.127,739.95 226.5,740C 217.84,740.5 209.173,740.666 200.5,740.5C 200.5,721.833 200.5,703.167 200.5,684.5C 211.679,684.172 222.679,684.505 233.5,685.5 Z"/></g>
<g><path style="opacity:1" fill="#9eafb1" d="M 326.5,729.5 C 326.277,733.162 325.277,736.495 323.5,739.5C 318.637,739.819 313.97,739.486 309.5,738.5C 314.167,738.5 318.833,738.5 323.5,738.5C 323.928,735.215 324.928,732.215 326.5,729.5 Z"/></g>
<g><path style="opacity:1" fill="#5e7475" d="M 304.5,737.5 C 305.404,738.209 305.737,739.209 305.5,740.5C 299.642,740.822 293.975,740.489 288.5,739.5C 294.271,740.113 299.604,739.446 304.5,737.5 Z"/></g>
<g><path style="opacity:1" fill="#455b5e" d="M 309.5,735.5 C 309.5,736.5 309.5,737.5 309.5,738.5C 313.97,739.486 318.637,739.819 323.5,739.5C 318.695,740.487 313.695,740.821 308.5,740.5C 308.216,738.585 308.549,736.919 309.5,735.5 Z"/></g>
<g><path style="opacity:1" fill="#5a6e72" d="M 362.5,737.5 C 363.404,738.209 363.737,739.209 363.5,740.5C 357.974,740.821 352.64,740.488 347.5,739.5C 352.944,740.108 357.944,739.442 362.5,737.5 Z"/></g>
<g><path style="opacity:1" fill="#afbec2" d="M 493.5,737.5 C 497.715,739.436 502.381,740.103 507.5,739.5C 502.695,740.487 497.695,740.821 492.5,740.5C 492.263,739.209 492.596,738.209 493.5,737.5 Z"/></g>
<g><path style="opacity:1" fill="#536669" d="M 595.5,737.5 C 593.964,740.092 591.631,741.092 588.5,740.5C 590.649,739.264 592.982,738.264 595.5,737.5 Z"/></g>
<g><path style="opacity:1" fill="#637779" d="M 471.5,739.5 C 477.106,740.407 482.773,740.74 488.5,740.5C 483.35,741.651 478.016,741.817 472.5,741C 471.944,740.617 471.611,740.117 471.5,739.5 Z"/></g>
<g><path style="opacity:1" fill="#62777b" d="M 545.5,738.5 C 546.404,739.209 546.737,740.209 546.5,741.5C 541.305,741.821 536.305,741.487 531.5,740.5C 536.619,741.103 541.285,740.436 545.5,738.5 Z"/></g>
<g><path style="opacity:1" fill="#667b7f" d="M 703.5,739.5 C 704.404,740.209 704.737,741.209 704.5,742.5C 698.974,742.821 693.64,742.488 688.5,741.5C 693.944,742.108 698.944,741.442 703.5,739.5 Z"/></g>
</svg>
